<?xml version="1.0" standalone="no"?>
<!DOCTYPE svg PUBLIC "-//W3C//DTD SVG 1.1//EN"
"http://www.w3.org/Graphics/SVG/1.1/DTD/svg11.dtd">
<svg width="591.307" height="326.74" viewBox="0 0 12318.9 6807.09" version="1.1"
xmlns="http://www.w3.org/2000/svg"
xmlns:xlink="http://www.w3.org/1999/xlink">
<g fill-rule="evenodd"><path d="M 6.39488e-14,6807.09 L 6.39488e-14,9.73444e-13 L 12318.9,9.73444e-13 L 12318.9,6807.09 L 6.39488e-14,6807.09 z " style="fill-opacity:0.200000;fill:rgb(103,198,105);"/></g>
<polyline points="7.87454,6789.37 7.87454,17.7165 9.68054,12.0365 13.1405,9.01854 17.7165,7.87454 12301.2,7.87454 12305.9,9.08054 12309.8,12.9125 12311,17.7165 12311,6789.37 12309.2,6795.05 12305.8,6798.07 12301.2,6799.21 17.6125,6799.2 10.4825,6796.04 7.87454,6789.37" style="stroke:rgb(103,198,105);stroke-width:15.748031;fill:none;stroke-opacity:0.5;stroke-linecap:round;stroke-linejoin:round;;fill:none"/>
<polyline points="7.87454,6789.37 7.87454,17.7165 9.68054,12.0365 13.1405,9.01854 17.7165,7.87454 12301.2,7.87454 12305.9,9.08054 12309.8,12.9125 12311,17.7165 12311,6789.37 12309.2,6795.05 12305.8,6798.07 12301.2,6799.21 17.6125,6799.2 10.4825,6796.04 7.87454,6789.37" style="stroke:rgb(0,0,0);stroke-width:1px;fill:none;stroke-opacity:1;stroke-linecap:round;stroke-linejoin:round;;fill:none"/>
<polyline points="27.5585,6779.53 27.5585,27.5585 12291.3,27.5585 12291.3,6779.53 27.5585,6779.53" style="stroke:rgb(103,198,105);stroke-width:15.748031;fill:none;stroke-opacity:0.5;stroke-linecap:round;stroke-linejoin:round;;fill:none"/>
<polyline points="27.5585,6779.53 27.5585,27.5585 12291.3,27.5585 12291.3,6779.53 27.5585,6779.53" style="stroke:rgb(0,0,0);stroke-width:1px;fill:none;stroke-opacity:1;stroke-linecap:round;stroke-linejoin:round;;fill:none"/>
<g fill-rule="evenodd"><path d="M 17.6107,6791.33 L 16.2537,6790.69 L 15.748,6789.37 L 15.748,17.7165 L 16.0798,16.6229 L 16.6229,16.0798 L 17.7165,15.748 L 12301.2,15.748 L 12301.9,15.8979 L 12302.8,16.6229 L 12303.1,17.7165 L 12303.1,6789.37 L 12302.8,6790.46 L 12302.3,6791.01 L 12301.2,6791.34 L 17.6107,6791.33M 19.685,6787.4 L 12299.2,6787.4 L 12299.2,19.685 L 19.685,19.685 L 19.685,6787.4 z " style="fill-opacity:1.000000;fill:rgb(103,198,105);stroke:rgb(0,0,0);stroke-width:2"/></g>
</svg>
