G04 #@! TF.GenerationSoftware,KiCad,Pcbnew,5.0.2-bee76a0~70~ubuntu18.04.1*
G04 #@! TF.CreationDate,2019-07-03T11:01:47+02:00*
G04 #@! TF.ProjectId,stepper_control,73746570-7065-4725-9f63-6f6e74726f6c,rev?*
G04 #@! TF.SameCoordinates,Original*
G04 #@! TF.FileFunction,Copper,L1,Top*
G04 #@! TF.FilePolarity,Positive*
%FSLAX46Y46*%
G04 Gerber Fmt 4.6, Leading zero omitted, Abs format (unit mm)*
G04 Created by KiCad (PCBNEW 5.0.2-bee76a0~70~ubuntu18.04.1) date Mi 03 Jul 2019 11:01:47 CEST*
%MOMM*%
%LPD*%
G01*
G04 APERTURE LIST*
G04 #@! TA.AperFunction,ComponentPad*
%ADD10O,1.727200X1.727200*%
G04 #@! TD*
G04 #@! TA.AperFunction,ComponentPad*
%ADD11R,1.600000X1.600000*%
G04 #@! TD*
G04 #@! TA.AperFunction,ComponentPad*
%ADD12O,1.600000X1.600000*%
G04 #@! TD*
G04 #@! TA.AperFunction,SMDPad,CuDef*
%ADD13R,3.500000X2.000000*%
G04 #@! TD*
G04 #@! TA.AperFunction,SMDPad,CuDef*
%ADD14R,6.000000X2.000000*%
G04 #@! TD*
G04 #@! TA.AperFunction,ComponentPad*
%ADD15R,1.700000X1.700000*%
G04 #@! TD*
G04 #@! TA.AperFunction,ComponentPad*
%ADD16O,1.700000X1.700000*%
G04 #@! TD*
G04 #@! TA.AperFunction,Conductor*
%ADD17C,1.000000*%
G04 #@! TD*
G04 #@! TA.AperFunction,Conductor*
%ADD18C,0.254000*%
G04 #@! TD*
G04 APERTURE END LIST*
D10*
G04 #@! TO.P,XA1,RST2*
G04 #@! TO.N,Net-(XA1-PadRST2)*
X67373000Y-27400000D03*
G04 #@! TO.P,XA1,GND4*
G04 #@! TO.N,Net-(XA1-PadGND4)*
X64833000Y-27400000D03*
G04 #@! TO.P,XA1,MOSI*
G04 #@! TO.N,/MOSI*
X64833000Y-29940000D03*
G04 #@! TO.P,XA1,SCK*
G04 #@! TO.N,/SCK*
X67373000Y-29940000D03*
G04 #@! TO.P,XA1,5V2*
G04 #@! TO.N,Net-(XA1-Pad5V2)*
X64833000Y-32480000D03*
G04 #@! TO.P,XA1,A0*
G04 #@! TO.N,Net-(XA1-PadA0)*
X80200000Y-4540000D03*
G04 #@! TO.P,XA1,VIN*
G04 #@! TO.N,+12V*
X85280000Y-4540000D03*
G04 #@! TO.P,XA1,GND3*
G04 #@! TO.N,GND*
X87820000Y-4540000D03*
G04 #@! TO.P,XA1,GND2*
X90360000Y-4540000D03*
G04 #@! TO.P,XA1,5V1*
G04 #@! TO.N,/5V*
X92900000Y-4540000D03*
G04 #@! TO.P,XA1,3V3*
G04 #@! TO.N,Net-(XA1-Pad3V3)*
X95440000Y-4540000D03*
G04 #@! TO.P,XA1,RST1*
G04 #@! TO.N,Net-(XA1-PadRST1)*
X97980000Y-4540000D03*
G04 #@! TO.P,XA1,IORF*
G04 #@! TO.N,Net-(XA1-PadIORF)*
X100520000Y-4540000D03*
G04 #@! TO.P,XA1,D21*
G04 #@! TO.N,Net-(XA1-PadD21)*
X44640000Y-52800000D03*
G04 #@! TO.P,XA1,D20*
G04 #@! TO.N,Net-(XA1-PadD20)*
X47180000Y-52800000D03*
G04 #@! TO.P,XA1,D19*
G04 #@! TO.N,Net-(XA1-PadD19)*
X49720000Y-52800000D03*
G04 #@! TO.P,XA1,D18*
G04 #@! TO.N,Net-(XA1-PadD18)*
X52260000Y-52800000D03*
G04 #@! TO.P,XA1,D17*
G04 #@! TO.N,Net-(XA1-PadD17)*
X54800000Y-52800000D03*
G04 #@! TO.P,XA1,D16*
G04 #@! TO.N,Net-(XA1-PadD16)*
X57340000Y-52800000D03*
G04 #@! TO.P,XA1,D15*
G04 #@! TO.N,Net-(XA1-PadD15)*
X59880000Y-52800000D03*
G04 #@! TO.P,XA1,D14*
G04 #@! TO.N,/SS*
X62420000Y-52800000D03*
G04 #@! TO.P,XA1,D0*
G04 #@! TO.N,Net-(XA1-PadD0)*
X67500000Y-52800000D03*
G04 #@! TO.P,XA1,D1*
G04 #@! TO.N,Net-(XA1-PadD1)*
X70040000Y-52800000D03*
G04 #@! TO.P,XA1,D2*
G04 #@! TO.N,/DIR_motor0*
X72580000Y-52800000D03*
G04 #@! TO.P,XA1,D3*
G04 #@! TO.N,/STEP_motor0*
X75120000Y-52800000D03*
G04 #@! TO.P,XA1,D4*
G04 #@! TO.N,/DIR_motor1*
X77660000Y-52800000D03*
G04 #@! TO.P,XA1,D5*
G04 #@! TO.N,/STEP_motor1*
X80200000Y-52800000D03*
G04 #@! TO.P,XA1,D6*
G04 #@! TO.N,/DIR_motor2*
X82740000Y-52800000D03*
G04 #@! TO.P,XA1,D7*
G04 #@! TO.N,/STEP_motor2*
X85280000Y-52800000D03*
G04 #@! TO.P,XA1,GND1*
G04 #@! TO.N,GND*
X104584000Y-52800000D03*
G04 #@! TO.P,XA1,D8*
G04 #@! TO.N,/DIR_motor3*
X89344000Y-52800000D03*
G04 #@! TO.P,XA1,D9*
G04 #@! TO.N,/STEP_motor3*
X91884000Y-52800000D03*
G04 #@! TO.P,XA1,D10*
G04 #@! TO.N,/DIR_motor4*
X94424000Y-52800000D03*
G04 #@! TO.P,XA1,SCL*
G04 #@! TO.N,Net-(XA1-PadSCL)*
X112204000Y-52800000D03*
G04 #@! TO.P,XA1,SDA*
G04 #@! TO.N,Net-(XA1-PadSDA)*
X109664000Y-52800000D03*
G04 #@! TO.P,XA1,AREF*
G04 #@! TO.N,Net-(XA1-PadAREF)*
X107124000Y-52800000D03*
G04 #@! TO.P,XA1,D13*
G04 #@! TO.N,/STEP_motor5*
X102044000Y-52800000D03*
G04 #@! TO.P,XA1,D12*
G04 #@! TO.N,/DIR_motor5*
X99504000Y-52800000D03*
G04 #@! TO.P,XA1,D11*
G04 #@! TO.N,/STEP_motor4*
X96964000Y-52800000D03*
G04 #@! TO.P,XA1,*
G04 #@! TO.N,*
X103060000Y-4540000D03*
G04 #@! TO.P,XA1,A1*
G04 #@! TO.N,Net-(XA1-PadA1)*
X77660000Y-4540000D03*
G04 #@! TO.P,XA1,A2*
G04 #@! TO.N,Net-(XA1-PadA2)*
X75120000Y-4540000D03*
G04 #@! TO.P,XA1,A3*
G04 #@! TO.N,Net-(XA1-PadA3)*
X72580000Y-4540000D03*
G04 #@! TO.P,XA1,A4*
G04 #@! TO.N,Net-(XA1-PadA4)*
X70040000Y-4540000D03*
G04 #@! TO.P,XA1,A5*
G04 #@! TO.N,Net-(XA1-PadA5)*
X67500000Y-4540000D03*
G04 #@! TO.P,XA1,A6*
G04 #@! TO.N,Net-(XA1-PadA6)*
X64960000Y-4540000D03*
G04 #@! TO.P,XA1,A7*
G04 #@! TO.N,Net-(XA1-PadA7)*
X62420000Y-4540000D03*
G04 #@! TO.P,XA1,A8*
G04 #@! TO.N,Net-(XA1-PadA8)*
X57340000Y-4540000D03*
G04 #@! TO.P,XA1,A9*
G04 #@! TO.N,Net-(XA1-PadA9)*
X54800000Y-4540000D03*
G04 #@! TO.P,XA1,A10*
G04 #@! TO.N,Net-(XA1-PadA10)*
X52260000Y-4540000D03*
G04 #@! TO.P,XA1,A11*
G04 #@! TO.N,Net-(XA1-PadA11)*
X49720000Y-4540000D03*
G04 #@! TO.P,XA1,A12*
G04 #@! TO.N,Net-(XA1-PadA12)*
X47180000Y-4540000D03*
G04 #@! TO.P,XA1,A13*
G04 #@! TO.N,Net-(XA1-PadA13)*
X44640000Y-4540000D03*
G04 #@! TO.P,XA1,A14*
G04 #@! TO.N,Net-(XA1-PadA14)*
X42100000Y-4540000D03*
G04 #@! TO.P,XA1,A15*
G04 #@! TO.N,Net-(XA1-PadA15)*
X39560000Y-4540000D03*
G04 #@! TO.P,XA1,5V3*
G04 #@! TO.N,/5V*
X37020000Y-52800000D03*
G04 #@! TO.P,XA1,5V4*
X34480000Y-52800000D03*
G04 #@! TO.P,XA1,D22*
G04 #@! TO.N,Net-(XA1-PadD22)*
X37020000Y-50260000D03*
G04 #@! TO.P,XA1,D23*
G04 #@! TO.N,Net-(XA1-PadD23)*
X34480000Y-50260000D03*
G04 #@! TO.P,XA1,D24*
G04 #@! TO.N,/UP_motor0*
X37020000Y-47720000D03*
G04 #@! TO.P,XA1,D25*
G04 #@! TO.N,/DOWN_motor0*
X34480000Y-47720000D03*
G04 #@! TO.P,XA1,D26*
G04 #@! TO.N,/HOME_motor0*
X37020000Y-45180000D03*
G04 #@! TO.P,XA1,D27*
G04 #@! TO.N,/UP_motor1*
X34480000Y-45180000D03*
G04 #@! TO.P,XA1,D28*
G04 #@! TO.N,/DOWN_motor1*
X37020000Y-42640000D03*
G04 #@! TO.P,XA1,D29*
G04 #@! TO.N,/HOME_motor1*
X34480000Y-42640000D03*
G04 #@! TO.P,XA1,D30*
G04 #@! TO.N,/UP_motor2*
X37020000Y-40100000D03*
G04 #@! TO.P,XA1,D31*
G04 #@! TO.N,/DOWN_motor2*
X34480000Y-40100000D03*
G04 #@! TO.P,XA1,D32*
G04 #@! TO.N,/HOME_motor2*
X37020000Y-37560000D03*
G04 #@! TO.P,XA1,D33*
G04 #@! TO.N,/UP_motor3*
X34480000Y-37560000D03*
G04 #@! TO.P,XA1,D34*
G04 #@! TO.N,/DOWN_motor3*
X37020000Y-35020000D03*
G04 #@! TO.P,XA1,D35*
G04 #@! TO.N,/HOME_motor3*
X34480000Y-35020000D03*
G04 #@! TO.P,XA1,D36*
G04 #@! TO.N,/UP_motor4*
X37020000Y-32480000D03*
G04 #@! TO.P,XA1,D37*
G04 #@! TO.N,/DOWN_motor4*
X34480000Y-32480000D03*
G04 #@! TO.P,XA1,D38*
G04 #@! TO.N,/HOME_motor4*
X37020000Y-29940000D03*
G04 #@! TO.P,XA1,D39*
G04 #@! TO.N,/UP_motor5*
X34480000Y-29940000D03*
G04 #@! TO.P,XA1,D40*
G04 #@! TO.N,/DOWN_motor5*
X37020000Y-27400000D03*
G04 #@! TO.P,XA1,D41*
G04 #@! TO.N,/HOME_motor5*
X34480000Y-27400000D03*
G04 #@! TO.P,XA1,D42*
G04 #@! TO.N,/EMERGENCY*
X37020000Y-24860000D03*
G04 #@! TO.P,XA1,D43*
G04 #@! TO.N,/ONOFF*
X34480000Y-24860000D03*
G04 #@! TO.P,XA1,D44*
G04 #@! TO.N,/NEOPIXEL*
X37020000Y-22320000D03*
G04 #@! TO.P,XA1,D45*
G04 #@! TO.N,Net-(XA1-PadD45)*
X34480000Y-22320000D03*
G04 #@! TO.P,XA1,D46*
G04 #@! TO.N,Net-(XA1-PadD46)*
X37020000Y-19780000D03*
G04 #@! TO.P,XA1,D47*
G04 #@! TO.N,Net-(XA1-PadD47)*
X34480000Y-19780000D03*
G04 #@! TO.P,XA1,D48*
G04 #@! TO.N,Net-(XA1-PadD48)*
X37020000Y-17240000D03*
G04 #@! TO.P,XA1,D49*
G04 #@! TO.N,Net-(XA1-PadD49)*
X34480000Y-17240000D03*
G04 #@! TO.P,XA1,D50*
G04 #@! TO.N,Net-(XA1-PadD50)*
X37020000Y-14700000D03*
G04 #@! TO.P,XA1,D51*
G04 #@! TO.N,Net-(XA1-PadD51)*
X34480000Y-14700000D03*
G04 #@! TO.P,XA1,D52*
G04 #@! TO.N,Net-(XA1-PadD52)*
X37020000Y-12160000D03*
G04 #@! TO.P,XA1,D53*
G04 #@! TO.N,Net-(XA1-PadD53)*
X34480000Y-12160000D03*
G04 #@! TO.P,XA1,GND5*
G04 #@! TO.N,GND*
X37020000Y-9620000D03*
G04 #@! TO.P,XA1,GND6*
X34480000Y-9620000D03*
G04 #@! TO.P,XA1,MISO*
G04 #@! TO.N,/MISO*
X67373000Y-32480000D03*
G04 #@! TD*
D11*
G04 #@! TO.P,A1,1*
G04 #@! TO.N,GND*
X11000000Y-65000000D03*
D12*
G04 #@! TO.P,A1,9*
G04 #@! TO.N,Net-(A1-Pad9)*
X23700000Y-82780000D03*
G04 #@! TO.P,A1,2*
G04 #@! TO.N,GND*
X11000000Y-67540000D03*
G04 #@! TO.P,A1,10*
X23700000Y-80240000D03*
G04 #@! TO.P,A1,3*
G04 #@! TO.N,Net-(A1-Pad3)*
X11000000Y-70080000D03*
G04 #@! TO.P,A1,11*
G04 #@! TO.N,GND*
X23700000Y-77700000D03*
G04 #@! TO.P,A1,4*
G04 #@! TO.N,Net-(A1-Pad4)*
X11000000Y-72620000D03*
G04 #@! TO.P,A1,12*
G04 #@! TO.N,GND*
X23700000Y-75160000D03*
G04 #@! TO.P,A1,5*
G04 #@! TO.N,Net-(A1-Pad5)*
X11000000Y-75160000D03*
G04 #@! TO.P,A1,13*
G04 #@! TO.N,Net-(A1-Pad13)*
X23700000Y-72620000D03*
G04 #@! TO.P,A1,6*
G04 #@! TO.N,Net-(A1-Pad6)*
X11000000Y-77700000D03*
G04 #@! TO.P,A1,14*
G04 #@! TO.N,Net-(A1-Pad13)*
X23700000Y-70080000D03*
G04 #@! TO.P,A1,7*
G04 #@! TO.N,GND*
X11000000Y-80240000D03*
G04 #@! TO.P,A1,15*
G04 #@! TO.N,/STEP_motor0*
X23700000Y-67540000D03*
G04 #@! TO.P,A1,8*
G04 #@! TO.N,+12V*
X11000000Y-82780000D03*
G04 #@! TO.P,A1,16*
G04 #@! TO.N,/DIR_motor0*
X23700000Y-65000000D03*
G04 #@! TD*
G04 #@! TO.P,A2,16*
G04 #@! TO.N,/DIR_motor1*
X50700000Y-65000000D03*
G04 #@! TO.P,A2,8*
G04 #@! TO.N,+12V*
X38000000Y-82780000D03*
G04 #@! TO.P,A2,15*
G04 #@! TO.N,/STEP_motor1*
X50700000Y-67540000D03*
G04 #@! TO.P,A2,7*
G04 #@! TO.N,GND*
X38000000Y-80240000D03*
G04 #@! TO.P,A2,14*
G04 #@! TO.N,Net-(A2-Pad13)*
X50700000Y-70080000D03*
G04 #@! TO.P,A2,6*
G04 #@! TO.N,Net-(A2-Pad6)*
X38000000Y-77700000D03*
G04 #@! TO.P,A2,13*
G04 #@! TO.N,Net-(A2-Pad13)*
X50700000Y-72620000D03*
G04 #@! TO.P,A2,5*
G04 #@! TO.N,Net-(A2-Pad5)*
X38000000Y-75160000D03*
G04 #@! TO.P,A2,12*
G04 #@! TO.N,GND*
X50700000Y-75160000D03*
G04 #@! TO.P,A2,4*
G04 #@! TO.N,Net-(A2-Pad4)*
X38000000Y-72620000D03*
G04 #@! TO.P,A2,11*
G04 #@! TO.N,GND*
X50700000Y-77700000D03*
G04 #@! TO.P,A2,3*
G04 #@! TO.N,Net-(A2-Pad3)*
X38000000Y-70080000D03*
G04 #@! TO.P,A2,10*
G04 #@! TO.N,GND*
X50700000Y-80240000D03*
G04 #@! TO.P,A2,2*
X38000000Y-67540000D03*
G04 #@! TO.P,A2,9*
G04 #@! TO.N,Net-(A2-Pad9)*
X50700000Y-82780000D03*
D11*
G04 #@! TO.P,A2,1*
G04 #@! TO.N,GND*
X38000000Y-65000000D03*
G04 #@! TD*
G04 #@! TO.P,A3,1*
G04 #@! TO.N,GND*
X64000000Y-65000000D03*
D12*
G04 #@! TO.P,A3,9*
G04 #@! TO.N,Net-(A3-Pad9)*
X76700000Y-82780000D03*
G04 #@! TO.P,A3,2*
G04 #@! TO.N,GND*
X64000000Y-67540000D03*
G04 #@! TO.P,A3,10*
X76700000Y-80240000D03*
G04 #@! TO.P,A3,3*
G04 #@! TO.N,Net-(A3-Pad3)*
X64000000Y-70080000D03*
G04 #@! TO.P,A3,11*
G04 #@! TO.N,GND*
X76700000Y-77700000D03*
G04 #@! TO.P,A3,4*
G04 #@! TO.N,Net-(A3-Pad4)*
X64000000Y-72620000D03*
G04 #@! TO.P,A3,12*
G04 #@! TO.N,GND*
X76700000Y-75160000D03*
G04 #@! TO.P,A3,5*
G04 #@! TO.N,Net-(A3-Pad5)*
X64000000Y-75160000D03*
G04 #@! TO.P,A3,13*
G04 #@! TO.N,Net-(A3-Pad13)*
X76700000Y-72620000D03*
G04 #@! TO.P,A3,6*
G04 #@! TO.N,Net-(A3-Pad6)*
X64000000Y-77700000D03*
G04 #@! TO.P,A3,14*
G04 #@! TO.N,Net-(A3-Pad13)*
X76700000Y-70080000D03*
G04 #@! TO.P,A3,7*
G04 #@! TO.N,GND*
X64000000Y-80240000D03*
G04 #@! TO.P,A3,15*
G04 #@! TO.N,/STEP_motor2*
X76700000Y-67540000D03*
G04 #@! TO.P,A3,8*
G04 #@! TO.N,+12V*
X64000000Y-82780000D03*
G04 #@! TO.P,A3,16*
G04 #@! TO.N,/DIR_motor2*
X76700000Y-65000000D03*
G04 #@! TD*
G04 #@! TO.P,A4,16*
G04 #@! TO.N,/DIR_motor3*
X102700000Y-65000000D03*
G04 #@! TO.P,A4,8*
G04 #@! TO.N,+12V*
X90000000Y-82780000D03*
G04 #@! TO.P,A4,15*
G04 #@! TO.N,/STEP_motor3*
X102700000Y-67540000D03*
G04 #@! TO.P,A4,7*
G04 #@! TO.N,GND*
X90000000Y-80240000D03*
G04 #@! TO.P,A4,14*
G04 #@! TO.N,Net-(A4-Pad13)*
X102700000Y-70080000D03*
G04 #@! TO.P,A4,6*
G04 #@! TO.N,Net-(A4-Pad6)*
X90000000Y-77700000D03*
G04 #@! TO.P,A4,13*
G04 #@! TO.N,Net-(A4-Pad13)*
X102700000Y-72620000D03*
G04 #@! TO.P,A4,5*
G04 #@! TO.N,Net-(A4-Pad5)*
X90000000Y-75160000D03*
G04 #@! TO.P,A4,12*
G04 #@! TO.N,GND*
X102700000Y-75160000D03*
G04 #@! TO.P,A4,4*
G04 #@! TO.N,Net-(A4-Pad4)*
X90000000Y-72620000D03*
G04 #@! TO.P,A4,11*
G04 #@! TO.N,GND*
X102700000Y-77700000D03*
G04 #@! TO.P,A4,3*
G04 #@! TO.N,Net-(A4-Pad3)*
X90000000Y-70080000D03*
G04 #@! TO.P,A4,10*
G04 #@! TO.N,GND*
X102700000Y-80240000D03*
G04 #@! TO.P,A4,2*
X90000000Y-67540000D03*
G04 #@! TO.P,A4,9*
G04 #@! TO.N,Net-(A4-Pad9)*
X102700000Y-82780000D03*
D11*
G04 #@! TO.P,A4,1*
G04 #@! TO.N,GND*
X90000000Y-65000000D03*
G04 #@! TD*
G04 #@! TO.P,A5,1*
G04 #@! TO.N,GND*
X115000000Y-65000000D03*
D12*
G04 #@! TO.P,A5,9*
G04 #@! TO.N,Net-(A5-Pad9)*
X127700000Y-82780000D03*
G04 #@! TO.P,A5,2*
G04 #@! TO.N,GND*
X115000000Y-67540000D03*
G04 #@! TO.P,A5,10*
X127700000Y-80240000D03*
G04 #@! TO.P,A5,3*
G04 #@! TO.N,Net-(A5-Pad3)*
X115000000Y-70080000D03*
G04 #@! TO.P,A5,11*
G04 #@! TO.N,GND*
X127700000Y-77700000D03*
G04 #@! TO.P,A5,4*
G04 #@! TO.N,Net-(A5-Pad4)*
X115000000Y-72620000D03*
G04 #@! TO.P,A5,12*
G04 #@! TO.N,GND*
X127700000Y-75160000D03*
G04 #@! TO.P,A5,5*
G04 #@! TO.N,Net-(A5-Pad5)*
X115000000Y-75160000D03*
G04 #@! TO.P,A5,13*
G04 #@! TO.N,Net-(A5-Pad13)*
X127700000Y-72620000D03*
G04 #@! TO.P,A5,6*
G04 #@! TO.N,Net-(A5-Pad6)*
X115000000Y-77700000D03*
G04 #@! TO.P,A5,14*
G04 #@! TO.N,Net-(A5-Pad13)*
X127700000Y-70080000D03*
G04 #@! TO.P,A5,7*
G04 #@! TO.N,GND*
X115000000Y-80240000D03*
G04 #@! TO.P,A5,15*
G04 #@! TO.N,/DIR_motor4*
X127700000Y-67540000D03*
G04 #@! TO.P,A5,8*
G04 #@! TO.N,+12V*
X115000000Y-82780000D03*
G04 #@! TO.P,A5,16*
G04 #@! TO.N,/STEP_motor4*
X127700000Y-65000000D03*
G04 #@! TD*
G04 #@! TO.P,A6,16*
G04 #@! TO.N,/STEP_motor5*
X152700000Y-65000000D03*
G04 #@! TO.P,A6,8*
G04 #@! TO.N,+12V*
X140000000Y-82780000D03*
G04 #@! TO.P,A6,15*
G04 #@! TO.N,/DIR_motor5*
X152700000Y-67540000D03*
G04 #@! TO.P,A6,7*
G04 #@! TO.N,GND*
X140000000Y-80240000D03*
G04 #@! TO.P,A6,14*
G04 #@! TO.N,Net-(A6-Pad13)*
X152700000Y-70080000D03*
G04 #@! TO.P,A6,6*
G04 #@! TO.N,Net-(A6-Pad6)*
X140000000Y-77700000D03*
G04 #@! TO.P,A6,13*
G04 #@! TO.N,Net-(A6-Pad13)*
X152700000Y-72620000D03*
G04 #@! TO.P,A6,5*
G04 #@! TO.N,Net-(A6-Pad5)*
X140000000Y-75160000D03*
G04 #@! TO.P,A6,12*
G04 #@! TO.N,GND*
X152700000Y-75160000D03*
G04 #@! TO.P,A6,4*
G04 #@! TO.N,Net-(A6-Pad4)*
X140000000Y-72620000D03*
G04 #@! TO.P,A6,11*
G04 #@! TO.N,GND*
X152700000Y-77700000D03*
G04 #@! TO.P,A6,3*
G04 #@! TO.N,Net-(A6-Pad3)*
X140000000Y-70080000D03*
G04 #@! TO.P,A6,10*
G04 #@! TO.N,GND*
X152700000Y-80240000D03*
G04 #@! TO.P,A6,2*
X140000000Y-67540000D03*
G04 #@! TO.P,A6,9*
G04 #@! TO.N,Net-(A6-Pad9)*
X152700000Y-82780000D03*
D11*
G04 #@! TO.P,A6,1*
G04 #@! TO.N,GND*
X140000000Y-65000000D03*
G04 #@! TD*
D13*
G04 #@! TO.P,J1,2*
G04 #@! TO.N,+12V*
X16250000Y-54000000D03*
D14*
X7000000Y-54000000D03*
G04 #@! TO.P,J1,1*
G04 #@! TO.N,GND*
X7000000Y-58000000D03*
D13*
X16250000Y-58000000D03*
G04 #@! TD*
D15*
G04 #@! TO.P,J2,1*
G04 #@! TO.N,Net-(A1-Pad6)*
X5000000Y-78000000D03*
D16*
G04 #@! TO.P,J2,2*
G04 #@! TO.N,Net-(A1-Pad5)*
X5000000Y-75460000D03*
G04 #@! TO.P,J2,3*
G04 #@! TO.N,Net-(A1-Pad4)*
X5000000Y-72920000D03*
G04 #@! TO.P,J2,4*
G04 #@! TO.N,Net-(A1-Pad3)*
X5000000Y-70380000D03*
G04 #@! TD*
G04 #@! TO.P,J3,4*
G04 #@! TO.N,Net-(A2-Pad3)*
X32000000Y-70380000D03*
G04 #@! TO.P,J3,3*
G04 #@! TO.N,Net-(A2-Pad4)*
X32000000Y-72920000D03*
G04 #@! TO.P,J3,2*
G04 #@! TO.N,Net-(A2-Pad5)*
X32000000Y-75460000D03*
D15*
G04 #@! TO.P,J3,1*
G04 #@! TO.N,Net-(A2-Pad6)*
X32000000Y-78000000D03*
G04 #@! TD*
G04 #@! TO.P,J4,1*
G04 #@! TO.N,Net-(A3-Pad6)*
X58000000Y-78000000D03*
D16*
G04 #@! TO.P,J4,2*
G04 #@! TO.N,Net-(A3-Pad5)*
X58000000Y-75460000D03*
G04 #@! TO.P,J4,3*
G04 #@! TO.N,Net-(A3-Pad4)*
X58000000Y-72920000D03*
G04 #@! TO.P,J4,4*
G04 #@! TO.N,Net-(A3-Pad3)*
X58000000Y-70380000D03*
G04 #@! TD*
G04 #@! TO.P,J5,4*
G04 #@! TO.N,Net-(A4-Pad3)*
X84000000Y-70380000D03*
G04 #@! TO.P,J5,3*
G04 #@! TO.N,Net-(A4-Pad4)*
X84000000Y-72920000D03*
G04 #@! TO.P,J5,2*
G04 #@! TO.N,Net-(A4-Pad5)*
X84000000Y-75460000D03*
D15*
G04 #@! TO.P,J5,1*
G04 #@! TO.N,Net-(A4-Pad6)*
X84000000Y-78000000D03*
G04 #@! TD*
G04 #@! TO.P,J6,1*
G04 #@! TO.N,Net-(A5-Pad6)*
X109000000Y-78000000D03*
D16*
G04 #@! TO.P,J6,2*
G04 #@! TO.N,Net-(A5-Pad5)*
X109000000Y-75460000D03*
G04 #@! TO.P,J6,3*
G04 #@! TO.N,Net-(A5-Pad4)*
X109000000Y-72920000D03*
G04 #@! TO.P,J6,4*
G04 #@! TO.N,Net-(A5-Pad3)*
X109000000Y-70380000D03*
G04 #@! TD*
G04 #@! TO.P,J8,4*
G04 #@! TO.N,Net-(A6-Pad3)*
X134000000Y-70380000D03*
G04 #@! TO.P,J8,3*
G04 #@! TO.N,Net-(A6-Pad4)*
X134000000Y-72920000D03*
G04 #@! TO.P,J8,2*
G04 #@! TO.N,Net-(A6-Pad5)*
X134000000Y-75460000D03*
D15*
G04 #@! TO.P,J8,1*
G04 #@! TO.N,Net-(A6-Pad6)*
X134000000Y-78000000D03*
G04 #@! TD*
G04 #@! TO.P,J9,1*
G04 #@! TO.N,/DOWN_motor0*
X30000000Y-46000000D03*
D16*
G04 #@! TO.P,J9,2*
G04 #@! TO.N,/UP_motor1*
X30000000Y-43460000D03*
G04 #@! TO.P,J9,3*
G04 #@! TO.N,/HOME_motor1*
X30000000Y-40920000D03*
G04 #@! TO.P,J9,4*
G04 #@! TO.N,/DOWN_motor2*
X30000000Y-38380000D03*
G04 #@! TO.P,J9,5*
G04 #@! TO.N,/UP_motor3*
X30000000Y-35840000D03*
G04 #@! TO.P,J9,6*
G04 #@! TO.N,/HOME_motor3*
X30000000Y-33300000D03*
G04 #@! TO.P,J9,7*
G04 #@! TO.N,/DOWN_motor4*
X30000000Y-30760000D03*
G04 #@! TO.P,J9,8*
G04 #@! TO.N,/UP_motor5*
X30000000Y-28220000D03*
G04 #@! TO.P,J9,9*
G04 #@! TO.N,/HOME_motor5*
X30000000Y-25680000D03*
G04 #@! TD*
G04 #@! TO.P,J10,9*
G04 #@! TO.N,/DOWN_motor5*
X41000000Y-25680000D03*
G04 #@! TO.P,J10,8*
G04 #@! TO.N,/HOME_motor4*
X41000000Y-28220000D03*
G04 #@! TO.P,J10,7*
G04 #@! TO.N,/UP_motor4*
X41000000Y-30760000D03*
G04 #@! TO.P,J10,6*
G04 #@! TO.N,/DOWN_motor3*
X41000000Y-33300000D03*
G04 #@! TO.P,J10,5*
G04 #@! TO.N,/HOME_motor2*
X41000000Y-35840000D03*
G04 #@! TO.P,J10,4*
G04 #@! TO.N,/UP_motor2*
X41000000Y-38380000D03*
G04 #@! TO.P,J10,3*
G04 #@! TO.N,/DOWN_motor1*
X41000000Y-40920000D03*
G04 #@! TO.P,J10,2*
G04 #@! TO.N,/HOME_motor0*
X41000000Y-43460000D03*
D15*
G04 #@! TO.P,J10,1*
G04 #@! TO.N,/UP_motor0*
X41000000Y-46000000D03*
G04 #@! TD*
G04 #@! TO.P,J7,1*
G04 #@! TO.N,GND*
X25000000Y-57000000D03*
D16*
G04 #@! TO.P,J7,2*
G04 #@! TO.N,/5V*
X25000000Y-54460000D03*
G04 #@! TD*
D15*
G04 #@! TO.P,J11,1*
G04 #@! TO.N,/NEOPIXEL*
X41000000Y-18000000D03*
G04 #@! TD*
D16*
G04 #@! TO.P,J12,2*
G04 #@! TO.N,/ONOFF*
X30000000Y-20540000D03*
D15*
G04 #@! TO.P,J12,1*
G04 #@! TO.N,/EMERGENCY*
X30000000Y-18000000D03*
G04 #@! TD*
G04 #@! TO.P,J13,1*
G04 #@! TO.N,/MISO*
X75400000Y-32900000D03*
D16*
G04 #@! TO.P,J13,2*
G04 #@! TO.N,/MOSI*
X75400000Y-30360000D03*
G04 #@! TO.P,J13,3*
G04 #@! TO.N,/SCK*
X75400000Y-27820000D03*
G04 #@! TO.P,J13,4*
G04 #@! TO.N,/SS*
X75400000Y-25280000D03*
G04 #@! TO.P,J13,5*
G04 #@! TO.N,GND*
X75400000Y-22740000D03*
G04 #@! TD*
D17*
G04 #@! TO.N,GND*
X23700000Y-77700000D02*
X23700000Y-80240000D01*
X50700000Y-77700000D02*
X50700000Y-80240000D01*
X76700000Y-77700000D02*
X76700000Y-80240000D01*
X76700000Y-75160000D02*
X76700000Y-77700000D01*
X102700000Y-75160000D02*
X102700000Y-80240000D01*
X127700000Y-75160000D02*
X127700000Y-80240000D01*
X152700000Y-75160000D02*
X152700000Y-80240000D01*
X50700000Y-75160000D02*
X50700000Y-77700000D01*
X23700000Y-75160000D02*
X23700000Y-80240000D01*
X13760000Y-65960000D02*
X13760000Y-80240000D01*
X11000000Y-65000000D02*
X12800000Y-65000000D01*
X13760000Y-80240000D02*
X11000000Y-80240000D01*
X40760000Y-65960000D02*
X40760000Y-80240000D01*
X39800000Y-65000000D02*
X40760000Y-65960000D01*
X38000000Y-65000000D02*
X39800000Y-65000000D01*
X40760000Y-80240000D02*
X13760000Y-80240000D01*
X67240000Y-66440000D02*
X67240000Y-80240000D01*
X64000000Y-65000000D02*
X65800000Y-65000000D01*
X65800000Y-65000000D02*
X67240000Y-66440000D01*
X67240000Y-80240000D02*
X40760000Y-80240000D01*
X92760000Y-65960000D02*
X92760000Y-80240000D01*
X90000000Y-65000000D02*
X91800000Y-65000000D01*
X91800000Y-65000000D02*
X92760000Y-65960000D01*
X92760000Y-80240000D02*
X67240000Y-80240000D01*
X116800000Y-65000000D02*
X118000000Y-66200000D01*
X115000000Y-65000000D02*
X116800000Y-65000000D01*
X118000000Y-80000000D02*
X118240000Y-80240000D01*
X118000000Y-66200000D02*
X118000000Y-80000000D01*
X118240000Y-80240000D02*
X92760000Y-80240000D01*
X141800000Y-65000000D02*
X143000000Y-66200000D01*
X140000000Y-65000000D02*
X141800000Y-65000000D01*
X143000000Y-80000000D02*
X142760000Y-80240000D01*
X143000000Y-66200000D02*
X143000000Y-80000000D01*
X152700000Y-80240000D02*
X142760000Y-80240000D01*
X142760000Y-80240000D02*
X118240000Y-80240000D01*
X141800000Y-65000000D02*
X142000000Y-64800000D01*
X7000000Y-58000000D02*
X16250000Y-58000000D01*
X12900000Y-63350000D02*
X12900000Y-65100000D01*
X16250000Y-58000000D02*
X16250000Y-60000000D01*
X12800000Y-65000000D02*
X12900000Y-65100000D01*
X16250000Y-60000000D02*
X12900000Y-63350000D01*
X12900000Y-65100000D02*
X13760000Y-65960000D01*
X17250000Y-57000000D02*
X16250000Y-58000000D01*
X25000000Y-57000000D02*
X17250000Y-57000000D01*
X115000000Y-65000000D02*
X115000000Y-67540000D01*
X140000000Y-65000000D02*
X140000000Y-67540000D01*
X90000000Y-65000000D02*
X90000000Y-67540000D01*
X64000000Y-65000000D02*
X64000000Y-67540000D01*
X38000000Y-65000000D02*
X38000000Y-67540000D01*
X11000000Y-65000000D02*
X11000000Y-67540000D01*
X87820000Y-10320000D02*
X87820000Y-4540000D01*
X75400000Y-22740000D02*
X87820000Y-10320000D01*
X87820000Y-4540000D02*
X90360000Y-4540000D01*
G04 #@! TO.N,Net-(A1-Pad3)*
X10700000Y-70380000D02*
X11000000Y-70080000D01*
X5000000Y-70380000D02*
X10700000Y-70380000D01*
G04 #@! TO.N,Net-(A1-Pad4)*
X5300000Y-72620000D02*
X5000000Y-72920000D01*
X11000000Y-72620000D02*
X5300000Y-72620000D01*
G04 #@! TO.N,Net-(A1-Pad5)*
X10700000Y-75460000D02*
X11000000Y-75160000D01*
X5000000Y-75460000D02*
X10700000Y-75460000D01*
G04 #@! TO.N,Net-(A1-Pad13)*
X23700000Y-70080000D02*
X23700000Y-72620000D01*
G04 #@! TO.N,Net-(A1-Pad6)*
X5300000Y-77700000D02*
X5000000Y-78000000D01*
X11000000Y-77700000D02*
X5300000Y-77700000D01*
G04 #@! TO.N,/STEP_motor0*
X24499999Y-66740001D02*
X25259999Y-66740001D01*
X23700000Y-67540000D02*
X24499999Y-66740001D01*
X71822638Y-58900010D02*
X74256401Y-56466247D01*
X33099989Y-58900011D02*
X71822638Y-58900010D01*
X74256401Y-55663599D02*
X75120000Y-54800000D01*
X74256401Y-56466247D02*
X74256401Y-55663599D01*
X25259999Y-66740001D02*
X33099989Y-58900011D01*
X75120000Y-52800000D02*
X75120000Y-54800000D01*
G04 #@! TO.N,/DIR_motor0*
X31299999Y-57400001D02*
X23700000Y-65000000D01*
X72580000Y-52800000D02*
X72580000Y-56021314D01*
X71201313Y-57400001D02*
X31299999Y-57400001D01*
X72580000Y-56021314D02*
X71201313Y-57400001D01*
G04 #@! TO.N,/DIR_motor1*
X76796401Y-55663599D02*
X77660000Y-54800000D01*
X76796401Y-56047581D02*
X76796401Y-55663599D01*
X72443963Y-60400019D02*
X76796401Y-56047581D01*
X55299981Y-60400019D02*
X72443963Y-60400019D01*
X50700000Y-65000000D02*
X55299981Y-60400019D01*
X77660000Y-54800000D02*
X77660000Y-52800000D01*
G04 #@! TO.N,/STEP_motor1*
X79336401Y-55663599D02*
X79336401Y-56663599D01*
X80200000Y-54800000D02*
X79336401Y-55663599D01*
X79336401Y-56663599D02*
X74000000Y-62000000D01*
X51499999Y-66740001D02*
X50700000Y-67540000D01*
X51624001Y-66740001D02*
X51499999Y-66740001D01*
X56364002Y-62000000D02*
X51624001Y-66740001D01*
X74000000Y-62000000D02*
X56364002Y-62000000D01*
X80200000Y-52800000D02*
X80200000Y-54800000D01*
G04 #@! TO.N,Net-(A2-Pad13)*
X50700000Y-70080000D02*
X50700000Y-72620000D01*
G04 #@! TO.N,Net-(A2-Pad6)*
X32300000Y-77700000D02*
X32000000Y-78000000D01*
X38000000Y-77700000D02*
X32300000Y-77700000D01*
G04 #@! TO.N,Net-(A2-Pad5)*
X37700000Y-75460000D02*
X38000000Y-75160000D01*
X32000000Y-75460000D02*
X37700000Y-75460000D01*
G04 #@! TO.N,Net-(A2-Pad4)*
X32300000Y-72620000D02*
X32000000Y-72920000D01*
X38000000Y-72620000D02*
X32300000Y-72620000D01*
G04 #@! TO.N,Net-(A2-Pad3)*
X37700000Y-70380000D02*
X38000000Y-70080000D01*
X32000000Y-70380000D02*
X37700000Y-70380000D01*
G04 #@! TO.N,Net-(A3-Pad3)*
X58000000Y-70380000D02*
X62620000Y-70380000D01*
X62868630Y-70080000D02*
X64000000Y-70080000D01*
X62620000Y-70328630D02*
X62868630Y-70080000D01*
X62620000Y-70380000D02*
X62620000Y-70328630D01*
G04 #@! TO.N,Net-(A3-Pad4)*
X58300000Y-72620000D02*
X58000000Y-72920000D01*
X64000000Y-72620000D02*
X58300000Y-72620000D01*
G04 #@! TO.N,Net-(A3-Pad5)*
X63700000Y-75460000D02*
X64000000Y-75160000D01*
X58000000Y-75460000D02*
X63700000Y-75460000D01*
G04 #@! TO.N,Net-(A3-Pad13)*
X76700000Y-70080000D02*
X76700000Y-72620000D01*
G04 #@! TO.N,Net-(A3-Pad6)*
X58300000Y-77700000D02*
X58000000Y-78000000D01*
X64000000Y-77700000D02*
X58300000Y-77700000D01*
G04 #@! TO.N,/STEP_motor2*
X77499999Y-66740001D02*
X76700000Y-67540000D01*
X77624001Y-66740001D02*
X77499999Y-66740001D01*
X85280000Y-52800000D02*
X85280000Y-59084002D01*
X85280000Y-59084002D02*
X77624001Y-66740001D01*
G04 #@! TO.N,/DIR_motor2*
X82740000Y-58960000D02*
X82740000Y-54800000D01*
X76700000Y-65000000D02*
X82740000Y-58960000D01*
X82740000Y-54800000D02*
X82740000Y-52800000D01*
G04 #@! TO.N,/DIR_motor3*
X90207599Y-55663599D02*
X90207599Y-57207599D01*
X89344000Y-54800000D02*
X90207599Y-55663599D01*
X90207599Y-57207599D02*
X98000000Y-65000000D01*
X98000000Y-65000000D02*
X102700000Y-65000000D01*
X89344000Y-52800000D02*
X89344000Y-54800000D01*
G04 #@! TO.N,/STEP_motor3*
X103624001Y-66740001D02*
X103499999Y-66740001D01*
X104500001Y-65864001D02*
X103624001Y-66740001D01*
X103499999Y-66740001D02*
X102700000Y-67540000D01*
X104500001Y-64135999D02*
X104500001Y-65864001D01*
X103564001Y-63199999D02*
X104500001Y-64135999D01*
X99062685Y-63199999D02*
X103564001Y-63199999D01*
X91884000Y-56021314D02*
X99062685Y-63199999D01*
X91884000Y-54800000D02*
X91884000Y-56021314D01*
X91884000Y-54800000D02*
X91884000Y-52800000D01*
G04 #@! TO.N,Net-(A4-Pad13)*
X102700000Y-70080000D02*
X102700000Y-72620000D01*
G04 #@! TO.N,Net-(A4-Pad6)*
X84300000Y-77700000D02*
X84000000Y-78000000D01*
X90000000Y-77700000D02*
X84300000Y-77700000D01*
G04 #@! TO.N,Net-(A4-Pad5)*
X89700000Y-75460000D02*
X90000000Y-75160000D01*
X84000000Y-75460000D02*
X89700000Y-75460000D01*
G04 #@! TO.N,Net-(A4-Pad4)*
X84300000Y-72620000D02*
X84000000Y-72920000D01*
X90000000Y-72620000D02*
X84300000Y-72620000D01*
G04 #@! TO.N,Net-(A4-Pad3)*
X89700000Y-70380000D02*
X90000000Y-70080000D01*
X84000000Y-70380000D02*
X89700000Y-70380000D01*
G04 #@! TO.N,Net-(A5-Pad3)*
X114700000Y-70380000D02*
X115000000Y-70080000D01*
X109000000Y-70380000D02*
X114700000Y-70380000D01*
G04 #@! TO.N,Net-(A5-Pad4)*
X109300000Y-72620000D02*
X109000000Y-72920000D01*
X115000000Y-72620000D02*
X109300000Y-72620000D01*
G04 #@! TO.N,Net-(A5-Pad5)*
X114700000Y-75460000D02*
X115000000Y-75160000D01*
X109000000Y-75460000D02*
X114700000Y-75460000D01*
G04 #@! TO.N,Net-(A5-Pad13)*
X127700000Y-70080000D02*
X127700000Y-72620000D01*
G04 #@! TO.N,Net-(A5-Pad6)*
X109300000Y-77700000D02*
X109000000Y-78000000D01*
X115000000Y-77700000D02*
X109300000Y-77700000D01*
G04 #@! TO.N,/STEP_motor4*
X96964000Y-54800000D02*
X96964000Y-52800000D01*
X97827599Y-55663599D02*
X96964000Y-54800000D01*
X97827599Y-56827599D02*
X97827599Y-55663599D01*
X101199979Y-60199979D02*
X97827599Y-56827599D01*
X127700000Y-65000000D02*
X122899979Y-60199979D01*
X122899979Y-60199979D02*
X101199979Y-60199979D01*
G04 #@! TO.N,/DIR_motor4*
X120728619Y-61699989D02*
X126568630Y-67540000D01*
X99699989Y-61699989D02*
X120728619Y-61699989D01*
X94424000Y-52800000D02*
X94424000Y-56424000D01*
X126568630Y-67540000D02*
X127700000Y-67540000D01*
X94424000Y-56424000D02*
X99699989Y-61699989D01*
G04 #@! TO.N,/DIR_motor5*
X102182655Y-58699969D02*
X139699969Y-58699969D01*
X99504000Y-54800000D02*
X99504000Y-56021314D01*
X99504000Y-56021314D02*
X102182655Y-58699969D01*
X148540000Y-67540000D02*
X152700000Y-67540000D01*
X139699969Y-58699969D02*
X148540000Y-67540000D01*
X99504000Y-54800000D02*
X99504000Y-52800000D01*
G04 #@! TO.N,/STEP_motor5*
X151900001Y-64200001D02*
X152700000Y-65000000D01*
X144899959Y-57199959D02*
X151900001Y-64200001D01*
X105222645Y-57199959D02*
X144899959Y-57199959D01*
X102044000Y-54021314D02*
X105222645Y-57199959D01*
X102044000Y-52800000D02*
X102044000Y-54021314D01*
G04 #@! TO.N,Net-(A6-Pad13)*
X152700000Y-70080000D02*
X152700000Y-72620000D01*
G04 #@! TO.N,Net-(A6-Pad6)*
X134300000Y-77700000D02*
X134000000Y-78000000D01*
X140000000Y-77700000D02*
X134300000Y-77700000D01*
G04 #@! TO.N,Net-(A6-Pad5)*
X139700000Y-75460000D02*
X140000000Y-75160000D01*
X134000000Y-75460000D02*
X139700000Y-75460000D01*
G04 #@! TO.N,Net-(A6-Pad4)*
X134300000Y-72620000D02*
X134000000Y-72920000D01*
X140000000Y-72620000D02*
X134300000Y-72620000D01*
G04 #@! TO.N,Net-(A6-Pad3)*
X139700000Y-70380000D02*
X140000000Y-70080000D01*
X134000000Y-70380000D02*
X139700000Y-70380000D01*
G04 #@! TO.N,+12V*
X117220000Y-85000000D02*
X115799999Y-83579999D01*
X115799999Y-83579999D02*
X115000000Y-82780000D01*
X137780000Y-85000000D02*
X117220000Y-85000000D01*
X140000000Y-82780000D02*
X137780000Y-85000000D01*
X90799999Y-83579999D02*
X90000000Y-82780000D01*
X91800001Y-84580001D02*
X90799999Y-83579999D01*
X113199999Y-84580001D02*
X91800001Y-84580001D01*
X115000000Y-82780000D02*
X113199999Y-84580001D01*
X65800001Y-84580001D02*
X64799999Y-83579999D01*
X88199999Y-84580001D02*
X65800001Y-84580001D01*
X64799999Y-83579999D02*
X64000000Y-82780000D01*
X90000000Y-82780000D02*
X88199999Y-84580001D01*
X38799999Y-83579999D02*
X38000000Y-82780000D01*
X40220000Y-85000000D02*
X38799999Y-83579999D01*
X61780000Y-85000000D02*
X40220000Y-85000000D01*
X64000000Y-82780000D02*
X61780000Y-85000000D01*
X11799999Y-83579999D02*
X11000000Y-82780000D01*
X13220000Y-85000000D02*
X11799999Y-83579999D01*
X35780000Y-85000000D02*
X13220000Y-85000000D01*
X38000000Y-82780000D02*
X35780000Y-85000000D01*
X9868630Y-82780000D02*
X11000000Y-82780000D01*
X6279998Y-82780000D02*
X9868630Y-82780000D01*
X2999999Y-79500001D02*
X6279998Y-82780000D01*
X2999999Y-56000001D02*
X2999999Y-79500001D01*
X5000000Y-54000000D02*
X2999999Y-56000001D01*
X7000000Y-54000000D02*
X5000000Y-54000000D01*
X16250000Y-54000000D02*
X7000000Y-54000000D01*
X16250000Y-52000000D02*
X16250000Y-54000000D01*
X16250000Y-18921998D02*
X16250000Y-52000000D01*
X33231999Y-1939999D02*
X16250000Y-18921998D01*
X82679999Y-1939999D02*
X33231999Y-1939999D01*
X85280000Y-4540000D02*
X82679999Y-1939999D01*
G04 #@! TO.N,/UP_motor0*
X39280000Y-47720000D02*
X37020000Y-47720000D01*
X41000000Y-46000000D02*
X39280000Y-47720000D01*
G04 #@! TO.N,/DOWN_motor0*
X31720000Y-47720000D02*
X30000000Y-46000000D01*
X34480000Y-47720000D02*
X31720000Y-47720000D01*
G04 #@! TO.N,/HOME_motor0*
X38319998Y-45180000D02*
X39349999Y-44149999D01*
X37020000Y-45180000D02*
X38319998Y-45180000D01*
X39797919Y-43460000D02*
X41000000Y-43460000D01*
X39349999Y-43907920D02*
X39797919Y-43460000D01*
X39349999Y-44149999D02*
X39349999Y-43907920D01*
G04 #@! TO.N,/UP_motor1*
X30960002Y-43460000D02*
X30000000Y-43460000D01*
X32680002Y-45180000D02*
X30960002Y-43460000D01*
X34480000Y-45180000D02*
X32680002Y-45180000D01*
G04 #@! TO.N,/DOWN_motor1*
X40143599Y-41776401D02*
X40150001Y-41769999D01*
X40150001Y-41769999D02*
X41000000Y-40920000D01*
X37883599Y-41776401D02*
X40143599Y-41776401D01*
X37020000Y-42640000D02*
X37883599Y-41776401D01*
G04 #@! TO.N,/HOME_motor1*
X30856401Y-41776401D02*
X30849999Y-41769999D01*
X33616401Y-41776401D02*
X30856401Y-41776401D01*
X30849999Y-41769999D02*
X30000000Y-40920000D01*
X34480000Y-42640000D02*
X33616401Y-41776401D01*
G04 #@! TO.N,/UP_motor2*
X38941518Y-39236401D02*
X37883599Y-39236401D01*
X37883599Y-39236401D02*
X37020000Y-40100000D01*
X39797919Y-38380000D02*
X38941518Y-39236401D01*
X41000000Y-38380000D02*
X39797919Y-38380000D01*
G04 #@! TO.N,/DOWN_motor2*
X30849999Y-39229999D02*
X30000000Y-38380000D01*
X30856401Y-39236401D02*
X30849999Y-39229999D01*
X33616401Y-39236401D02*
X30856401Y-39236401D01*
X34480000Y-40100000D02*
X33616401Y-39236401D01*
G04 #@! TO.N,/HOME_motor2*
X40150001Y-36689999D02*
X41000000Y-35840000D01*
X40143599Y-36696401D02*
X40150001Y-36689999D01*
X37883599Y-36696401D02*
X40143599Y-36696401D01*
X37020000Y-37560000D02*
X37883599Y-36696401D01*
G04 #@! TO.N,/UP_motor3*
X30849999Y-36689999D02*
X30000000Y-35840000D01*
X30856401Y-36696401D02*
X30849999Y-36689999D01*
X33616401Y-36696401D02*
X30856401Y-36696401D01*
X34480000Y-37560000D02*
X33616401Y-36696401D01*
G04 #@! TO.N,/DOWN_motor3*
X37883599Y-34156401D02*
X37020000Y-35020000D01*
X38941518Y-34156401D02*
X37883599Y-34156401D01*
X39797919Y-33300000D02*
X38941518Y-34156401D01*
X41000000Y-33300000D02*
X39797919Y-33300000D01*
G04 #@! TO.N,/HOME_motor3*
X30849999Y-34149999D02*
X30000000Y-33300000D01*
X30856401Y-34156401D02*
X30849999Y-34149999D01*
X33616401Y-34156401D02*
X30856401Y-34156401D01*
X34480000Y-35020000D02*
X33616401Y-34156401D01*
G04 #@! TO.N,/UP_motor4*
X40143599Y-31616401D02*
X40150001Y-31609999D01*
X37883599Y-31616401D02*
X40143599Y-31616401D01*
X40150001Y-31609999D02*
X41000000Y-30760000D01*
X37020000Y-32480000D02*
X37883599Y-31616401D01*
G04 #@! TO.N,/DOWN_motor4*
X30849999Y-31609999D02*
X30000000Y-30760000D01*
X30856401Y-31616401D02*
X30849999Y-31609999D01*
X33616401Y-31616401D02*
X30856401Y-31616401D01*
X34480000Y-32480000D02*
X33616401Y-31616401D01*
G04 #@! TO.N,/HOME_motor4*
X37883599Y-29076401D02*
X37020000Y-29940000D01*
X37890001Y-29069999D02*
X37883599Y-29076401D01*
X40150001Y-29069999D02*
X37890001Y-29069999D01*
X41000000Y-28220000D02*
X40150001Y-29069999D01*
G04 #@! TO.N,/UP_motor5*
X30856401Y-29076401D02*
X30849999Y-29069999D01*
X33616401Y-29076401D02*
X30856401Y-29076401D01*
X30849999Y-29069999D02*
X30000000Y-28220000D01*
X34480000Y-29940000D02*
X33616401Y-29076401D01*
G04 #@! TO.N,/DOWN_motor5*
X40150001Y-26529999D02*
X41000000Y-25680000D01*
X40143599Y-26536401D02*
X40150001Y-26529999D01*
X37883599Y-26536401D02*
X40143599Y-26536401D01*
X37020000Y-27400000D02*
X37883599Y-26536401D01*
G04 #@! TO.N,/HOME_motor5*
X30856401Y-26536401D02*
X30849999Y-26529999D01*
X30849999Y-26529999D02*
X30000000Y-25680000D01*
X33616401Y-26536401D02*
X30856401Y-26536401D01*
X34480000Y-27400000D02*
X33616401Y-26536401D01*
G04 #@! TO.N,/EMERGENCY*
X30000000Y-16150000D02*
X30000000Y-18000000D01*
X33585471Y-7756399D02*
X30000000Y-11341870D01*
X37914529Y-7756399D02*
X33585471Y-7756399D01*
X42850001Y-12691871D02*
X37914529Y-7756399D01*
X42850001Y-20121333D02*
X42850001Y-12691871D01*
X38974933Y-23996401D02*
X42850001Y-20121333D01*
X30000000Y-11341870D02*
X30000000Y-16150000D01*
X37883599Y-23996401D02*
X38974933Y-23996401D01*
X37020000Y-24860000D02*
X37883599Y-23996401D01*
G04 #@! TO.N,/ONOFF*
X34320000Y-24860000D02*
X30000000Y-20540000D01*
X34480000Y-24860000D02*
X34320000Y-24860000D01*
G04 #@! TO.N,/5V*
X37020000Y-52800000D02*
X34480000Y-52800000D01*
X26660000Y-52800000D02*
X25000000Y-54460000D01*
X34480000Y-52800000D02*
X26660000Y-52800000D01*
G04 #@! TO.N,/NEOPIXEL*
X37883599Y-21456401D02*
X39393599Y-21456401D01*
X41000000Y-19850000D02*
X41000000Y-18000000D01*
X39393599Y-21456401D02*
X41000000Y-19850000D01*
X37020000Y-22320000D02*
X37883599Y-21456401D01*
G04 #@! TO.N,/MOSI*
X62969399Y-30582287D02*
X63611686Y-29940000D01*
X62969399Y-33374529D02*
X62969399Y-30582287D01*
X64344871Y-34750001D02*
X62969399Y-33374529D01*
X77050001Y-34750001D02*
X64344871Y-34750001D01*
X77250001Y-34550001D02*
X77050001Y-34750001D01*
X63611686Y-29940000D02*
X64833000Y-29940000D01*
X77250001Y-31007920D02*
X77250001Y-34550001D01*
X76602081Y-30360000D02*
X77250001Y-31007920D01*
X75400000Y-30360000D02*
X76602081Y-30360000D01*
G04 #@! TO.N,/SCK*
X74550001Y-28669999D02*
X75400000Y-27820000D01*
X74351999Y-28669999D02*
X74550001Y-28669999D01*
X73081998Y-29940000D02*
X74351999Y-28669999D01*
X67373000Y-29940000D02*
X73081998Y-29940000D01*
G04 #@! TO.N,/SS*
X76602081Y-25280000D02*
X75400000Y-25280000D01*
X78750010Y-27427929D02*
X76602081Y-25280000D01*
X78750010Y-36469990D02*
X78750010Y-27427929D01*
X62420000Y-52800000D02*
X78750010Y-36469990D01*
G04 #@! TO.N,/MISO*
X74980000Y-32480000D02*
X75400000Y-32900000D01*
X67373000Y-32480000D02*
X74980000Y-32480000D01*
G04 #@! TD*
D18*
G04 #@! TO.N,+12V*
G36*
X17873000Y-52365000D02*
X16535750Y-52365000D01*
X16377000Y-52523750D01*
X16377000Y-53873000D01*
X16397000Y-53873000D01*
X16397000Y-54127000D01*
X16377000Y-54127000D01*
X16377000Y-55476250D01*
X16535750Y-55635000D01*
X17873000Y-55635000D01*
X17873000Y-55865000D01*
X17361783Y-55865000D01*
X17250000Y-55842765D01*
X17097998Y-55873000D01*
X3000000Y-55873000D01*
X2951399Y-55882667D01*
X2910197Y-55910197D01*
X2882667Y-55951399D01*
X2873000Y-56000000D01*
X2873000Y-82000000D01*
X2882667Y-82048601D01*
X2910197Y-82089803D01*
X2951399Y-82117333D01*
X3000000Y-82127000D01*
X9733992Y-82127000D01*
X9608096Y-82430961D01*
X9730085Y-82653000D01*
X10873000Y-82653000D01*
X10873000Y-82633000D01*
X11127000Y-82633000D01*
X11127000Y-82653000D01*
X12269915Y-82653000D01*
X12391904Y-82430961D01*
X12266008Y-82127000D01*
X22410461Y-82127000D01*
X22348260Y-82220091D01*
X22236887Y-82780000D01*
X22348260Y-83339909D01*
X22665423Y-83814577D01*
X23140091Y-84131740D01*
X23558667Y-84215000D01*
X23841333Y-84215000D01*
X24259909Y-84131740D01*
X24734577Y-83814577D01*
X25051740Y-83339909D01*
X25093684Y-83129039D01*
X36608096Y-83129039D01*
X36768959Y-83517423D01*
X37144866Y-83932389D01*
X37650959Y-84171914D01*
X37873000Y-84050629D01*
X37873000Y-82907000D01*
X38127000Y-82907000D01*
X38127000Y-84050629D01*
X38349041Y-84171914D01*
X38855134Y-83932389D01*
X39231041Y-83517423D01*
X39391904Y-83129039D01*
X39269915Y-82907000D01*
X38127000Y-82907000D01*
X37873000Y-82907000D01*
X36730085Y-82907000D01*
X36608096Y-83129039D01*
X25093684Y-83129039D01*
X25163113Y-82780000D01*
X25051740Y-82220091D01*
X24989539Y-82127000D01*
X36733992Y-82127000D01*
X36608096Y-82430961D01*
X36730085Y-82653000D01*
X37873000Y-82653000D01*
X37873000Y-82633000D01*
X38127000Y-82633000D01*
X38127000Y-82653000D01*
X39269915Y-82653000D01*
X39391904Y-82430961D01*
X39266008Y-82127000D01*
X49410461Y-82127000D01*
X49348260Y-82220091D01*
X49236887Y-82780000D01*
X49348260Y-83339909D01*
X49665423Y-83814577D01*
X50140091Y-84131740D01*
X50558667Y-84215000D01*
X50841333Y-84215000D01*
X51259909Y-84131740D01*
X51734577Y-83814577D01*
X52051740Y-83339909D01*
X52093684Y-83129039D01*
X62608096Y-83129039D01*
X62768959Y-83517423D01*
X63144866Y-83932389D01*
X63650959Y-84171914D01*
X63873000Y-84050629D01*
X63873000Y-82907000D01*
X64127000Y-82907000D01*
X64127000Y-84050629D01*
X64349041Y-84171914D01*
X64855134Y-83932389D01*
X65231041Y-83517423D01*
X65391904Y-83129039D01*
X65269915Y-82907000D01*
X64127000Y-82907000D01*
X63873000Y-82907000D01*
X62730085Y-82907000D01*
X62608096Y-83129039D01*
X52093684Y-83129039D01*
X52163113Y-82780000D01*
X52051740Y-82220091D01*
X51989539Y-82127000D01*
X62733992Y-82127000D01*
X62608096Y-82430961D01*
X62730085Y-82653000D01*
X63873000Y-82653000D01*
X63873000Y-82633000D01*
X64127000Y-82633000D01*
X64127000Y-82653000D01*
X65269915Y-82653000D01*
X65391904Y-82430961D01*
X65266008Y-82127000D01*
X75410461Y-82127000D01*
X75348260Y-82220091D01*
X75236887Y-82780000D01*
X75348260Y-83339909D01*
X75665423Y-83814577D01*
X76140091Y-84131740D01*
X76558667Y-84215000D01*
X76841333Y-84215000D01*
X77259909Y-84131740D01*
X77734577Y-83814577D01*
X78051740Y-83339909D01*
X78093684Y-83129039D01*
X88608096Y-83129039D01*
X88768959Y-83517423D01*
X89144866Y-83932389D01*
X89650959Y-84171914D01*
X89873000Y-84050629D01*
X89873000Y-82907000D01*
X90127000Y-82907000D01*
X90127000Y-84050629D01*
X90349041Y-84171914D01*
X90855134Y-83932389D01*
X91231041Y-83517423D01*
X91391904Y-83129039D01*
X91269915Y-82907000D01*
X90127000Y-82907000D01*
X89873000Y-82907000D01*
X88730085Y-82907000D01*
X88608096Y-83129039D01*
X78093684Y-83129039D01*
X78163113Y-82780000D01*
X78051740Y-82220091D01*
X77989539Y-82127000D01*
X88733992Y-82127000D01*
X88608096Y-82430961D01*
X88730085Y-82653000D01*
X89873000Y-82653000D01*
X89873000Y-82633000D01*
X90127000Y-82633000D01*
X90127000Y-82653000D01*
X91269915Y-82653000D01*
X91391904Y-82430961D01*
X91266008Y-82127000D01*
X101410461Y-82127000D01*
X101348260Y-82220091D01*
X101236887Y-82780000D01*
X101348260Y-83339909D01*
X101665423Y-83814577D01*
X102140091Y-84131740D01*
X102558667Y-84215000D01*
X102841333Y-84215000D01*
X103259909Y-84131740D01*
X103734577Y-83814577D01*
X104051740Y-83339909D01*
X104093684Y-83129039D01*
X113608096Y-83129039D01*
X113768959Y-83517423D01*
X114144866Y-83932389D01*
X114650959Y-84171914D01*
X114873000Y-84050629D01*
X114873000Y-82907000D01*
X115127000Y-82907000D01*
X115127000Y-84050629D01*
X115349041Y-84171914D01*
X115855134Y-83932389D01*
X116231041Y-83517423D01*
X116391904Y-83129039D01*
X116269915Y-82907000D01*
X115127000Y-82907000D01*
X114873000Y-82907000D01*
X113730085Y-82907000D01*
X113608096Y-83129039D01*
X104093684Y-83129039D01*
X104163113Y-82780000D01*
X104051740Y-82220091D01*
X103989539Y-82127000D01*
X113733992Y-82127000D01*
X113608096Y-82430961D01*
X113730085Y-82653000D01*
X114873000Y-82653000D01*
X114873000Y-82633000D01*
X115127000Y-82633000D01*
X115127000Y-82653000D01*
X116269915Y-82653000D01*
X116391904Y-82430961D01*
X116266008Y-82127000D01*
X126410461Y-82127000D01*
X126348260Y-82220091D01*
X126236887Y-82780000D01*
X126348260Y-83339909D01*
X126665423Y-83814577D01*
X127140091Y-84131740D01*
X127558667Y-84215000D01*
X127841333Y-84215000D01*
X128259909Y-84131740D01*
X128734577Y-83814577D01*
X129051740Y-83339909D01*
X129093684Y-83129039D01*
X138608096Y-83129039D01*
X138768959Y-83517423D01*
X139144866Y-83932389D01*
X139650959Y-84171914D01*
X139873000Y-84050629D01*
X139873000Y-82907000D01*
X140127000Y-82907000D01*
X140127000Y-84050629D01*
X140349041Y-84171914D01*
X140855134Y-83932389D01*
X141231041Y-83517423D01*
X141391904Y-83129039D01*
X141269915Y-82907000D01*
X140127000Y-82907000D01*
X139873000Y-82907000D01*
X138730085Y-82907000D01*
X138608096Y-83129039D01*
X129093684Y-83129039D01*
X129163113Y-82780000D01*
X129051740Y-82220091D01*
X128989539Y-82127000D01*
X138733992Y-82127000D01*
X138608096Y-82430961D01*
X138730085Y-82653000D01*
X139873000Y-82653000D01*
X139873000Y-82633000D01*
X140127000Y-82633000D01*
X140127000Y-82653000D01*
X141269915Y-82653000D01*
X141391904Y-82430961D01*
X141266008Y-82127000D01*
X143873000Y-82127000D01*
X143873000Y-85340000D01*
X660000Y-85340000D01*
X660000Y-83129039D01*
X9608096Y-83129039D01*
X9768959Y-83517423D01*
X10144866Y-83932389D01*
X10650959Y-84171914D01*
X10873000Y-84050629D01*
X10873000Y-82907000D01*
X11127000Y-82907000D01*
X11127000Y-84050629D01*
X11349041Y-84171914D01*
X11855134Y-83932389D01*
X12231041Y-83517423D01*
X12391904Y-83129039D01*
X12269915Y-82907000D01*
X11127000Y-82907000D01*
X10873000Y-82907000D01*
X9730085Y-82907000D01*
X9608096Y-83129039D01*
X660000Y-83129039D01*
X660000Y-54285750D01*
X3365000Y-54285750D01*
X3365000Y-55126309D01*
X3461673Y-55359698D01*
X3640301Y-55538327D01*
X3873690Y-55635000D01*
X6714250Y-55635000D01*
X6873000Y-55476250D01*
X6873000Y-54127000D01*
X7127000Y-54127000D01*
X7127000Y-55476250D01*
X7285750Y-55635000D01*
X10126310Y-55635000D01*
X10359699Y-55538327D01*
X10538327Y-55359698D01*
X10635000Y-55126309D01*
X10635000Y-54285750D01*
X13865000Y-54285750D01*
X13865000Y-55126309D01*
X13961673Y-55359698D01*
X14140301Y-55538327D01*
X14373690Y-55635000D01*
X15964250Y-55635000D01*
X16123000Y-55476250D01*
X16123000Y-54127000D01*
X14023750Y-54127000D01*
X13865000Y-54285750D01*
X10635000Y-54285750D01*
X10476250Y-54127000D01*
X7127000Y-54127000D01*
X6873000Y-54127000D01*
X3523750Y-54127000D01*
X3365000Y-54285750D01*
X660000Y-54285750D01*
X660000Y-52873691D01*
X3365000Y-52873691D01*
X3365000Y-53714250D01*
X3523750Y-53873000D01*
X6873000Y-53873000D01*
X6873000Y-52523750D01*
X7127000Y-52523750D01*
X7127000Y-53873000D01*
X10476250Y-53873000D01*
X10635000Y-53714250D01*
X10635000Y-52873691D01*
X13865000Y-52873691D01*
X13865000Y-53714250D01*
X14023750Y-53873000D01*
X16123000Y-53873000D01*
X16123000Y-52523750D01*
X15964250Y-52365000D01*
X14373690Y-52365000D01*
X14140301Y-52461673D01*
X13961673Y-52640302D01*
X13865000Y-52873691D01*
X10635000Y-52873691D01*
X10538327Y-52640302D01*
X10359699Y-52461673D01*
X10126310Y-52365000D01*
X7285750Y-52365000D01*
X7127000Y-52523750D01*
X6873000Y-52523750D01*
X6714250Y-52365000D01*
X3873690Y-52365000D01*
X3640301Y-52461673D01*
X3461673Y-52640302D01*
X3365000Y-52873691D01*
X660000Y-52873691D01*
X660000Y-52127000D01*
X17873000Y-52127000D01*
X17873000Y-52365000D01*
X17873000Y-52365000D01*
G37*
X17873000Y-52365000D02*
X16535750Y-52365000D01*
X16377000Y-52523750D01*
X16377000Y-53873000D01*
X16397000Y-53873000D01*
X16397000Y-54127000D01*
X16377000Y-54127000D01*
X16377000Y-55476250D01*
X16535750Y-55635000D01*
X17873000Y-55635000D01*
X17873000Y-55865000D01*
X17361783Y-55865000D01*
X17250000Y-55842765D01*
X17097998Y-55873000D01*
X3000000Y-55873000D01*
X2951399Y-55882667D01*
X2910197Y-55910197D01*
X2882667Y-55951399D01*
X2873000Y-56000000D01*
X2873000Y-82000000D01*
X2882667Y-82048601D01*
X2910197Y-82089803D01*
X2951399Y-82117333D01*
X3000000Y-82127000D01*
X9733992Y-82127000D01*
X9608096Y-82430961D01*
X9730085Y-82653000D01*
X10873000Y-82653000D01*
X10873000Y-82633000D01*
X11127000Y-82633000D01*
X11127000Y-82653000D01*
X12269915Y-82653000D01*
X12391904Y-82430961D01*
X12266008Y-82127000D01*
X22410461Y-82127000D01*
X22348260Y-82220091D01*
X22236887Y-82780000D01*
X22348260Y-83339909D01*
X22665423Y-83814577D01*
X23140091Y-84131740D01*
X23558667Y-84215000D01*
X23841333Y-84215000D01*
X24259909Y-84131740D01*
X24734577Y-83814577D01*
X25051740Y-83339909D01*
X25093684Y-83129039D01*
X36608096Y-83129039D01*
X36768959Y-83517423D01*
X37144866Y-83932389D01*
X37650959Y-84171914D01*
X37873000Y-84050629D01*
X37873000Y-82907000D01*
X38127000Y-82907000D01*
X38127000Y-84050629D01*
X38349041Y-84171914D01*
X38855134Y-83932389D01*
X39231041Y-83517423D01*
X39391904Y-83129039D01*
X39269915Y-82907000D01*
X38127000Y-82907000D01*
X37873000Y-82907000D01*
X36730085Y-82907000D01*
X36608096Y-83129039D01*
X25093684Y-83129039D01*
X25163113Y-82780000D01*
X25051740Y-82220091D01*
X24989539Y-82127000D01*
X36733992Y-82127000D01*
X36608096Y-82430961D01*
X36730085Y-82653000D01*
X37873000Y-82653000D01*
X37873000Y-82633000D01*
X38127000Y-82633000D01*
X38127000Y-82653000D01*
X39269915Y-82653000D01*
X39391904Y-82430961D01*
X39266008Y-82127000D01*
X49410461Y-82127000D01*
X49348260Y-82220091D01*
X49236887Y-82780000D01*
X49348260Y-83339909D01*
X49665423Y-83814577D01*
X50140091Y-84131740D01*
X50558667Y-84215000D01*
X50841333Y-84215000D01*
X51259909Y-84131740D01*
X51734577Y-83814577D01*
X52051740Y-83339909D01*
X52093684Y-83129039D01*
X62608096Y-83129039D01*
X62768959Y-83517423D01*
X63144866Y-83932389D01*
X63650959Y-84171914D01*
X63873000Y-84050629D01*
X63873000Y-82907000D01*
X64127000Y-82907000D01*
X64127000Y-84050629D01*
X64349041Y-84171914D01*
X64855134Y-83932389D01*
X65231041Y-83517423D01*
X65391904Y-83129039D01*
X65269915Y-82907000D01*
X64127000Y-82907000D01*
X63873000Y-82907000D01*
X62730085Y-82907000D01*
X62608096Y-83129039D01*
X52093684Y-83129039D01*
X52163113Y-82780000D01*
X52051740Y-82220091D01*
X51989539Y-82127000D01*
X62733992Y-82127000D01*
X62608096Y-82430961D01*
X62730085Y-82653000D01*
X63873000Y-82653000D01*
X63873000Y-82633000D01*
X64127000Y-82633000D01*
X64127000Y-82653000D01*
X65269915Y-82653000D01*
X65391904Y-82430961D01*
X65266008Y-82127000D01*
X75410461Y-82127000D01*
X75348260Y-82220091D01*
X75236887Y-82780000D01*
X75348260Y-83339909D01*
X75665423Y-83814577D01*
X76140091Y-84131740D01*
X76558667Y-84215000D01*
X76841333Y-84215000D01*
X77259909Y-84131740D01*
X77734577Y-83814577D01*
X78051740Y-83339909D01*
X78093684Y-83129039D01*
X88608096Y-83129039D01*
X88768959Y-83517423D01*
X89144866Y-83932389D01*
X89650959Y-84171914D01*
X89873000Y-84050629D01*
X89873000Y-82907000D01*
X90127000Y-82907000D01*
X90127000Y-84050629D01*
X90349041Y-84171914D01*
X90855134Y-83932389D01*
X91231041Y-83517423D01*
X91391904Y-83129039D01*
X91269915Y-82907000D01*
X90127000Y-82907000D01*
X89873000Y-82907000D01*
X88730085Y-82907000D01*
X88608096Y-83129039D01*
X78093684Y-83129039D01*
X78163113Y-82780000D01*
X78051740Y-82220091D01*
X77989539Y-82127000D01*
X88733992Y-82127000D01*
X88608096Y-82430961D01*
X88730085Y-82653000D01*
X89873000Y-82653000D01*
X89873000Y-82633000D01*
X90127000Y-82633000D01*
X90127000Y-82653000D01*
X91269915Y-82653000D01*
X91391904Y-82430961D01*
X91266008Y-82127000D01*
X101410461Y-82127000D01*
X101348260Y-82220091D01*
X101236887Y-82780000D01*
X101348260Y-83339909D01*
X101665423Y-83814577D01*
X102140091Y-84131740D01*
X102558667Y-84215000D01*
X102841333Y-84215000D01*
X103259909Y-84131740D01*
X103734577Y-83814577D01*
X104051740Y-83339909D01*
X104093684Y-83129039D01*
X113608096Y-83129039D01*
X113768959Y-83517423D01*
X114144866Y-83932389D01*
X114650959Y-84171914D01*
X114873000Y-84050629D01*
X114873000Y-82907000D01*
X115127000Y-82907000D01*
X115127000Y-84050629D01*
X115349041Y-84171914D01*
X115855134Y-83932389D01*
X116231041Y-83517423D01*
X116391904Y-83129039D01*
X116269915Y-82907000D01*
X115127000Y-82907000D01*
X114873000Y-82907000D01*
X113730085Y-82907000D01*
X113608096Y-83129039D01*
X104093684Y-83129039D01*
X104163113Y-82780000D01*
X104051740Y-82220091D01*
X103989539Y-82127000D01*
X113733992Y-82127000D01*
X113608096Y-82430961D01*
X113730085Y-82653000D01*
X114873000Y-82653000D01*
X114873000Y-82633000D01*
X115127000Y-82633000D01*
X115127000Y-82653000D01*
X116269915Y-82653000D01*
X116391904Y-82430961D01*
X116266008Y-82127000D01*
X126410461Y-82127000D01*
X126348260Y-82220091D01*
X126236887Y-82780000D01*
X126348260Y-83339909D01*
X126665423Y-83814577D01*
X127140091Y-84131740D01*
X127558667Y-84215000D01*
X127841333Y-84215000D01*
X128259909Y-84131740D01*
X128734577Y-83814577D01*
X129051740Y-83339909D01*
X129093684Y-83129039D01*
X138608096Y-83129039D01*
X138768959Y-83517423D01*
X139144866Y-83932389D01*
X139650959Y-84171914D01*
X139873000Y-84050629D01*
X139873000Y-82907000D01*
X140127000Y-82907000D01*
X140127000Y-84050629D01*
X140349041Y-84171914D01*
X140855134Y-83932389D01*
X141231041Y-83517423D01*
X141391904Y-83129039D01*
X141269915Y-82907000D01*
X140127000Y-82907000D01*
X139873000Y-82907000D01*
X138730085Y-82907000D01*
X138608096Y-83129039D01*
X129093684Y-83129039D01*
X129163113Y-82780000D01*
X129051740Y-82220091D01*
X128989539Y-82127000D01*
X138733992Y-82127000D01*
X138608096Y-82430961D01*
X138730085Y-82653000D01*
X139873000Y-82653000D01*
X139873000Y-82633000D01*
X140127000Y-82633000D01*
X140127000Y-82653000D01*
X141269915Y-82653000D01*
X141391904Y-82430961D01*
X141266008Y-82127000D01*
X143873000Y-82127000D01*
X143873000Y-85340000D01*
X660000Y-85340000D01*
X660000Y-83129039D01*
X9608096Y-83129039D01*
X9768959Y-83517423D01*
X10144866Y-83932389D01*
X10650959Y-84171914D01*
X10873000Y-84050629D01*
X10873000Y-82907000D01*
X11127000Y-82907000D01*
X11127000Y-84050629D01*
X11349041Y-84171914D01*
X11855134Y-83932389D01*
X12231041Y-83517423D01*
X12391904Y-83129039D01*
X12269915Y-82907000D01*
X11127000Y-82907000D01*
X10873000Y-82907000D01*
X9730085Y-82907000D01*
X9608096Y-83129039D01*
X660000Y-83129039D01*
X660000Y-54285750D01*
X3365000Y-54285750D01*
X3365000Y-55126309D01*
X3461673Y-55359698D01*
X3640301Y-55538327D01*
X3873690Y-55635000D01*
X6714250Y-55635000D01*
X6873000Y-55476250D01*
X6873000Y-54127000D01*
X7127000Y-54127000D01*
X7127000Y-55476250D01*
X7285750Y-55635000D01*
X10126310Y-55635000D01*
X10359699Y-55538327D01*
X10538327Y-55359698D01*
X10635000Y-55126309D01*
X10635000Y-54285750D01*
X13865000Y-54285750D01*
X13865000Y-55126309D01*
X13961673Y-55359698D01*
X14140301Y-55538327D01*
X14373690Y-55635000D01*
X15964250Y-55635000D01*
X16123000Y-55476250D01*
X16123000Y-54127000D01*
X14023750Y-54127000D01*
X13865000Y-54285750D01*
X10635000Y-54285750D01*
X10476250Y-54127000D01*
X7127000Y-54127000D01*
X6873000Y-54127000D01*
X3523750Y-54127000D01*
X3365000Y-54285750D01*
X660000Y-54285750D01*
X660000Y-52873691D01*
X3365000Y-52873691D01*
X3365000Y-53714250D01*
X3523750Y-53873000D01*
X6873000Y-53873000D01*
X6873000Y-52523750D01*
X7127000Y-52523750D01*
X7127000Y-53873000D01*
X10476250Y-53873000D01*
X10635000Y-53714250D01*
X10635000Y-52873691D01*
X13865000Y-52873691D01*
X13865000Y-53714250D01*
X14023750Y-53873000D01*
X16123000Y-53873000D01*
X16123000Y-52523750D01*
X15964250Y-52365000D01*
X14373690Y-52365000D01*
X14140301Y-52461673D01*
X13961673Y-52640302D01*
X13865000Y-52873691D01*
X10635000Y-52873691D01*
X10538327Y-52640302D01*
X10359699Y-52461673D01*
X10126310Y-52365000D01*
X7285750Y-52365000D01*
X7127000Y-52523750D01*
X6873000Y-52523750D01*
X6714250Y-52365000D01*
X3873690Y-52365000D01*
X3640301Y-52461673D01*
X3461673Y-52640302D01*
X3365000Y-52873691D01*
X660000Y-52873691D01*
X660000Y-52127000D01*
X17873000Y-52127000D01*
X17873000Y-52365000D01*
G04 #@! TO.N,GND*
G36*
X23515000Y-56206941D02*
X23515000Y-56714250D01*
X23673750Y-56873000D01*
X24873000Y-56873000D01*
X24873000Y-56853000D01*
X25127000Y-56853000D01*
X25127000Y-56873000D01*
X26326250Y-56873000D01*
X26485000Y-56714250D01*
X26485000Y-56249985D01*
X30939176Y-56314538D01*
X30857144Y-56330855D01*
X30481710Y-56581712D01*
X30418388Y-56676480D01*
X23522718Y-63572151D01*
X23140091Y-63648260D01*
X22665423Y-63965423D01*
X22348260Y-64440091D01*
X22236887Y-65000000D01*
X22348260Y-65559909D01*
X22665423Y-66034577D01*
X23017758Y-66270000D01*
X22665423Y-66505423D01*
X22348260Y-66980091D01*
X22236887Y-67540000D01*
X22348260Y-68099909D01*
X22665423Y-68574577D01*
X23017758Y-68810000D01*
X22665423Y-69045423D01*
X22348260Y-69520091D01*
X22236887Y-70080000D01*
X22348260Y-70639909D01*
X22565000Y-70964284D01*
X22565001Y-71735716D01*
X22348260Y-72060091D01*
X22236887Y-72620000D01*
X22348260Y-73179909D01*
X22665423Y-73654577D01*
X23049108Y-73910947D01*
X22844866Y-74007611D01*
X22468959Y-74422577D01*
X22308096Y-74810961D01*
X22430085Y-75033000D01*
X23573000Y-75033000D01*
X23573000Y-75013000D01*
X23827000Y-75013000D01*
X23827000Y-75033000D01*
X24969915Y-75033000D01*
X25091904Y-74810961D01*
X24931041Y-74422577D01*
X24555134Y-74007611D01*
X24350892Y-73910947D01*
X24734577Y-73654577D01*
X25051740Y-73179909D01*
X25163113Y-72620000D01*
X25051740Y-72060091D01*
X24835000Y-71735717D01*
X24835000Y-70964283D01*
X25051740Y-70639909D01*
X25163113Y-70080000D01*
X25051740Y-69520091D01*
X24734577Y-69045423D01*
X24382242Y-68810000D01*
X24734577Y-68574577D01*
X25051740Y-68099909D01*
X25096477Y-67875001D01*
X25148216Y-67875001D01*
X25259999Y-67897236D01*
X25371782Y-67875001D01*
X25702854Y-67809147D01*
X26078288Y-67558290D01*
X26141612Y-67463519D01*
X28319381Y-65285750D01*
X36565000Y-65285750D01*
X36565000Y-65926310D01*
X36661673Y-66159699D01*
X36840302Y-66338327D01*
X37073691Y-66435000D01*
X37101938Y-66435000D01*
X36768959Y-66802577D01*
X36608096Y-67190961D01*
X36730085Y-67413000D01*
X37873000Y-67413000D01*
X37873000Y-65127000D01*
X38127000Y-65127000D01*
X38127000Y-67413000D01*
X39269915Y-67413000D01*
X39391904Y-67190961D01*
X39231041Y-66802577D01*
X38898062Y-66435000D01*
X38926309Y-66435000D01*
X39159698Y-66338327D01*
X39338327Y-66159699D01*
X39435000Y-65926310D01*
X39435000Y-65285750D01*
X39276250Y-65127000D01*
X38127000Y-65127000D01*
X37873000Y-65127000D01*
X36723750Y-65127000D01*
X36565000Y-65285750D01*
X28319381Y-65285750D01*
X29531441Y-64073690D01*
X36565000Y-64073690D01*
X36565000Y-64714250D01*
X36723750Y-64873000D01*
X37873000Y-64873000D01*
X37873000Y-63723750D01*
X38127000Y-63723750D01*
X38127000Y-64873000D01*
X39276250Y-64873000D01*
X39435000Y-64714250D01*
X39435000Y-64073690D01*
X39338327Y-63840301D01*
X39159698Y-63661673D01*
X38926309Y-63565000D01*
X38285750Y-63565000D01*
X38127000Y-63723750D01*
X37873000Y-63723750D01*
X37714250Y-63565000D01*
X37073691Y-63565000D01*
X36840302Y-63661673D01*
X36661673Y-63840301D01*
X36565000Y-64073690D01*
X29531441Y-64073690D01*
X33570121Y-60035011D01*
X54059857Y-60035010D01*
X50522718Y-63572151D01*
X50140091Y-63648260D01*
X49665423Y-63965423D01*
X49348260Y-64440091D01*
X49236887Y-65000000D01*
X49348260Y-65559909D01*
X49665423Y-66034577D01*
X50017758Y-66270000D01*
X49665423Y-66505423D01*
X49348260Y-66980091D01*
X49236887Y-67540000D01*
X49348260Y-68099909D01*
X49665423Y-68574577D01*
X50017758Y-68810000D01*
X49665423Y-69045423D01*
X49348260Y-69520091D01*
X49236887Y-70080000D01*
X49348260Y-70639909D01*
X49565000Y-70964284D01*
X49565001Y-71735716D01*
X49348260Y-72060091D01*
X49236887Y-72620000D01*
X49348260Y-73179909D01*
X49665423Y-73654577D01*
X50049108Y-73910947D01*
X49844866Y-74007611D01*
X49468959Y-74422577D01*
X49308096Y-74810961D01*
X49430085Y-75033000D01*
X50573000Y-75033000D01*
X50573000Y-75013000D01*
X50827000Y-75013000D01*
X50827000Y-75033000D01*
X51969915Y-75033000D01*
X52091904Y-74810961D01*
X51931041Y-74422577D01*
X51555134Y-74007611D01*
X51350892Y-73910947D01*
X51734577Y-73654577D01*
X52051740Y-73179909D01*
X52163113Y-72620000D01*
X52051740Y-72060091D01*
X51835000Y-71735717D01*
X51835000Y-70964283D01*
X52051740Y-70639909D01*
X52103439Y-70380000D01*
X56485908Y-70380000D01*
X56601161Y-70959418D01*
X56929375Y-71450625D01*
X57227761Y-71650000D01*
X56929375Y-71849375D01*
X56601161Y-72340582D01*
X56485908Y-72920000D01*
X56601161Y-73499418D01*
X56929375Y-73990625D01*
X57227761Y-74190000D01*
X56929375Y-74389375D01*
X56601161Y-74880582D01*
X56485908Y-75460000D01*
X56601161Y-76039418D01*
X56929375Y-76530625D01*
X56947619Y-76542816D01*
X56902235Y-76551843D01*
X56692191Y-76692191D01*
X56551843Y-76902235D01*
X56502560Y-77150000D01*
X56502560Y-78850000D01*
X56551843Y-79097765D01*
X56692191Y-79307809D01*
X56902235Y-79448157D01*
X57150000Y-79497440D01*
X58850000Y-79497440D01*
X59097765Y-79448157D01*
X59307809Y-79307809D01*
X59448157Y-79097765D01*
X59497440Y-78850000D01*
X59497440Y-78835000D01*
X63115717Y-78835000D01*
X63349108Y-78990947D01*
X63144866Y-79087611D01*
X62768959Y-79502577D01*
X62608096Y-79890961D01*
X62730085Y-80113000D01*
X63873000Y-80113000D01*
X63873000Y-80093000D01*
X64127000Y-80093000D01*
X64127000Y-80113000D01*
X65269915Y-80113000D01*
X65391904Y-79890961D01*
X65231041Y-79502577D01*
X64855134Y-79087611D01*
X64650892Y-78990947D01*
X65034577Y-78734577D01*
X65351740Y-78259909D01*
X65393684Y-78049039D01*
X75308096Y-78049039D01*
X75468959Y-78437423D01*
X75844866Y-78852389D01*
X76093367Y-78970000D01*
X75844866Y-79087611D01*
X75468959Y-79502577D01*
X75308096Y-79890961D01*
X75430085Y-80113000D01*
X76573000Y-80113000D01*
X76573000Y-77827000D01*
X76827000Y-77827000D01*
X76827000Y-80113000D01*
X77969915Y-80113000D01*
X78091904Y-79890961D01*
X77931041Y-79502577D01*
X77555134Y-79087611D01*
X77306633Y-78970000D01*
X77555134Y-78852389D01*
X77931041Y-78437423D01*
X78091904Y-78049039D01*
X77969915Y-77827000D01*
X76827000Y-77827000D01*
X76573000Y-77827000D01*
X75430085Y-77827000D01*
X75308096Y-78049039D01*
X65393684Y-78049039D01*
X65463113Y-77700000D01*
X65351740Y-77140091D01*
X65034577Y-76665423D01*
X64682242Y-76430000D01*
X65034577Y-76194577D01*
X65351740Y-75719909D01*
X65393684Y-75509039D01*
X75308096Y-75509039D01*
X75468959Y-75897423D01*
X75844866Y-76312389D01*
X76093367Y-76430000D01*
X75844866Y-76547611D01*
X75468959Y-76962577D01*
X75308096Y-77350961D01*
X75430085Y-77573000D01*
X76573000Y-77573000D01*
X76573000Y-75287000D01*
X76827000Y-75287000D01*
X76827000Y-77573000D01*
X77969915Y-77573000D01*
X78091904Y-77350961D01*
X77931041Y-76962577D01*
X77555134Y-76547611D01*
X77306633Y-76430000D01*
X77555134Y-76312389D01*
X77931041Y-75897423D01*
X78091904Y-75509039D01*
X77969915Y-75287000D01*
X76827000Y-75287000D01*
X76573000Y-75287000D01*
X75430085Y-75287000D01*
X75308096Y-75509039D01*
X65393684Y-75509039D01*
X65463113Y-75160000D01*
X65351740Y-74600091D01*
X65034577Y-74125423D01*
X64682242Y-73890000D01*
X65034577Y-73654577D01*
X65351740Y-73179909D01*
X65463113Y-72620000D01*
X65351740Y-72060091D01*
X65034577Y-71585423D01*
X64682242Y-71350000D01*
X65034577Y-71114577D01*
X65351740Y-70639909D01*
X65463113Y-70080000D01*
X65351740Y-69520091D01*
X65034577Y-69045423D01*
X64650892Y-68789053D01*
X64855134Y-68692389D01*
X65231041Y-68277423D01*
X65391904Y-67889039D01*
X65269915Y-67667000D01*
X64127000Y-67667000D01*
X64127000Y-67687000D01*
X63873000Y-67687000D01*
X63873000Y-67667000D01*
X62730085Y-67667000D01*
X62608096Y-67889039D01*
X62768959Y-68277423D01*
X63144866Y-68692389D01*
X63349108Y-68789053D01*
X63115717Y-68945000D01*
X62980413Y-68945000D01*
X62868630Y-68922765D01*
X62756847Y-68945000D01*
X62425775Y-69010854D01*
X62075351Y-69245000D01*
X58974281Y-69245000D01*
X58579418Y-68981161D01*
X58146256Y-68895000D01*
X57853744Y-68895000D01*
X57420582Y-68981161D01*
X56929375Y-69309375D01*
X56601161Y-69800582D01*
X56485908Y-70380000D01*
X52103439Y-70380000D01*
X52163113Y-70080000D01*
X52051740Y-69520091D01*
X51734577Y-69045423D01*
X51382242Y-68810000D01*
X51734577Y-68574577D01*
X52051740Y-68099909D01*
X52116124Y-67776227D01*
X52442290Y-67558290D01*
X52505614Y-67463519D01*
X54683383Y-65285750D01*
X62565000Y-65285750D01*
X62565000Y-65926310D01*
X62661673Y-66159699D01*
X62840302Y-66338327D01*
X63073691Y-66435000D01*
X63101938Y-66435000D01*
X62768959Y-66802577D01*
X62608096Y-67190961D01*
X62730085Y-67413000D01*
X63873000Y-67413000D01*
X63873000Y-65127000D01*
X64127000Y-65127000D01*
X64127000Y-67413000D01*
X65269915Y-67413000D01*
X65391904Y-67190961D01*
X65231041Y-66802577D01*
X64898062Y-66435000D01*
X64926309Y-66435000D01*
X65159698Y-66338327D01*
X65338327Y-66159699D01*
X65435000Y-65926310D01*
X65435000Y-65285750D01*
X65276250Y-65127000D01*
X64127000Y-65127000D01*
X63873000Y-65127000D01*
X62723750Y-65127000D01*
X62565000Y-65285750D01*
X54683383Y-65285750D01*
X55895443Y-64073690D01*
X62565000Y-64073690D01*
X62565000Y-64714250D01*
X62723750Y-64873000D01*
X63873000Y-64873000D01*
X63873000Y-63723750D01*
X64127000Y-63723750D01*
X64127000Y-64873000D01*
X65276250Y-64873000D01*
X65435000Y-64714250D01*
X65435000Y-64073690D01*
X65338327Y-63840301D01*
X65159698Y-63661673D01*
X64926309Y-63565000D01*
X64285750Y-63565000D01*
X64127000Y-63723750D01*
X63873000Y-63723750D01*
X63714250Y-63565000D01*
X63073691Y-63565000D01*
X62840302Y-63661673D01*
X62661673Y-63840301D01*
X62565000Y-64073690D01*
X55895443Y-64073690D01*
X56834134Y-63135000D01*
X73888217Y-63135000D01*
X74000000Y-63157235D01*
X74111783Y-63135000D01*
X74442855Y-63069146D01*
X74818289Y-62818289D01*
X74881613Y-62723518D01*
X80059922Y-57545210D01*
X80154690Y-57481888D01*
X80405547Y-57106454D01*
X80420425Y-57031657D01*
X81605000Y-57048825D01*
X81605000Y-58489868D01*
X76522718Y-63572151D01*
X76140091Y-63648260D01*
X75665423Y-63965423D01*
X75348260Y-64440091D01*
X75236887Y-65000000D01*
X75348260Y-65559909D01*
X75665423Y-66034577D01*
X76017758Y-66270000D01*
X75665423Y-66505423D01*
X75348260Y-66980091D01*
X75236887Y-67540000D01*
X75348260Y-68099909D01*
X75665423Y-68574577D01*
X76017758Y-68810000D01*
X75665423Y-69045423D01*
X75348260Y-69520091D01*
X75236887Y-70080000D01*
X75348260Y-70639909D01*
X75565000Y-70964284D01*
X75565001Y-71735716D01*
X75348260Y-72060091D01*
X75236887Y-72620000D01*
X75348260Y-73179909D01*
X75665423Y-73654577D01*
X76049108Y-73910947D01*
X75844866Y-74007611D01*
X75468959Y-74422577D01*
X75308096Y-74810961D01*
X75430085Y-75033000D01*
X76573000Y-75033000D01*
X76573000Y-75013000D01*
X76827000Y-75013000D01*
X76827000Y-75033000D01*
X77969915Y-75033000D01*
X78091904Y-74810961D01*
X77931041Y-74422577D01*
X77555134Y-74007611D01*
X77350892Y-73910947D01*
X77734577Y-73654577D01*
X78051740Y-73179909D01*
X78163113Y-72620000D01*
X78051740Y-72060091D01*
X77835000Y-71735717D01*
X77835000Y-70964283D01*
X78051740Y-70639909D01*
X78103439Y-70380000D01*
X82485908Y-70380000D01*
X82601161Y-70959418D01*
X82929375Y-71450625D01*
X83227761Y-71650000D01*
X82929375Y-71849375D01*
X82601161Y-72340582D01*
X82485908Y-72920000D01*
X82601161Y-73499418D01*
X82929375Y-73990625D01*
X83227761Y-74190000D01*
X82929375Y-74389375D01*
X82601161Y-74880582D01*
X82485908Y-75460000D01*
X82601161Y-76039418D01*
X82929375Y-76530625D01*
X82947619Y-76542816D01*
X82902235Y-76551843D01*
X82692191Y-76692191D01*
X82551843Y-76902235D01*
X82502560Y-77150000D01*
X82502560Y-78850000D01*
X82551843Y-79097765D01*
X82692191Y-79307809D01*
X82902235Y-79448157D01*
X83150000Y-79497440D01*
X84850000Y-79497440D01*
X85097765Y-79448157D01*
X85307809Y-79307809D01*
X85448157Y-79097765D01*
X85497440Y-78850000D01*
X85497440Y-78835000D01*
X89115717Y-78835000D01*
X89349108Y-78990947D01*
X89144866Y-79087611D01*
X88768959Y-79502577D01*
X88608096Y-79890961D01*
X88730085Y-80113000D01*
X89873000Y-80113000D01*
X89873000Y-80093000D01*
X90127000Y-80093000D01*
X90127000Y-80113000D01*
X91269915Y-80113000D01*
X91391904Y-79890961D01*
X91231041Y-79502577D01*
X90855134Y-79087611D01*
X90650892Y-78990947D01*
X91034577Y-78734577D01*
X91351740Y-78259909D01*
X91393684Y-78049039D01*
X101308096Y-78049039D01*
X101468959Y-78437423D01*
X101844866Y-78852389D01*
X102093367Y-78970000D01*
X101844866Y-79087611D01*
X101468959Y-79502577D01*
X101308096Y-79890961D01*
X101430085Y-80113000D01*
X102573000Y-80113000D01*
X102573000Y-77827000D01*
X102827000Y-77827000D01*
X102827000Y-80113000D01*
X103969915Y-80113000D01*
X104091904Y-79890961D01*
X103931041Y-79502577D01*
X103555134Y-79087611D01*
X103306633Y-78970000D01*
X103555134Y-78852389D01*
X103931041Y-78437423D01*
X104091904Y-78049039D01*
X103969915Y-77827000D01*
X102827000Y-77827000D01*
X102573000Y-77827000D01*
X101430085Y-77827000D01*
X101308096Y-78049039D01*
X91393684Y-78049039D01*
X91463113Y-77700000D01*
X91351740Y-77140091D01*
X91034577Y-76665423D01*
X90682242Y-76430000D01*
X91034577Y-76194577D01*
X91351740Y-75719909D01*
X91393684Y-75509039D01*
X101308096Y-75509039D01*
X101468959Y-75897423D01*
X101844866Y-76312389D01*
X102093367Y-76430000D01*
X101844866Y-76547611D01*
X101468959Y-76962577D01*
X101308096Y-77350961D01*
X101430085Y-77573000D01*
X102573000Y-77573000D01*
X102573000Y-75287000D01*
X102827000Y-75287000D01*
X102827000Y-77573000D01*
X103969915Y-77573000D01*
X104091904Y-77350961D01*
X103931041Y-76962577D01*
X103555134Y-76547611D01*
X103306633Y-76430000D01*
X103555134Y-76312389D01*
X103931041Y-75897423D01*
X104091904Y-75509039D01*
X103969915Y-75287000D01*
X102827000Y-75287000D01*
X102573000Y-75287000D01*
X101430085Y-75287000D01*
X101308096Y-75509039D01*
X91393684Y-75509039D01*
X91463113Y-75160000D01*
X91351740Y-74600091D01*
X91034577Y-74125423D01*
X90682242Y-73890000D01*
X91034577Y-73654577D01*
X91351740Y-73179909D01*
X91463113Y-72620000D01*
X91351740Y-72060091D01*
X91034577Y-71585423D01*
X90682242Y-71350000D01*
X91034577Y-71114577D01*
X91351740Y-70639909D01*
X91463113Y-70080000D01*
X91351740Y-69520091D01*
X91034577Y-69045423D01*
X90650892Y-68789053D01*
X90855134Y-68692389D01*
X91231041Y-68277423D01*
X91391904Y-67889039D01*
X91269915Y-67667000D01*
X90127000Y-67667000D01*
X90127000Y-67687000D01*
X89873000Y-67687000D01*
X89873000Y-67667000D01*
X88730085Y-67667000D01*
X88608096Y-67889039D01*
X88768959Y-68277423D01*
X89144866Y-68692389D01*
X89349108Y-68789053D01*
X88965423Y-69045423D01*
X88832070Y-69245000D01*
X84974281Y-69245000D01*
X84579418Y-68981161D01*
X84146256Y-68895000D01*
X83853744Y-68895000D01*
X83420582Y-68981161D01*
X82929375Y-69309375D01*
X82601161Y-69800582D01*
X82485908Y-70380000D01*
X78103439Y-70380000D01*
X78163113Y-70080000D01*
X78051740Y-69520091D01*
X77734577Y-69045423D01*
X77382242Y-68810000D01*
X77734577Y-68574577D01*
X78051740Y-68099909D01*
X78116124Y-67776227D01*
X78442290Y-67558290D01*
X78505614Y-67463519D01*
X80683383Y-65285750D01*
X88565000Y-65285750D01*
X88565000Y-65926310D01*
X88661673Y-66159699D01*
X88840302Y-66338327D01*
X89073691Y-66435000D01*
X89101938Y-66435000D01*
X88768959Y-66802577D01*
X88608096Y-67190961D01*
X88730085Y-67413000D01*
X89873000Y-67413000D01*
X89873000Y-65127000D01*
X90127000Y-65127000D01*
X90127000Y-67413000D01*
X91269915Y-67413000D01*
X91391904Y-67190961D01*
X91231041Y-66802577D01*
X90898062Y-66435000D01*
X90926309Y-66435000D01*
X91159698Y-66338327D01*
X91338327Y-66159699D01*
X91435000Y-65926310D01*
X91435000Y-65285750D01*
X91276250Y-65127000D01*
X90127000Y-65127000D01*
X89873000Y-65127000D01*
X88723750Y-65127000D01*
X88565000Y-65285750D01*
X80683383Y-65285750D01*
X81895443Y-64073690D01*
X88565000Y-64073690D01*
X88565000Y-64714250D01*
X88723750Y-64873000D01*
X89873000Y-64873000D01*
X89873000Y-63723750D01*
X90127000Y-63723750D01*
X90127000Y-64873000D01*
X91276250Y-64873000D01*
X91435000Y-64714250D01*
X91435000Y-64073690D01*
X91338327Y-63840301D01*
X91159698Y-63661673D01*
X90926309Y-63565000D01*
X90285750Y-63565000D01*
X90127000Y-63723750D01*
X89873000Y-63723750D01*
X89714250Y-63565000D01*
X89073691Y-63565000D01*
X88840302Y-63661673D01*
X88661673Y-63840301D01*
X88565000Y-64073690D01*
X81895443Y-64073690D01*
X86003521Y-59965613D01*
X86098289Y-59902291D01*
X86349146Y-59526857D01*
X86415000Y-59195785D01*
X86437235Y-59084002D01*
X86415000Y-58972219D01*
X86415000Y-57118535D01*
X89060454Y-57156875D01*
X89050364Y-57207599D01*
X89138453Y-57650453D01*
X89138454Y-57650454D01*
X89389311Y-58025888D01*
X89484079Y-58089210D01*
X97118389Y-65723521D01*
X97181711Y-65818289D01*
X97478322Y-66016478D01*
X97557145Y-66069146D01*
X97999999Y-66157235D01*
X98111782Y-66135000D01*
X101815717Y-66135000D01*
X102017758Y-66270000D01*
X101665423Y-66505423D01*
X101348260Y-66980091D01*
X101236887Y-67540000D01*
X101348260Y-68099909D01*
X101665423Y-68574577D01*
X102017758Y-68810000D01*
X101665423Y-69045423D01*
X101348260Y-69520091D01*
X101236887Y-70080000D01*
X101348260Y-70639909D01*
X101565000Y-70964284D01*
X101565001Y-71735716D01*
X101348260Y-72060091D01*
X101236887Y-72620000D01*
X101348260Y-73179909D01*
X101665423Y-73654577D01*
X102049108Y-73910947D01*
X101844866Y-74007611D01*
X101468959Y-74422577D01*
X101308096Y-74810961D01*
X101430085Y-75033000D01*
X102573000Y-75033000D01*
X102573000Y-75013000D01*
X102827000Y-75013000D01*
X102827000Y-75033000D01*
X103969915Y-75033000D01*
X104091904Y-74810961D01*
X103931041Y-74422577D01*
X103555134Y-74007611D01*
X103350892Y-73910947D01*
X103734577Y-73654577D01*
X104051740Y-73179909D01*
X104163113Y-72620000D01*
X104051740Y-72060091D01*
X103835000Y-71735717D01*
X103835000Y-70964283D01*
X104051740Y-70639909D01*
X104103439Y-70380000D01*
X107485908Y-70380000D01*
X107601161Y-70959418D01*
X107929375Y-71450625D01*
X108227761Y-71650000D01*
X107929375Y-71849375D01*
X107601161Y-72340582D01*
X107485908Y-72920000D01*
X107601161Y-73499418D01*
X107929375Y-73990625D01*
X108227761Y-74190000D01*
X107929375Y-74389375D01*
X107601161Y-74880582D01*
X107485908Y-75460000D01*
X107601161Y-76039418D01*
X107929375Y-76530625D01*
X107947619Y-76542816D01*
X107902235Y-76551843D01*
X107692191Y-76692191D01*
X107551843Y-76902235D01*
X107502560Y-77150000D01*
X107502560Y-78850000D01*
X107551843Y-79097765D01*
X107692191Y-79307809D01*
X107902235Y-79448157D01*
X108150000Y-79497440D01*
X109850000Y-79497440D01*
X110097765Y-79448157D01*
X110307809Y-79307809D01*
X110448157Y-79097765D01*
X110497440Y-78850000D01*
X110497440Y-78835000D01*
X114115717Y-78835000D01*
X114349108Y-78990947D01*
X114144866Y-79087611D01*
X113768959Y-79502577D01*
X113608096Y-79890961D01*
X113730085Y-80113000D01*
X114873000Y-80113000D01*
X114873000Y-80093000D01*
X115127000Y-80093000D01*
X115127000Y-80113000D01*
X116269915Y-80113000D01*
X116391904Y-79890961D01*
X116231041Y-79502577D01*
X115855134Y-79087611D01*
X115650892Y-78990947D01*
X116034577Y-78734577D01*
X116351740Y-78259909D01*
X116393684Y-78049039D01*
X126308096Y-78049039D01*
X126468959Y-78437423D01*
X126844866Y-78852389D01*
X127093367Y-78970000D01*
X126844866Y-79087611D01*
X126468959Y-79502577D01*
X126308096Y-79890961D01*
X126430085Y-80113000D01*
X127573000Y-80113000D01*
X127573000Y-77827000D01*
X127827000Y-77827000D01*
X127827000Y-80113000D01*
X128969915Y-80113000D01*
X129091904Y-79890961D01*
X128931041Y-79502577D01*
X128555134Y-79087611D01*
X128306633Y-78970000D01*
X128555134Y-78852389D01*
X128931041Y-78437423D01*
X129091904Y-78049039D01*
X128969915Y-77827000D01*
X127827000Y-77827000D01*
X127573000Y-77827000D01*
X126430085Y-77827000D01*
X126308096Y-78049039D01*
X116393684Y-78049039D01*
X116463113Y-77700000D01*
X116351740Y-77140091D01*
X116034577Y-76665423D01*
X115682242Y-76430000D01*
X116034577Y-76194577D01*
X116351740Y-75719909D01*
X116393684Y-75509039D01*
X126308096Y-75509039D01*
X126468959Y-75897423D01*
X126844866Y-76312389D01*
X127093367Y-76430000D01*
X126844866Y-76547611D01*
X126468959Y-76962577D01*
X126308096Y-77350961D01*
X126430085Y-77573000D01*
X127573000Y-77573000D01*
X127573000Y-75287000D01*
X127827000Y-75287000D01*
X127827000Y-77573000D01*
X128969915Y-77573000D01*
X129091904Y-77350961D01*
X128931041Y-76962577D01*
X128555134Y-76547611D01*
X128306633Y-76430000D01*
X128555134Y-76312389D01*
X128931041Y-75897423D01*
X129091904Y-75509039D01*
X128969915Y-75287000D01*
X127827000Y-75287000D01*
X127573000Y-75287000D01*
X126430085Y-75287000D01*
X126308096Y-75509039D01*
X116393684Y-75509039D01*
X116463113Y-75160000D01*
X116351740Y-74600091D01*
X116034577Y-74125423D01*
X115682242Y-73890000D01*
X116034577Y-73654577D01*
X116351740Y-73179909D01*
X116463113Y-72620000D01*
X116351740Y-72060091D01*
X116034577Y-71585423D01*
X115682242Y-71350000D01*
X116034577Y-71114577D01*
X116351740Y-70639909D01*
X116463113Y-70080000D01*
X116351740Y-69520091D01*
X116034577Y-69045423D01*
X115650892Y-68789053D01*
X115855134Y-68692389D01*
X116231041Y-68277423D01*
X116391904Y-67889039D01*
X116269915Y-67667000D01*
X115127000Y-67667000D01*
X115127000Y-67687000D01*
X114873000Y-67687000D01*
X114873000Y-67667000D01*
X113730085Y-67667000D01*
X113608096Y-67889039D01*
X113768959Y-68277423D01*
X114144866Y-68692389D01*
X114349108Y-68789053D01*
X113965423Y-69045423D01*
X113832070Y-69245000D01*
X109974281Y-69245000D01*
X109579418Y-68981161D01*
X109146256Y-68895000D01*
X108853744Y-68895000D01*
X108420582Y-68981161D01*
X107929375Y-69309375D01*
X107601161Y-69800582D01*
X107485908Y-70380000D01*
X104103439Y-70380000D01*
X104163113Y-70080000D01*
X104051740Y-69520091D01*
X103734577Y-69045423D01*
X103382242Y-68810000D01*
X103734577Y-68574577D01*
X104051740Y-68099909D01*
X104116124Y-67776227D01*
X104442290Y-67558290D01*
X104505614Y-67463520D01*
X105223522Y-66745612D01*
X105318290Y-66682290D01*
X105569147Y-66306856D01*
X105603331Y-66135000D01*
X105657236Y-65864002D01*
X105635001Y-65752219D01*
X105635001Y-65285750D01*
X113565000Y-65285750D01*
X113565000Y-65926310D01*
X113661673Y-66159699D01*
X113840302Y-66338327D01*
X114073691Y-66435000D01*
X114101938Y-66435000D01*
X113768959Y-66802577D01*
X113608096Y-67190961D01*
X113730085Y-67413000D01*
X114873000Y-67413000D01*
X114873000Y-65127000D01*
X115127000Y-65127000D01*
X115127000Y-67413000D01*
X116269915Y-67413000D01*
X116391904Y-67190961D01*
X116231041Y-66802577D01*
X115898062Y-66435000D01*
X115926309Y-66435000D01*
X116159698Y-66338327D01*
X116338327Y-66159699D01*
X116435000Y-65926310D01*
X116435000Y-65285750D01*
X116276250Y-65127000D01*
X115127000Y-65127000D01*
X114873000Y-65127000D01*
X113723750Y-65127000D01*
X113565000Y-65285750D01*
X105635001Y-65285750D01*
X105635001Y-64247782D01*
X105657236Y-64135999D01*
X105644843Y-64073690D01*
X113565000Y-64073690D01*
X113565000Y-64714250D01*
X113723750Y-64873000D01*
X114873000Y-64873000D01*
X114873000Y-63723750D01*
X115127000Y-63723750D01*
X115127000Y-64873000D01*
X116276250Y-64873000D01*
X116435000Y-64714250D01*
X116435000Y-64073690D01*
X116338327Y-63840301D01*
X116159698Y-63661673D01*
X115926309Y-63565000D01*
X115285750Y-63565000D01*
X115127000Y-63723750D01*
X114873000Y-63723750D01*
X114714250Y-63565000D01*
X114073691Y-63565000D01*
X113840302Y-63661673D01*
X113661673Y-63840301D01*
X113565000Y-64073690D01*
X105644843Y-64073690D01*
X105569147Y-63693144D01*
X105535544Y-63642854D01*
X105318290Y-63317710D01*
X105223522Y-63254388D01*
X104804122Y-62834989D01*
X120258488Y-62834989D01*
X125687019Y-68263521D01*
X125750341Y-68358289D01*
X126074039Y-68574577D01*
X126125775Y-68609146D01*
X126568630Y-68697235D01*
X126680413Y-68675000D01*
X126815717Y-68675000D01*
X127017758Y-68810000D01*
X126665423Y-69045423D01*
X126348260Y-69520091D01*
X126236887Y-70080000D01*
X126348260Y-70639909D01*
X126565000Y-70964284D01*
X126565001Y-71735716D01*
X126348260Y-72060091D01*
X126236887Y-72620000D01*
X126348260Y-73179909D01*
X126665423Y-73654577D01*
X127049108Y-73910947D01*
X126844866Y-74007611D01*
X126468959Y-74422577D01*
X126308096Y-74810961D01*
X126430085Y-75033000D01*
X127573000Y-75033000D01*
X127573000Y-75013000D01*
X127827000Y-75013000D01*
X127827000Y-75033000D01*
X128969915Y-75033000D01*
X129091904Y-74810961D01*
X128931041Y-74422577D01*
X128555134Y-74007611D01*
X128350892Y-73910947D01*
X128734577Y-73654577D01*
X129051740Y-73179909D01*
X129163113Y-72620000D01*
X129051740Y-72060091D01*
X128835000Y-71735717D01*
X128835000Y-70964283D01*
X129051740Y-70639909D01*
X129103439Y-70380000D01*
X132485908Y-70380000D01*
X132601161Y-70959418D01*
X132929375Y-71450625D01*
X133227761Y-71650000D01*
X132929375Y-71849375D01*
X132601161Y-72340582D01*
X132485908Y-72920000D01*
X132601161Y-73499418D01*
X132929375Y-73990625D01*
X133227761Y-74190000D01*
X132929375Y-74389375D01*
X132601161Y-74880582D01*
X132485908Y-75460000D01*
X132601161Y-76039418D01*
X132929375Y-76530625D01*
X132947619Y-76542816D01*
X132902235Y-76551843D01*
X132692191Y-76692191D01*
X132551843Y-76902235D01*
X132502560Y-77150000D01*
X132502560Y-78850000D01*
X132551843Y-79097765D01*
X132692191Y-79307809D01*
X132902235Y-79448157D01*
X133150000Y-79497440D01*
X134850000Y-79497440D01*
X135097765Y-79448157D01*
X135307809Y-79307809D01*
X135448157Y-79097765D01*
X135497440Y-78850000D01*
X135497440Y-78835000D01*
X139115717Y-78835000D01*
X139349108Y-78990947D01*
X139144866Y-79087611D01*
X138768959Y-79502577D01*
X138608096Y-79890961D01*
X138730085Y-80113000D01*
X139873000Y-80113000D01*
X139873000Y-80093000D01*
X140127000Y-80093000D01*
X140127000Y-80113000D01*
X141269915Y-80113000D01*
X141391904Y-79890961D01*
X141231041Y-79502577D01*
X140855134Y-79087611D01*
X140650892Y-78990947D01*
X141034577Y-78734577D01*
X141351740Y-78259909D01*
X141393684Y-78049039D01*
X151308096Y-78049039D01*
X151468959Y-78437423D01*
X151844866Y-78852389D01*
X152093367Y-78970000D01*
X151844866Y-79087611D01*
X151468959Y-79502577D01*
X151308096Y-79890961D01*
X151430085Y-80113000D01*
X152573000Y-80113000D01*
X152573000Y-77827000D01*
X152827000Y-77827000D01*
X152827000Y-80113000D01*
X153969915Y-80113000D01*
X154091904Y-79890961D01*
X153931041Y-79502577D01*
X153555134Y-79087611D01*
X153306633Y-78970000D01*
X153555134Y-78852389D01*
X153931041Y-78437423D01*
X154091904Y-78049039D01*
X153969915Y-77827000D01*
X152827000Y-77827000D01*
X152573000Y-77827000D01*
X151430085Y-77827000D01*
X151308096Y-78049039D01*
X141393684Y-78049039D01*
X141463113Y-77700000D01*
X141351740Y-77140091D01*
X141034577Y-76665423D01*
X140682242Y-76430000D01*
X141034577Y-76194577D01*
X141351740Y-75719909D01*
X141393684Y-75509039D01*
X151308096Y-75509039D01*
X151468959Y-75897423D01*
X151844866Y-76312389D01*
X152093367Y-76430000D01*
X151844866Y-76547611D01*
X151468959Y-76962577D01*
X151308096Y-77350961D01*
X151430085Y-77573000D01*
X152573000Y-77573000D01*
X152573000Y-75287000D01*
X152827000Y-75287000D01*
X152827000Y-77573000D01*
X153969915Y-77573000D01*
X154091904Y-77350961D01*
X153931041Y-76962577D01*
X153555134Y-76547611D01*
X153306633Y-76430000D01*
X153555134Y-76312389D01*
X153931041Y-75897423D01*
X154091904Y-75509039D01*
X153969915Y-75287000D01*
X152827000Y-75287000D01*
X152573000Y-75287000D01*
X151430085Y-75287000D01*
X151308096Y-75509039D01*
X141393684Y-75509039D01*
X141463113Y-75160000D01*
X141351740Y-74600091D01*
X141034577Y-74125423D01*
X140682242Y-73890000D01*
X141034577Y-73654577D01*
X141351740Y-73179909D01*
X141463113Y-72620000D01*
X141351740Y-72060091D01*
X141034577Y-71585423D01*
X140682242Y-71350000D01*
X141034577Y-71114577D01*
X141351740Y-70639909D01*
X141463113Y-70080000D01*
X141351740Y-69520091D01*
X141034577Y-69045423D01*
X140650892Y-68789053D01*
X140855134Y-68692389D01*
X141231041Y-68277423D01*
X141391904Y-67889039D01*
X141269915Y-67667000D01*
X140127000Y-67667000D01*
X140127000Y-67687000D01*
X139873000Y-67687000D01*
X139873000Y-67667000D01*
X138730085Y-67667000D01*
X138608096Y-67889039D01*
X138768959Y-68277423D01*
X139144866Y-68692389D01*
X139349108Y-68789053D01*
X138965423Y-69045423D01*
X138832070Y-69245000D01*
X134974281Y-69245000D01*
X134579418Y-68981161D01*
X134146256Y-68895000D01*
X133853744Y-68895000D01*
X133420582Y-68981161D01*
X132929375Y-69309375D01*
X132601161Y-69800582D01*
X132485908Y-70380000D01*
X129103439Y-70380000D01*
X129163113Y-70080000D01*
X129051740Y-69520091D01*
X128734577Y-69045423D01*
X128382242Y-68810000D01*
X128734577Y-68574577D01*
X129051740Y-68099909D01*
X129163113Y-67540000D01*
X129051740Y-66980091D01*
X128734577Y-66505423D01*
X128382242Y-66270000D01*
X128734577Y-66034577D01*
X129051740Y-65559909D01*
X129106273Y-65285750D01*
X138565000Y-65285750D01*
X138565000Y-65926310D01*
X138661673Y-66159699D01*
X138840302Y-66338327D01*
X139073691Y-66435000D01*
X139101938Y-66435000D01*
X138768959Y-66802577D01*
X138608096Y-67190961D01*
X138730085Y-67413000D01*
X139873000Y-67413000D01*
X139873000Y-65127000D01*
X140127000Y-65127000D01*
X140127000Y-67413000D01*
X141269915Y-67413000D01*
X141391904Y-67190961D01*
X141231041Y-66802577D01*
X140898062Y-66435000D01*
X140926309Y-66435000D01*
X141159698Y-66338327D01*
X141338327Y-66159699D01*
X141435000Y-65926310D01*
X141435000Y-65285750D01*
X141276250Y-65127000D01*
X140127000Y-65127000D01*
X139873000Y-65127000D01*
X138723750Y-65127000D01*
X138565000Y-65285750D01*
X129106273Y-65285750D01*
X129163113Y-65000000D01*
X129051740Y-64440091D01*
X128806919Y-64073690D01*
X138565000Y-64073690D01*
X138565000Y-64714250D01*
X138723750Y-64873000D01*
X139873000Y-64873000D01*
X139873000Y-63723750D01*
X140127000Y-63723750D01*
X140127000Y-64873000D01*
X141276250Y-64873000D01*
X141435000Y-64714250D01*
X141435000Y-64073690D01*
X141338327Y-63840301D01*
X141159698Y-63661673D01*
X140926309Y-63565000D01*
X140285750Y-63565000D01*
X140127000Y-63723750D01*
X139873000Y-63723750D01*
X139714250Y-63565000D01*
X139073691Y-63565000D01*
X138840302Y-63661673D01*
X138661673Y-63840301D01*
X138565000Y-64073690D01*
X128806919Y-64073690D01*
X128734577Y-63965423D01*
X128259909Y-63648260D01*
X127877283Y-63572151D01*
X124140100Y-59834969D01*
X139229838Y-59834969D01*
X147658389Y-68263521D01*
X147721711Y-68358289D01*
X148045409Y-68574577D01*
X148097145Y-68609146D01*
X148540000Y-68697235D01*
X148651783Y-68675000D01*
X151815717Y-68675000D01*
X152017758Y-68810000D01*
X151665423Y-69045423D01*
X151348260Y-69520091D01*
X151236887Y-70080000D01*
X151348260Y-70639909D01*
X151565000Y-70964284D01*
X151565001Y-71735716D01*
X151348260Y-72060091D01*
X151236887Y-72620000D01*
X151348260Y-73179909D01*
X151665423Y-73654577D01*
X152049108Y-73910947D01*
X151844866Y-74007611D01*
X151468959Y-74422577D01*
X151308096Y-74810961D01*
X151430085Y-75033000D01*
X152573000Y-75033000D01*
X152573000Y-75013000D01*
X152827000Y-75013000D01*
X152827000Y-75033000D01*
X153969915Y-75033000D01*
X154091904Y-74810961D01*
X153931041Y-74422577D01*
X153555134Y-74007611D01*
X153350892Y-73910947D01*
X153734577Y-73654577D01*
X154051740Y-73179909D01*
X154163113Y-72620000D01*
X154051740Y-72060091D01*
X153835000Y-71735717D01*
X153835000Y-70964283D01*
X154051740Y-70639909D01*
X154163113Y-70080000D01*
X154051740Y-69520091D01*
X153734577Y-69045423D01*
X153382242Y-68810000D01*
X153734577Y-68574577D01*
X154051740Y-68099909D01*
X154163113Y-67540000D01*
X154051740Y-66980091D01*
X153734577Y-66505423D01*
X153382242Y-66270000D01*
X153734577Y-66034577D01*
X154051740Y-65559909D01*
X154163113Y-65000000D01*
X154051740Y-64440091D01*
X153734577Y-63965423D01*
X153259909Y-63648260D01*
X152877282Y-63572151D01*
X152781611Y-63476480D01*
X152781609Y-63476477D01*
X147306147Y-58001016D01*
X155340001Y-58117448D01*
X155340001Y-80868655D01*
X153979797Y-80859707D01*
X154091904Y-80589039D01*
X153969915Y-80367000D01*
X152827000Y-80367000D01*
X152827000Y-80387000D01*
X152573000Y-80387000D01*
X152573000Y-80367000D01*
X151430085Y-80367000D01*
X151308096Y-80589039D01*
X151413209Y-80842821D01*
X141314310Y-80776381D01*
X141391904Y-80589039D01*
X141269915Y-80367000D01*
X140127000Y-80367000D01*
X140127000Y-80387000D01*
X139873000Y-80387000D01*
X139873000Y-80367000D01*
X138730085Y-80367000D01*
X138608096Y-80589039D01*
X138678508Y-80759040D01*
X129047735Y-80695680D01*
X129091904Y-80589039D01*
X128969915Y-80367000D01*
X127827000Y-80367000D01*
X127827000Y-80387000D01*
X127573000Y-80387000D01*
X127573000Y-80367000D01*
X126430085Y-80367000D01*
X126308096Y-80589039D01*
X126344900Y-80677898D01*
X116382247Y-80612354D01*
X116391904Y-80589039D01*
X116269915Y-80367000D01*
X115127000Y-80367000D01*
X115127000Y-80387000D01*
X114873000Y-80387000D01*
X114873000Y-80367000D01*
X113730085Y-80367000D01*
X113608096Y-80589039D01*
X113610199Y-80594117D01*
X104060175Y-80531288D01*
X103969915Y-80367000D01*
X102827000Y-80367000D01*
X102827000Y-80387000D01*
X102573000Y-80387000D01*
X102573000Y-80367000D01*
X101430085Y-80367000D01*
X101349622Y-80513456D01*
X91314105Y-80447432D01*
X91269915Y-80367000D01*
X90127000Y-80367000D01*
X90127000Y-80387000D01*
X89873000Y-80387000D01*
X89873000Y-80367000D01*
X88730085Y-80367000D01*
X88695361Y-80430204D01*
X52135000Y-80189675D01*
X52135000Y-80112998D01*
X51969916Y-80112998D01*
X52091904Y-79890961D01*
X51931041Y-79502577D01*
X51555134Y-79087611D01*
X51306633Y-78970000D01*
X51555134Y-78852389D01*
X51931041Y-78437423D01*
X52091904Y-78049039D01*
X51969915Y-77827000D01*
X50827000Y-77827000D01*
X50827000Y-80113000D01*
X50847000Y-80113000D01*
X50847000Y-80181201D01*
X50553000Y-80179267D01*
X50553000Y-80113000D01*
X50573000Y-80113000D01*
X50573000Y-77827000D01*
X49430085Y-77827000D01*
X49308096Y-78049039D01*
X49468959Y-78437423D01*
X49844866Y-78852389D01*
X50093367Y-78970000D01*
X49844866Y-79087611D01*
X49468959Y-79502577D01*
X49308096Y-79890961D01*
X49430084Y-80112998D01*
X49265000Y-80112998D01*
X49265000Y-80170794D01*
X39274274Y-80105065D01*
X39391904Y-79890961D01*
X39231041Y-79502577D01*
X38855134Y-79087611D01*
X38650892Y-78990947D01*
X39034577Y-78734577D01*
X39351740Y-78259909D01*
X39463113Y-77700000D01*
X39351740Y-77140091D01*
X39034577Y-76665423D01*
X38682242Y-76430000D01*
X39034577Y-76194577D01*
X39351740Y-75719909D01*
X39393684Y-75509039D01*
X49308096Y-75509039D01*
X49468959Y-75897423D01*
X49844866Y-76312389D01*
X50093367Y-76430000D01*
X49844866Y-76547611D01*
X49468959Y-76962577D01*
X49308096Y-77350961D01*
X49430085Y-77573000D01*
X50573000Y-77573000D01*
X50573000Y-75287000D01*
X50827000Y-75287000D01*
X50827000Y-77573000D01*
X51969915Y-77573000D01*
X52091904Y-77350961D01*
X51931041Y-76962577D01*
X51555134Y-76547611D01*
X51306633Y-76430000D01*
X51555134Y-76312389D01*
X51931041Y-75897423D01*
X52091904Y-75509039D01*
X51969915Y-75287000D01*
X50827000Y-75287000D01*
X50573000Y-75287000D01*
X49430085Y-75287000D01*
X49308096Y-75509039D01*
X39393684Y-75509039D01*
X39463113Y-75160000D01*
X39351740Y-74600091D01*
X39034577Y-74125423D01*
X38682242Y-73890000D01*
X39034577Y-73654577D01*
X39351740Y-73179909D01*
X39463113Y-72620000D01*
X39351740Y-72060091D01*
X39034577Y-71585423D01*
X38682242Y-71350000D01*
X39034577Y-71114577D01*
X39351740Y-70639909D01*
X39463113Y-70080000D01*
X39351740Y-69520091D01*
X39034577Y-69045423D01*
X38650892Y-68789053D01*
X38855134Y-68692389D01*
X39231041Y-68277423D01*
X39391904Y-67889039D01*
X39269915Y-67667000D01*
X38127000Y-67667000D01*
X38127000Y-67687000D01*
X37873000Y-67687000D01*
X37873000Y-67667000D01*
X36730085Y-67667000D01*
X36608096Y-67889039D01*
X36768959Y-68277423D01*
X37144866Y-68692389D01*
X37349108Y-68789053D01*
X36965423Y-69045423D01*
X36832070Y-69245000D01*
X32974281Y-69245000D01*
X32579418Y-68981161D01*
X32146256Y-68895000D01*
X31853744Y-68895000D01*
X31420582Y-68981161D01*
X30929375Y-69309375D01*
X30601161Y-69800582D01*
X30485908Y-70380000D01*
X30601161Y-70959418D01*
X30929375Y-71450625D01*
X31227761Y-71650000D01*
X30929375Y-71849375D01*
X30601161Y-72340582D01*
X30485908Y-72920000D01*
X30601161Y-73499418D01*
X30929375Y-73990625D01*
X31227761Y-74190000D01*
X30929375Y-74389375D01*
X30601161Y-74880582D01*
X30485908Y-75460000D01*
X30601161Y-76039418D01*
X30929375Y-76530625D01*
X30947619Y-76542816D01*
X30902235Y-76551843D01*
X30692191Y-76692191D01*
X30551843Y-76902235D01*
X30502560Y-77150000D01*
X30502560Y-78850000D01*
X30551843Y-79097765D01*
X30692191Y-79307809D01*
X30902235Y-79448157D01*
X31150000Y-79497440D01*
X32850000Y-79497440D01*
X33097765Y-79448157D01*
X33307809Y-79307809D01*
X33448157Y-79097765D01*
X33497440Y-78850000D01*
X33497440Y-78835000D01*
X37115717Y-78835000D01*
X37349108Y-78990947D01*
X37144866Y-79087611D01*
X36768959Y-79502577D01*
X36608096Y-79890961D01*
X36716480Y-80088237D01*
X25025776Y-80011325D01*
X25091904Y-79890961D01*
X24931041Y-79502577D01*
X24555134Y-79087611D01*
X24306633Y-78970000D01*
X24555134Y-78852389D01*
X24931041Y-78437423D01*
X25091904Y-78049039D01*
X24969915Y-77827000D01*
X23827000Y-77827000D01*
X23827000Y-80003438D01*
X23573000Y-80001767D01*
X23573000Y-77827000D01*
X22430085Y-77827000D01*
X22308096Y-78049039D01*
X22468959Y-78437423D01*
X22844866Y-78852389D01*
X23093367Y-78970000D01*
X22844866Y-79087611D01*
X22468959Y-79502577D01*
X22308096Y-79890961D01*
X22364606Y-79993817D01*
X12371514Y-79928073D01*
X12391904Y-79890961D01*
X12231041Y-79502577D01*
X11855134Y-79087611D01*
X11650892Y-78990947D01*
X12034577Y-78734577D01*
X12351740Y-78259909D01*
X12463113Y-77700000D01*
X12351740Y-77140091D01*
X12034577Y-76665423D01*
X11682242Y-76430000D01*
X12034577Y-76194577D01*
X12351740Y-75719909D01*
X12393684Y-75509039D01*
X22308096Y-75509039D01*
X22468959Y-75897423D01*
X22844866Y-76312389D01*
X23093367Y-76430000D01*
X22844866Y-76547611D01*
X22468959Y-76962577D01*
X22308096Y-77350961D01*
X22430085Y-77573000D01*
X23573000Y-77573000D01*
X23573000Y-75287000D01*
X23827000Y-75287000D01*
X23827000Y-77573000D01*
X24969915Y-77573000D01*
X25091904Y-77350961D01*
X24931041Y-76962577D01*
X24555134Y-76547611D01*
X24306633Y-76430000D01*
X24555134Y-76312389D01*
X24931041Y-75897423D01*
X25091904Y-75509039D01*
X24969915Y-75287000D01*
X23827000Y-75287000D01*
X23573000Y-75287000D01*
X22430085Y-75287000D01*
X22308096Y-75509039D01*
X12393684Y-75509039D01*
X12463113Y-75160000D01*
X12351740Y-74600091D01*
X12034577Y-74125423D01*
X11682242Y-73890000D01*
X12034577Y-73654577D01*
X12351740Y-73179909D01*
X12463113Y-72620000D01*
X12351740Y-72060091D01*
X12034577Y-71585423D01*
X11682242Y-71350000D01*
X12034577Y-71114577D01*
X12351740Y-70639909D01*
X12463113Y-70080000D01*
X12351740Y-69520091D01*
X12034577Y-69045423D01*
X11650892Y-68789053D01*
X11855134Y-68692389D01*
X12231041Y-68277423D01*
X12391904Y-67889039D01*
X12269915Y-67667000D01*
X11127000Y-67667000D01*
X11127000Y-67687000D01*
X10873000Y-67687000D01*
X10873000Y-67667000D01*
X9730085Y-67667000D01*
X9608096Y-67889039D01*
X9768959Y-68277423D01*
X10144866Y-68692389D01*
X10349108Y-68789053D01*
X9965423Y-69045423D01*
X9832070Y-69245000D01*
X5974281Y-69245000D01*
X5579418Y-68981161D01*
X5146256Y-68895000D01*
X4853744Y-68895000D01*
X4420582Y-68981161D01*
X4134999Y-69171981D01*
X4134999Y-65285750D01*
X9565000Y-65285750D01*
X9565000Y-65926310D01*
X9661673Y-66159699D01*
X9840302Y-66338327D01*
X10073691Y-66435000D01*
X10101938Y-66435000D01*
X9768959Y-66802577D01*
X9608096Y-67190961D01*
X9730085Y-67413000D01*
X10873000Y-67413000D01*
X10873000Y-65127000D01*
X11127000Y-65127000D01*
X11127000Y-67413000D01*
X12269915Y-67413000D01*
X12391904Y-67190961D01*
X12231041Y-66802577D01*
X11898062Y-66435000D01*
X11926309Y-66435000D01*
X12159698Y-66338327D01*
X12338327Y-66159699D01*
X12435000Y-65926310D01*
X12435000Y-65285750D01*
X12276250Y-65127000D01*
X11127000Y-65127000D01*
X10873000Y-65127000D01*
X9723750Y-65127000D01*
X9565000Y-65285750D01*
X4134999Y-65285750D01*
X4134999Y-64073690D01*
X9565000Y-64073690D01*
X9565000Y-64714250D01*
X9723750Y-64873000D01*
X10873000Y-64873000D01*
X10873000Y-63723750D01*
X11127000Y-63723750D01*
X11127000Y-64873000D01*
X12276250Y-64873000D01*
X12435000Y-64714250D01*
X12435000Y-64073690D01*
X12338327Y-63840301D01*
X12159698Y-63661673D01*
X11926309Y-63565000D01*
X11285750Y-63565000D01*
X11127000Y-63723750D01*
X10873000Y-63723750D01*
X10714250Y-63565000D01*
X10073691Y-63565000D01*
X9840302Y-63661673D01*
X9661673Y-63840301D01*
X9565000Y-64073690D01*
X4134999Y-64073690D01*
X4134999Y-59635000D01*
X6714250Y-59635000D01*
X6873000Y-59476250D01*
X6873000Y-58127000D01*
X7127000Y-58127000D01*
X7127000Y-59476250D01*
X7285750Y-59635000D01*
X10126310Y-59635000D01*
X10359699Y-59538327D01*
X10538327Y-59359698D01*
X10635000Y-59126309D01*
X10635000Y-58285750D01*
X13865000Y-58285750D01*
X13865000Y-59126309D01*
X13961673Y-59359698D01*
X14140301Y-59538327D01*
X14373690Y-59635000D01*
X15964250Y-59635000D01*
X16123000Y-59476250D01*
X16123000Y-58127000D01*
X16377000Y-58127000D01*
X16377000Y-59476250D01*
X16535750Y-59635000D01*
X18126310Y-59635000D01*
X18359699Y-59538327D01*
X18538327Y-59359698D01*
X18635000Y-59126309D01*
X18635000Y-58285750D01*
X18476250Y-58127000D01*
X16377000Y-58127000D01*
X16123000Y-58127000D01*
X14023750Y-58127000D01*
X13865000Y-58285750D01*
X10635000Y-58285750D01*
X10476250Y-58127000D01*
X7127000Y-58127000D01*
X6873000Y-58127000D01*
X6853000Y-58127000D01*
X6853000Y-57873000D01*
X6873000Y-57873000D01*
X6873000Y-56523750D01*
X7127000Y-56523750D01*
X7127000Y-57873000D01*
X10476250Y-57873000D01*
X10635000Y-57714250D01*
X10635000Y-56873691D01*
X13865000Y-56873691D01*
X13865000Y-57714250D01*
X14023750Y-57873000D01*
X16123000Y-57873000D01*
X16123000Y-56523750D01*
X16377000Y-56523750D01*
X16377000Y-57873000D01*
X18476250Y-57873000D01*
X18635000Y-57714250D01*
X18635000Y-57285750D01*
X23515000Y-57285750D01*
X23515000Y-57976310D01*
X23611673Y-58209699D01*
X23790302Y-58388327D01*
X24023691Y-58485000D01*
X24714250Y-58485000D01*
X24873000Y-58326250D01*
X24873000Y-57127000D01*
X25127000Y-57127000D01*
X25127000Y-58326250D01*
X25285750Y-58485000D01*
X25976309Y-58485000D01*
X26209698Y-58388327D01*
X26388327Y-58209699D01*
X26485000Y-57976310D01*
X26485000Y-57285750D01*
X26326250Y-57127000D01*
X25127000Y-57127000D01*
X24873000Y-57127000D01*
X23673750Y-57127000D01*
X23515000Y-57285750D01*
X18635000Y-57285750D01*
X18635000Y-56873691D01*
X18538327Y-56640302D01*
X18359699Y-56461673D01*
X18126310Y-56365000D01*
X16535750Y-56365000D01*
X16377000Y-56523750D01*
X16123000Y-56523750D01*
X15964250Y-56365000D01*
X14373690Y-56365000D01*
X14140301Y-56461673D01*
X13961673Y-56640302D01*
X13865000Y-56873691D01*
X10635000Y-56873691D01*
X10538327Y-56640302D01*
X10359699Y-56461673D01*
X10126310Y-56365000D01*
X7285750Y-56365000D01*
X7127000Y-56523750D01*
X6873000Y-56523750D01*
X6714250Y-56365000D01*
X4240131Y-56365000D01*
X4478131Y-56127000D01*
X17999057Y-56127000D01*
X23515000Y-56206941D01*
X23515000Y-56206941D01*
G37*
X23515000Y-56206941D02*
X23515000Y-56714250D01*
X23673750Y-56873000D01*
X24873000Y-56873000D01*
X24873000Y-56853000D01*
X25127000Y-56853000D01*
X25127000Y-56873000D01*
X26326250Y-56873000D01*
X26485000Y-56714250D01*
X26485000Y-56249985D01*
X30939176Y-56314538D01*
X30857144Y-56330855D01*
X30481710Y-56581712D01*
X30418388Y-56676480D01*
X23522718Y-63572151D01*
X23140091Y-63648260D01*
X22665423Y-63965423D01*
X22348260Y-64440091D01*
X22236887Y-65000000D01*
X22348260Y-65559909D01*
X22665423Y-66034577D01*
X23017758Y-66270000D01*
X22665423Y-66505423D01*
X22348260Y-66980091D01*
X22236887Y-67540000D01*
X22348260Y-68099909D01*
X22665423Y-68574577D01*
X23017758Y-68810000D01*
X22665423Y-69045423D01*
X22348260Y-69520091D01*
X22236887Y-70080000D01*
X22348260Y-70639909D01*
X22565000Y-70964284D01*
X22565001Y-71735716D01*
X22348260Y-72060091D01*
X22236887Y-72620000D01*
X22348260Y-73179909D01*
X22665423Y-73654577D01*
X23049108Y-73910947D01*
X22844866Y-74007611D01*
X22468959Y-74422577D01*
X22308096Y-74810961D01*
X22430085Y-75033000D01*
X23573000Y-75033000D01*
X23573000Y-75013000D01*
X23827000Y-75013000D01*
X23827000Y-75033000D01*
X24969915Y-75033000D01*
X25091904Y-74810961D01*
X24931041Y-74422577D01*
X24555134Y-74007611D01*
X24350892Y-73910947D01*
X24734577Y-73654577D01*
X25051740Y-73179909D01*
X25163113Y-72620000D01*
X25051740Y-72060091D01*
X24835000Y-71735717D01*
X24835000Y-70964283D01*
X25051740Y-70639909D01*
X25163113Y-70080000D01*
X25051740Y-69520091D01*
X24734577Y-69045423D01*
X24382242Y-68810000D01*
X24734577Y-68574577D01*
X25051740Y-68099909D01*
X25096477Y-67875001D01*
X25148216Y-67875001D01*
X25259999Y-67897236D01*
X25371782Y-67875001D01*
X25702854Y-67809147D01*
X26078288Y-67558290D01*
X26141612Y-67463519D01*
X28319381Y-65285750D01*
X36565000Y-65285750D01*
X36565000Y-65926310D01*
X36661673Y-66159699D01*
X36840302Y-66338327D01*
X37073691Y-66435000D01*
X37101938Y-66435000D01*
X36768959Y-66802577D01*
X36608096Y-67190961D01*
X36730085Y-67413000D01*
X37873000Y-67413000D01*
X37873000Y-65127000D01*
X38127000Y-65127000D01*
X38127000Y-67413000D01*
X39269915Y-67413000D01*
X39391904Y-67190961D01*
X39231041Y-66802577D01*
X38898062Y-66435000D01*
X38926309Y-66435000D01*
X39159698Y-66338327D01*
X39338327Y-66159699D01*
X39435000Y-65926310D01*
X39435000Y-65285750D01*
X39276250Y-65127000D01*
X38127000Y-65127000D01*
X37873000Y-65127000D01*
X36723750Y-65127000D01*
X36565000Y-65285750D01*
X28319381Y-65285750D01*
X29531441Y-64073690D01*
X36565000Y-64073690D01*
X36565000Y-64714250D01*
X36723750Y-64873000D01*
X37873000Y-64873000D01*
X37873000Y-63723750D01*
X38127000Y-63723750D01*
X38127000Y-64873000D01*
X39276250Y-64873000D01*
X39435000Y-64714250D01*
X39435000Y-64073690D01*
X39338327Y-63840301D01*
X39159698Y-63661673D01*
X38926309Y-63565000D01*
X38285750Y-63565000D01*
X38127000Y-63723750D01*
X37873000Y-63723750D01*
X37714250Y-63565000D01*
X37073691Y-63565000D01*
X36840302Y-63661673D01*
X36661673Y-63840301D01*
X36565000Y-64073690D01*
X29531441Y-64073690D01*
X33570121Y-60035011D01*
X54059857Y-60035010D01*
X50522718Y-63572151D01*
X50140091Y-63648260D01*
X49665423Y-63965423D01*
X49348260Y-64440091D01*
X49236887Y-65000000D01*
X49348260Y-65559909D01*
X49665423Y-66034577D01*
X50017758Y-66270000D01*
X49665423Y-66505423D01*
X49348260Y-66980091D01*
X49236887Y-67540000D01*
X49348260Y-68099909D01*
X49665423Y-68574577D01*
X50017758Y-68810000D01*
X49665423Y-69045423D01*
X49348260Y-69520091D01*
X49236887Y-70080000D01*
X49348260Y-70639909D01*
X49565000Y-70964284D01*
X49565001Y-71735716D01*
X49348260Y-72060091D01*
X49236887Y-72620000D01*
X49348260Y-73179909D01*
X49665423Y-73654577D01*
X50049108Y-73910947D01*
X49844866Y-74007611D01*
X49468959Y-74422577D01*
X49308096Y-74810961D01*
X49430085Y-75033000D01*
X50573000Y-75033000D01*
X50573000Y-75013000D01*
X50827000Y-75013000D01*
X50827000Y-75033000D01*
X51969915Y-75033000D01*
X52091904Y-74810961D01*
X51931041Y-74422577D01*
X51555134Y-74007611D01*
X51350892Y-73910947D01*
X51734577Y-73654577D01*
X52051740Y-73179909D01*
X52163113Y-72620000D01*
X52051740Y-72060091D01*
X51835000Y-71735717D01*
X51835000Y-70964283D01*
X52051740Y-70639909D01*
X52103439Y-70380000D01*
X56485908Y-70380000D01*
X56601161Y-70959418D01*
X56929375Y-71450625D01*
X57227761Y-71650000D01*
X56929375Y-71849375D01*
X56601161Y-72340582D01*
X56485908Y-72920000D01*
X56601161Y-73499418D01*
X56929375Y-73990625D01*
X57227761Y-74190000D01*
X56929375Y-74389375D01*
X56601161Y-74880582D01*
X56485908Y-75460000D01*
X56601161Y-76039418D01*
X56929375Y-76530625D01*
X56947619Y-76542816D01*
X56902235Y-76551843D01*
X56692191Y-76692191D01*
X56551843Y-76902235D01*
X56502560Y-77150000D01*
X56502560Y-78850000D01*
X56551843Y-79097765D01*
X56692191Y-79307809D01*
X56902235Y-79448157D01*
X57150000Y-79497440D01*
X58850000Y-79497440D01*
X59097765Y-79448157D01*
X59307809Y-79307809D01*
X59448157Y-79097765D01*
X59497440Y-78850000D01*
X59497440Y-78835000D01*
X63115717Y-78835000D01*
X63349108Y-78990947D01*
X63144866Y-79087611D01*
X62768959Y-79502577D01*
X62608096Y-79890961D01*
X62730085Y-80113000D01*
X63873000Y-80113000D01*
X63873000Y-80093000D01*
X64127000Y-80093000D01*
X64127000Y-80113000D01*
X65269915Y-80113000D01*
X65391904Y-79890961D01*
X65231041Y-79502577D01*
X64855134Y-79087611D01*
X64650892Y-78990947D01*
X65034577Y-78734577D01*
X65351740Y-78259909D01*
X65393684Y-78049039D01*
X75308096Y-78049039D01*
X75468959Y-78437423D01*
X75844866Y-78852389D01*
X76093367Y-78970000D01*
X75844866Y-79087611D01*
X75468959Y-79502577D01*
X75308096Y-79890961D01*
X75430085Y-80113000D01*
X76573000Y-80113000D01*
X76573000Y-77827000D01*
X76827000Y-77827000D01*
X76827000Y-80113000D01*
X77969915Y-80113000D01*
X78091904Y-79890961D01*
X77931041Y-79502577D01*
X77555134Y-79087611D01*
X77306633Y-78970000D01*
X77555134Y-78852389D01*
X77931041Y-78437423D01*
X78091904Y-78049039D01*
X77969915Y-77827000D01*
X76827000Y-77827000D01*
X76573000Y-77827000D01*
X75430085Y-77827000D01*
X75308096Y-78049039D01*
X65393684Y-78049039D01*
X65463113Y-77700000D01*
X65351740Y-77140091D01*
X65034577Y-76665423D01*
X64682242Y-76430000D01*
X65034577Y-76194577D01*
X65351740Y-75719909D01*
X65393684Y-75509039D01*
X75308096Y-75509039D01*
X75468959Y-75897423D01*
X75844866Y-76312389D01*
X76093367Y-76430000D01*
X75844866Y-76547611D01*
X75468959Y-76962577D01*
X75308096Y-77350961D01*
X75430085Y-77573000D01*
X76573000Y-77573000D01*
X76573000Y-75287000D01*
X76827000Y-75287000D01*
X76827000Y-77573000D01*
X77969915Y-77573000D01*
X78091904Y-77350961D01*
X77931041Y-76962577D01*
X77555134Y-76547611D01*
X77306633Y-76430000D01*
X77555134Y-76312389D01*
X77931041Y-75897423D01*
X78091904Y-75509039D01*
X77969915Y-75287000D01*
X76827000Y-75287000D01*
X76573000Y-75287000D01*
X75430085Y-75287000D01*
X75308096Y-75509039D01*
X65393684Y-75509039D01*
X65463113Y-75160000D01*
X65351740Y-74600091D01*
X65034577Y-74125423D01*
X64682242Y-73890000D01*
X65034577Y-73654577D01*
X65351740Y-73179909D01*
X65463113Y-72620000D01*
X65351740Y-72060091D01*
X65034577Y-71585423D01*
X64682242Y-71350000D01*
X65034577Y-71114577D01*
X65351740Y-70639909D01*
X65463113Y-70080000D01*
X65351740Y-69520091D01*
X65034577Y-69045423D01*
X64650892Y-68789053D01*
X64855134Y-68692389D01*
X65231041Y-68277423D01*
X65391904Y-67889039D01*
X65269915Y-67667000D01*
X64127000Y-67667000D01*
X64127000Y-67687000D01*
X63873000Y-67687000D01*
X63873000Y-67667000D01*
X62730085Y-67667000D01*
X62608096Y-67889039D01*
X62768959Y-68277423D01*
X63144866Y-68692389D01*
X63349108Y-68789053D01*
X63115717Y-68945000D01*
X62980413Y-68945000D01*
X62868630Y-68922765D01*
X62756847Y-68945000D01*
X62425775Y-69010854D01*
X62075351Y-69245000D01*
X58974281Y-69245000D01*
X58579418Y-68981161D01*
X58146256Y-68895000D01*
X57853744Y-68895000D01*
X57420582Y-68981161D01*
X56929375Y-69309375D01*
X56601161Y-69800582D01*
X56485908Y-70380000D01*
X52103439Y-70380000D01*
X52163113Y-70080000D01*
X52051740Y-69520091D01*
X51734577Y-69045423D01*
X51382242Y-68810000D01*
X51734577Y-68574577D01*
X52051740Y-68099909D01*
X52116124Y-67776227D01*
X52442290Y-67558290D01*
X52505614Y-67463519D01*
X54683383Y-65285750D01*
X62565000Y-65285750D01*
X62565000Y-65926310D01*
X62661673Y-66159699D01*
X62840302Y-66338327D01*
X63073691Y-66435000D01*
X63101938Y-66435000D01*
X62768959Y-66802577D01*
X62608096Y-67190961D01*
X62730085Y-67413000D01*
X63873000Y-67413000D01*
X63873000Y-65127000D01*
X64127000Y-65127000D01*
X64127000Y-67413000D01*
X65269915Y-67413000D01*
X65391904Y-67190961D01*
X65231041Y-66802577D01*
X64898062Y-66435000D01*
X64926309Y-66435000D01*
X65159698Y-66338327D01*
X65338327Y-66159699D01*
X65435000Y-65926310D01*
X65435000Y-65285750D01*
X65276250Y-65127000D01*
X64127000Y-65127000D01*
X63873000Y-65127000D01*
X62723750Y-65127000D01*
X62565000Y-65285750D01*
X54683383Y-65285750D01*
X55895443Y-64073690D01*
X62565000Y-64073690D01*
X62565000Y-64714250D01*
X62723750Y-64873000D01*
X63873000Y-64873000D01*
X63873000Y-63723750D01*
X64127000Y-63723750D01*
X64127000Y-64873000D01*
X65276250Y-64873000D01*
X65435000Y-64714250D01*
X65435000Y-64073690D01*
X65338327Y-63840301D01*
X65159698Y-63661673D01*
X64926309Y-63565000D01*
X64285750Y-63565000D01*
X64127000Y-63723750D01*
X63873000Y-63723750D01*
X63714250Y-63565000D01*
X63073691Y-63565000D01*
X62840302Y-63661673D01*
X62661673Y-63840301D01*
X62565000Y-64073690D01*
X55895443Y-64073690D01*
X56834134Y-63135000D01*
X73888217Y-63135000D01*
X74000000Y-63157235D01*
X74111783Y-63135000D01*
X74442855Y-63069146D01*
X74818289Y-62818289D01*
X74881613Y-62723518D01*
X80059922Y-57545210D01*
X80154690Y-57481888D01*
X80405547Y-57106454D01*
X80420425Y-57031657D01*
X81605000Y-57048825D01*
X81605000Y-58489868D01*
X76522718Y-63572151D01*
X76140091Y-63648260D01*
X75665423Y-63965423D01*
X75348260Y-64440091D01*
X75236887Y-65000000D01*
X75348260Y-65559909D01*
X75665423Y-66034577D01*
X76017758Y-66270000D01*
X75665423Y-66505423D01*
X75348260Y-66980091D01*
X75236887Y-67540000D01*
X75348260Y-68099909D01*
X75665423Y-68574577D01*
X76017758Y-68810000D01*
X75665423Y-69045423D01*
X75348260Y-69520091D01*
X75236887Y-70080000D01*
X75348260Y-70639909D01*
X75565000Y-70964284D01*
X75565001Y-71735716D01*
X75348260Y-72060091D01*
X75236887Y-72620000D01*
X75348260Y-73179909D01*
X75665423Y-73654577D01*
X76049108Y-73910947D01*
X75844866Y-74007611D01*
X75468959Y-74422577D01*
X75308096Y-74810961D01*
X75430085Y-75033000D01*
X76573000Y-75033000D01*
X76573000Y-75013000D01*
X76827000Y-75013000D01*
X76827000Y-75033000D01*
X77969915Y-75033000D01*
X78091904Y-74810961D01*
X77931041Y-74422577D01*
X77555134Y-74007611D01*
X77350892Y-73910947D01*
X77734577Y-73654577D01*
X78051740Y-73179909D01*
X78163113Y-72620000D01*
X78051740Y-72060091D01*
X77835000Y-71735717D01*
X77835000Y-70964283D01*
X78051740Y-70639909D01*
X78103439Y-70380000D01*
X82485908Y-70380000D01*
X82601161Y-70959418D01*
X82929375Y-71450625D01*
X83227761Y-71650000D01*
X82929375Y-71849375D01*
X82601161Y-72340582D01*
X82485908Y-72920000D01*
X82601161Y-73499418D01*
X82929375Y-73990625D01*
X83227761Y-74190000D01*
X82929375Y-74389375D01*
X82601161Y-74880582D01*
X82485908Y-75460000D01*
X82601161Y-76039418D01*
X82929375Y-76530625D01*
X82947619Y-76542816D01*
X82902235Y-76551843D01*
X82692191Y-76692191D01*
X82551843Y-76902235D01*
X82502560Y-77150000D01*
X82502560Y-78850000D01*
X82551843Y-79097765D01*
X82692191Y-79307809D01*
X82902235Y-79448157D01*
X83150000Y-79497440D01*
X84850000Y-79497440D01*
X85097765Y-79448157D01*
X85307809Y-79307809D01*
X85448157Y-79097765D01*
X85497440Y-78850000D01*
X85497440Y-78835000D01*
X89115717Y-78835000D01*
X89349108Y-78990947D01*
X89144866Y-79087611D01*
X88768959Y-79502577D01*
X88608096Y-79890961D01*
X88730085Y-80113000D01*
X89873000Y-80113000D01*
X89873000Y-80093000D01*
X90127000Y-80093000D01*
X90127000Y-80113000D01*
X91269915Y-80113000D01*
X91391904Y-79890961D01*
X91231041Y-79502577D01*
X90855134Y-79087611D01*
X90650892Y-78990947D01*
X91034577Y-78734577D01*
X91351740Y-78259909D01*
X91393684Y-78049039D01*
X101308096Y-78049039D01*
X101468959Y-78437423D01*
X101844866Y-78852389D01*
X102093367Y-78970000D01*
X101844866Y-79087611D01*
X101468959Y-79502577D01*
X101308096Y-79890961D01*
X101430085Y-80113000D01*
X102573000Y-80113000D01*
X102573000Y-77827000D01*
X102827000Y-77827000D01*
X102827000Y-80113000D01*
X103969915Y-80113000D01*
X104091904Y-79890961D01*
X103931041Y-79502577D01*
X103555134Y-79087611D01*
X103306633Y-78970000D01*
X103555134Y-78852389D01*
X103931041Y-78437423D01*
X104091904Y-78049039D01*
X103969915Y-77827000D01*
X102827000Y-77827000D01*
X102573000Y-77827000D01*
X101430085Y-77827000D01*
X101308096Y-78049039D01*
X91393684Y-78049039D01*
X91463113Y-77700000D01*
X91351740Y-77140091D01*
X91034577Y-76665423D01*
X90682242Y-76430000D01*
X91034577Y-76194577D01*
X91351740Y-75719909D01*
X91393684Y-75509039D01*
X101308096Y-75509039D01*
X101468959Y-75897423D01*
X101844866Y-76312389D01*
X102093367Y-76430000D01*
X101844866Y-76547611D01*
X101468959Y-76962577D01*
X101308096Y-77350961D01*
X101430085Y-77573000D01*
X102573000Y-77573000D01*
X102573000Y-75287000D01*
X102827000Y-75287000D01*
X102827000Y-77573000D01*
X103969915Y-77573000D01*
X104091904Y-77350961D01*
X103931041Y-76962577D01*
X103555134Y-76547611D01*
X103306633Y-76430000D01*
X103555134Y-76312389D01*
X103931041Y-75897423D01*
X104091904Y-75509039D01*
X103969915Y-75287000D01*
X102827000Y-75287000D01*
X102573000Y-75287000D01*
X101430085Y-75287000D01*
X101308096Y-75509039D01*
X91393684Y-75509039D01*
X91463113Y-75160000D01*
X91351740Y-74600091D01*
X91034577Y-74125423D01*
X90682242Y-73890000D01*
X91034577Y-73654577D01*
X91351740Y-73179909D01*
X91463113Y-72620000D01*
X91351740Y-72060091D01*
X91034577Y-71585423D01*
X90682242Y-71350000D01*
X91034577Y-71114577D01*
X91351740Y-70639909D01*
X91463113Y-70080000D01*
X91351740Y-69520091D01*
X91034577Y-69045423D01*
X90650892Y-68789053D01*
X90855134Y-68692389D01*
X91231041Y-68277423D01*
X91391904Y-67889039D01*
X91269915Y-67667000D01*
X90127000Y-67667000D01*
X90127000Y-67687000D01*
X89873000Y-67687000D01*
X89873000Y-67667000D01*
X88730085Y-67667000D01*
X88608096Y-67889039D01*
X88768959Y-68277423D01*
X89144866Y-68692389D01*
X89349108Y-68789053D01*
X88965423Y-69045423D01*
X88832070Y-69245000D01*
X84974281Y-69245000D01*
X84579418Y-68981161D01*
X84146256Y-68895000D01*
X83853744Y-68895000D01*
X83420582Y-68981161D01*
X82929375Y-69309375D01*
X82601161Y-69800582D01*
X82485908Y-70380000D01*
X78103439Y-70380000D01*
X78163113Y-70080000D01*
X78051740Y-69520091D01*
X77734577Y-69045423D01*
X77382242Y-68810000D01*
X77734577Y-68574577D01*
X78051740Y-68099909D01*
X78116124Y-67776227D01*
X78442290Y-67558290D01*
X78505614Y-67463519D01*
X80683383Y-65285750D01*
X88565000Y-65285750D01*
X88565000Y-65926310D01*
X88661673Y-66159699D01*
X88840302Y-66338327D01*
X89073691Y-66435000D01*
X89101938Y-66435000D01*
X88768959Y-66802577D01*
X88608096Y-67190961D01*
X88730085Y-67413000D01*
X89873000Y-67413000D01*
X89873000Y-65127000D01*
X90127000Y-65127000D01*
X90127000Y-67413000D01*
X91269915Y-67413000D01*
X91391904Y-67190961D01*
X91231041Y-66802577D01*
X90898062Y-66435000D01*
X90926309Y-66435000D01*
X91159698Y-66338327D01*
X91338327Y-66159699D01*
X91435000Y-65926310D01*
X91435000Y-65285750D01*
X91276250Y-65127000D01*
X90127000Y-65127000D01*
X89873000Y-65127000D01*
X88723750Y-65127000D01*
X88565000Y-65285750D01*
X80683383Y-65285750D01*
X81895443Y-64073690D01*
X88565000Y-64073690D01*
X88565000Y-64714250D01*
X88723750Y-64873000D01*
X89873000Y-64873000D01*
X89873000Y-63723750D01*
X90127000Y-63723750D01*
X90127000Y-64873000D01*
X91276250Y-64873000D01*
X91435000Y-64714250D01*
X91435000Y-64073690D01*
X91338327Y-63840301D01*
X91159698Y-63661673D01*
X90926309Y-63565000D01*
X90285750Y-63565000D01*
X90127000Y-63723750D01*
X89873000Y-63723750D01*
X89714250Y-63565000D01*
X89073691Y-63565000D01*
X88840302Y-63661673D01*
X88661673Y-63840301D01*
X88565000Y-64073690D01*
X81895443Y-64073690D01*
X86003521Y-59965613D01*
X86098289Y-59902291D01*
X86349146Y-59526857D01*
X86415000Y-59195785D01*
X86437235Y-59084002D01*
X86415000Y-58972219D01*
X86415000Y-57118535D01*
X89060454Y-57156875D01*
X89050364Y-57207599D01*
X89138453Y-57650453D01*
X89138454Y-57650454D01*
X89389311Y-58025888D01*
X89484079Y-58089210D01*
X97118389Y-65723521D01*
X97181711Y-65818289D01*
X97478322Y-66016478D01*
X97557145Y-66069146D01*
X97999999Y-66157235D01*
X98111782Y-66135000D01*
X101815717Y-66135000D01*
X102017758Y-66270000D01*
X101665423Y-66505423D01*
X101348260Y-66980091D01*
X101236887Y-67540000D01*
X101348260Y-68099909D01*
X101665423Y-68574577D01*
X102017758Y-68810000D01*
X101665423Y-69045423D01*
X101348260Y-69520091D01*
X101236887Y-70080000D01*
X101348260Y-70639909D01*
X101565000Y-70964284D01*
X101565001Y-71735716D01*
X101348260Y-72060091D01*
X101236887Y-72620000D01*
X101348260Y-73179909D01*
X101665423Y-73654577D01*
X102049108Y-73910947D01*
X101844866Y-74007611D01*
X101468959Y-74422577D01*
X101308096Y-74810961D01*
X101430085Y-75033000D01*
X102573000Y-75033000D01*
X102573000Y-75013000D01*
X102827000Y-75013000D01*
X102827000Y-75033000D01*
X103969915Y-75033000D01*
X104091904Y-74810961D01*
X103931041Y-74422577D01*
X103555134Y-74007611D01*
X103350892Y-73910947D01*
X103734577Y-73654577D01*
X104051740Y-73179909D01*
X104163113Y-72620000D01*
X104051740Y-72060091D01*
X103835000Y-71735717D01*
X103835000Y-70964283D01*
X104051740Y-70639909D01*
X104103439Y-70380000D01*
X107485908Y-70380000D01*
X107601161Y-70959418D01*
X107929375Y-71450625D01*
X108227761Y-71650000D01*
X107929375Y-71849375D01*
X107601161Y-72340582D01*
X107485908Y-72920000D01*
X107601161Y-73499418D01*
X107929375Y-73990625D01*
X108227761Y-74190000D01*
X107929375Y-74389375D01*
X107601161Y-74880582D01*
X107485908Y-75460000D01*
X107601161Y-76039418D01*
X107929375Y-76530625D01*
X107947619Y-76542816D01*
X107902235Y-76551843D01*
X107692191Y-76692191D01*
X107551843Y-76902235D01*
X107502560Y-77150000D01*
X107502560Y-78850000D01*
X107551843Y-79097765D01*
X107692191Y-79307809D01*
X107902235Y-79448157D01*
X108150000Y-79497440D01*
X109850000Y-79497440D01*
X110097765Y-79448157D01*
X110307809Y-79307809D01*
X110448157Y-79097765D01*
X110497440Y-78850000D01*
X110497440Y-78835000D01*
X114115717Y-78835000D01*
X114349108Y-78990947D01*
X114144866Y-79087611D01*
X113768959Y-79502577D01*
X113608096Y-79890961D01*
X113730085Y-80113000D01*
X114873000Y-80113000D01*
X114873000Y-80093000D01*
X115127000Y-80093000D01*
X115127000Y-80113000D01*
X116269915Y-80113000D01*
X116391904Y-79890961D01*
X116231041Y-79502577D01*
X115855134Y-79087611D01*
X115650892Y-78990947D01*
X116034577Y-78734577D01*
X116351740Y-78259909D01*
X116393684Y-78049039D01*
X126308096Y-78049039D01*
X126468959Y-78437423D01*
X126844866Y-78852389D01*
X127093367Y-78970000D01*
X126844866Y-79087611D01*
X126468959Y-79502577D01*
X126308096Y-79890961D01*
X126430085Y-80113000D01*
X127573000Y-80113000D01*
X127573000Y-77827000D01*
X127827000Y-77827000D01*
X127827000Y-80113000D01*
X128969915Y-80113000D01*
X129091904Y-79890961D01*
X128931041Y-79502577D01*
X128555134Y-79087611D01*
X128306633Y-78970000D01*
X128555134Y-78852389D01*
X128931041Y-78437423D01*
X129091904Y-78049039D01*
X128969915Y-77827000D01*
X127827000Y-77827000D01*
X127573000Y-77827000D01*
X126430085Y-77827000D01*
X126308096Y-78049039D01*
X116393684Y-78049039D01*
X116463113Y-77700000D01*
X116351740Y-77140091D01*
X116034577Y-76665423D01*
X115682242Y-76430000D01*
X116034577Y-76194577D01*
X116351740Y-75719909D01*
X116393684Y-75509039D01*
X126308096Y-75509039D01*
X126468959Y-75897423D01*
X126844866Y-76312389D01*
X127093367Y-76430000D01*
X126844866Y-76547611D01*
X126468959Y-76962577D01*
X126308096Y-77350961D01*
X126430085Y-77573000D01*
X127573000Y-77573000D01*
X127573000Y-75287000D01*
X127827000Y-75287000D01*
X127827000Y-77573000D01*
X128969915Y-77573000D01*
X129091904Y-77350961D01*
X128931041Y-76962577D01*
X128555134Y-76547611D01*
X128306633Y-76430000D01*
X128555134Y-76312389D01*
X128931041Y-75897423D01*
X129091904Y-75509039D01*
X128969915Y-75287000D01*
X127827000Y-75287000D01*
X127573000Y-75287000D01*
X126430085Y-75287000D01*
X126308096Y-75509039D01*
X116393684Y-75509039D01*
X116463113Y-75160000D01*
X116351740Y-74600091D01*
X116034577Y-74125423D01*
X115682242Y-73890000D01*
X116034577Y-73654577D01*
X116351740Y-73179909D01*
X116463113Y-72620000D01*
X116351740Y-72060091D01*
X116034577Y-71585423D01*
X115682242Y-71350000D01*
X116034577Y-71114577D01*
X116351740Y-70639909D01*
X116463113Y-70080000D01*
X116351740Y-69520091D01*
X116034577Y-69045423D01*
X115650892Y-68789053D01*
X115855134Y-68692389D01*
X116231041Y-68277423D01*
X116391904Y-67889039D01*
X116269915Y-67667000D01*
X115127000Y-67667000D01*
X115127000Y-67687000D01*
X114873000Y-67687000D01*
X114873000Y-67667000D01*
X113730085Y-67667000D01*
X113608096Y-67889039D01*
X113768959Y-68277423D01*
X114144866Y-68692389D01*
X114349108Y-68789053D01*
X113965423Y-69045423D01*
X113832070Y-69245000D01*
X109974281Y-69245000D01*
X109579418Y-68981161D01*
X109146256Y-68895000D01*
X108853744Y-68895000D01*
X108420582Y-68981161D01*
X107929375Y-69309375D01*
X107601161Y-69800582D01*
X107485908Y-70380000D01*
X104103439Y-70380000D01*
X104163113Y-70080000D01*
X104051740Y-69520091D01*
X103734577Y-69045423D01*
X103382242Y-68810000D01*
X103734577Y-68574577D01*
X104051740Y-68099909D01*
X104116124Y-67776227D01*
X104442290Y-67558290D01*
X104505614Y-67463520D01*
X105223522Y-66745612D01*
X105318290Y-66682290D01*
X105569147Y-66306856D01*
X105603331Y-66135000D01*
X105657236Y-65864002D01*
X105635001Y-65752219D01*
X105635001Y-65285750D01*
X113565000Y-65285750D01*
X113565000Y-65926310D01*
X113661673Y-66159699D01*
X113840302Y-66338327D01*
X114073691Y-66435000D01*
X114101938Y-66435000D01*
X113768959Y-66802577D01*
X113608096Y-67190961D01*
X113730085Y-67413000D01*
X114873000Y-67413000D01*
X114873000Y-65127000D01*
X115127000Y-65127000D01*
X115127000Y-67413000D01*
X116269915Y-67413000D01*
X116391904Y-67190961D01*
X116231041Y-66802577D01*
X115898062Y-66435000D01*
X115926309Y-66435000D01*
X116159698Y-66338327D01*
X116338327Y-66159699D01*
X116435000Y-65926310D01*
X116435000Y-65285750D01*
X116276250Y-65127000D01*
X115127000Y-65127000D01*
X114873000Y-65127000D01*
X113723750Y-65127000D01*
X113565000Y-65285750D01*
X105635001Y-65285750D01*
X105635001Y-64247782D01*
X105657236Y-64135999D01*
X105644843Y-64073690D01*
X113565000Y-64073690D01*
X113565000Y-64714250D01*
X113723750Y-64873000D01*
X114873000Y-64873000D01*
X114873000Y-63723750D01*
X115127000Y-63723750D01*
X115127000Y-64873000D01*
X116276250Y-64873000D01*
X116435000Y-64714250D01*
X116435000Y-64073690D01*
X116338327Y-63840301D01*
X116159698Y-63661673D01*
X115926309Y-63565000D01*
X115285750Y-63565000D01*
X115127000Y-63723750D01*
X114873000Y-63723750D01*
X114714250Y-63565000D01*
X114073691Y-63565000D01*
X113840302Y-63661673D01*
X113661673Y-63840301D01*
X113565000Y-64073690D01*
X105644843Y-64073690D01*
X105569147Y-63693144D01*
X105535544Y-63642854D01*
X105318290Y-63317710D01*
X105223522Y-63254388D01*
X104804122Y-62834989D01*
X120258488Y-62834989D01*
X125687019Y-68263521D01*
X125750341Y-68358289D01*
X126074039Y-68574577D01*
X126125775Y-68609146D01*
X126568630Y-68697235D01*
X126680413Y-68675000D01*
X126815717Y-68675000D01*
X127017758Y-68810000D01*
X126665423Y-69045423D01*
X126348260Y-69520091D01*
X126236887Y-70080000D01*
X126348260Y-70639909D01*
X126565000Y-70964284D01*
X126565001Y-71735716D01*
X126348260Y-72060091D01*
X126236887Y-72620000D01*
X126348260Y-73179909D01*
X126665423Y-73654577D01*
X127049108Y-73910947D01*
X126844866Y-74007611D01*
X126468959Y-74422577D01*
X126308096Y-74810961D01*
X126430085Y-75033000D01*
X127573000Y-75033000D01*
X127573000Y-75013000D01*
X127827000Y-75013000D01*
X127827000Y-75033000D01*
X128969915Y-75033000D01*
X129091904Y-74810961D01*
X128931041Y-74422577D01*
X128555134Y-74007611D01*
X128350892Y-73910947D01*
X128734577Y-73654577D01*
X129051740Y-73179909D01*
X129163113Y-72620000D01*
X129051740Y-72060091D01*
X128835000Y-71735717D01*
X128835000Y-70964283D01*
X129051740Y-70639909D01*
X129103439Y-70380000D01*
X132485908Y-70380000D01*
X132601161Y-70959418D01*
X132929375Y-71450625D01*
X133227761Y-71650000D01*
X132929375Y-71849375D01*
X132601161Y-72340582D01*
X132485908Y-72920000D01*
X132601161Y-73499418D01*
X132929375Y-73990625D01*
X133227761Y-74190000D01*
X132929375Y-74389375D01*
X132601161Y-74880582D01*
X132485908Y-75460000D01*
X132601161Y-76039418D01*
X132929375Y-76530625D01*
X132947619Y-76542816D01*
X132902235Y-76551843D01*
X132692191Y-76692191D01*
X132551843Y-76902235D01*
X132502560Y-77150000D01*
X132502560Y-78850000D01*
X132551843Y-79097765D01*
X132692191Y-79307809D01*
X132902235Y-79448157D01*
X133150000Y-79497440D01*
X134850000Y-79497440D01*
X135097765Y-79448157D01*
X135307809Y-79307809D01*
X135448157Y-79097765D01*
X135497440Y-78850000D01*
X135497440Y-78835000D01*
X139115717Y-78835000D01*
X139349108Y-78990947D01*
X139144866Y-79087611D01*
X138768959Y-79502577D01*
X138608096Y-79890961D01*
X138730085Y-80113000D01*
X139873000Y-80113000D01*
X139873000Y-80093000D01*
X140127000Y-80093000D01*
X140127000Y-80113000D01*
X141269915Y-80113000D01*
X141391904Y-79890961D01*
X141231041Y-79502577D01*
X140855134Y-79087611D01*
X140650892Y-78990947D01*
X141034577Y-78734577D01*
X141351740Y-78259909D01*
X141393684Y-78049039D01*
X151308096Y-78049039D01*
X151468959Y-78437423D01*
X151844866Y-78852389D01*
X152093367Y-78970000D01*
X151844866Y-79087611D01*
X151468959Y-79502577D01*
X151308096Y-79890961D01*
X151430085Y-80113000D01*
X152573000Y-80113000D01*
X152573000Y-77827000D01*
X152827000Y-77827000D01*
X152827000Y-80113000D01*
X153969915Y-80113000D01*
X154091904Y-79890961D01*
X153931041Y-79502577D01*
X153555134Y-79087611D01*
X153306633Y-78970000D01*
X153555134Y-78852389D01*
X153931041Y-78437423D01*
X154091904Y-78049039D01*
X153969915Y-77827000D01*
X152827000Y-77827000D01*
X152573000Y-77827000D01*
X151430085Y-77827000D01*
X151308096Y-78049039D01*
X141393684Y-78049039D01*
X141463113Y-77700000D01*
X141351740Y-77140091D01*
X141034577Y-76665423D01*
X140682242Y-76430000D01*
X141034577Y-76194577D01*
X141351740Y-75719909D01*
X141393684Y-75509039D01*
X151308096Y-75509039D01*
X151468959Y-75897423D01*
X151844866Y-76312389D01*
X152093367Y-76430000D01*
X151844866Y-76547611D01*
X151468959Y-76962577D01*
X151308096Y-77350961D01*
X151430085Y-77573000D01*
X152573000Y-77573000D01*
X152573000Y-75287000D01*
X152827000Y-75287000D01*
X152827000Y-77573000D01*
X153969915Y-77573000D01*
X154091904Y-77350961D01*
X153931041Y-76962577D01*
X153555134Y-76547611D01*
X153306633Y-76430000D01*
X153555134Y-76312389D01*
X153931041Y-75897423D01*
X154091904Y-75509039D01*
X153969915Y-75287000D01*
X152827000Y-75287000D01*
X152573000Y-75287000D01*
X151430085Y-75287000D01*
X151308096Y-75509039D01*
X141393684Y-75509039D01*
X141463113Y-75160000D01*
X141351740Y-74600091D01*
X141034577Y-74125423D01*
X140682242Y-73890000D01*
X141034577Y-73654577D01*
X141351740Y-73179909D01*
X141463113Y-72620000D01*
X141351740Y-72060091D01*
X141034577Y-71585423D01*
X140682242Y-71350000D01*
X141034577Y-71114577D01*
X141351740Y-70639909D01*
X141463113Y-70080000D01*
X141351740Y-69520091D01*
X141034577Y-69045423D01*
X140650892Y-68789053D01*
X140855134Y-68692389D01*
X141231041Y-68277423D01*
X141391904Y-67889039D01*
X141269915Y-67667000D01*
X140127000Y-67667000D01*
X140127000Y-67687000D01*
X139873000Y-67687000D01*
X139873000Y-67667000D01*
X138730085Y-67667000D01*
X138608096Y-67889039D01*
X138768959Y-68277423D01*
X139144866Y-68692389D01*
X139349108Y-68789053D01*
X138965423Y-69045423D01*
X138832070Y-69245000D01*
X134974281Y-69245000D01*
X134579418Y-68981161D01*
X134146256Y-68895000D01*
X133853744Y-68895000D01*
X133420582Y-68981161D01*
X132929375Y-69309375D01*
X132601161Y-69800582D01*
X132485908Y-70380000D01*
X129103439Y-70380000D01*
X129163113Y-70080000D01*
X129051740Y-69520091D01*
X128734577Y-69045423D01*
X128382242Y-68810000D01*
X128734577Y-68574577D01*
X129051740Y-68099909D01*
X129163113Y-67540000D01*
X129051740Y-66980091D01*
X128734577Y-66505423D01*
X128382242Y-66270000D01*
X128734577Y-66034577D01*
X129051740Y-65559909D01*
X129106273Y-65285750D01*
X138565000Y-65285750D01*
X138565000Y-65926310D01*
X138661673Y-66159699D01*
X138840302Y-66338327D01*
X139073691Y-66435000D01*
X139101938Y-66435000D01*
X138768959Y-66802577D01*
X138608096Y-67190961D01*
X138730085Y-67413000D01*
X139873000Y-67413000D01*
X139873000Y-65127000D01*
X140127000Y-65127000D01*
X140127000Y-67413000D01*
X141269915Y-67413000D01*
X141391904Y-67190961D01*
X141231041Y-66802577D01*
X140898062Y-66435000D01*
X140926309Y-66435000D01*
X141159698Y-66338327D01*
X141338327Y-66159699D01*
X141435000Y-65926310D01*
X141435000Y-65285750D01*
X141276250Y-65127000D01*
X140127000Y-65127000D01*
X139873000Y-65127000D01*
X138723750Y-65127000D01*
X138565000Y-65285750D01*
X129106273Y-65285750D01*
X129163113Y-65000000D01*
X129051740Y-64440091D01*
X128806919Y-64073690D01*
X138565000Y-64073690D01*
X138565000Y-64714250D01*
X138723750Y-64873000D01*
X139873000Y-64873000D01*
X139873000Y-63723750D01*
X140127000Y-63723750D01*
X140127000Y-64873000D01*
X141276250Y-64873000D01*
X141435000Y-64714250D01*
X141435000Y-64073690D01*
X141338327Y-63840301D01*
X141159698Y-63661673D01*
X140926309Y-63565000D01*
X140285750Y-63565000D01*
X140127000Y-63723750D01*
X139873000Y-63723750D01*
X139714250Y-63565000D01*
X139073691Y-63565000D01*
X138840302Y-63661673D01*
X138661673Y-63840301D01*
X138565000Y-64073690D01*
X128806919Y-64073690D01*
X128734577Y-63965423D01*
X128259909Y-63648260D01*
X127877283Y-63572151D01*
X124140100Y-59834969D01*
X139229838Y-59834969D01*
X147658389Y-68263521D01*
X147721711Y-68358289D01*
X148045409Y-68574577D01*
X148097145Y-68609146D01*
X148540000Y-68697235D01*
X148651783Y-68675000D01*
X151815717Y-68675000D01*
X152017758Y-68810000D01*
X151665423Y-69045423D01*
X151348260Y-69520091D01*
X151236887Y-70080000D01*
X151348260Y-70639909D01*
X151565000Y-70964284D01*
X151565001Y-71735716D01*
X151348260Y-72060091D01*
X151236887Y-72620000D01*
X151348260Y-73179909D01*
X151665423Y-73654577D01*
X152049108Y-73910947D01*
X151844866Y-74007611D01*
X151468959Y-74422577D01*
X151308096Y-74810961D01*
X151430085Y-75033000D01*
X152573000Y-75033000D01*
X152573000Y-75013000D01*
X152827000Y-75013000D01*
X152827000Y-75033000D01*
X153969915Y-75033000D01*
X154091904Y-74810961D01*
X153931041Y-74422577D01*
X153555134Y-74007611D01*
X153350892Y-73910947D01*
X153734577Y-73654577D01*
X154051740Y-73179909D01*
X154163113Y-72620000D01*
X154051740Y-72060091D01*
X153835000Y-71735717D01*
X153835000Y-70964283D01*
X154051740Y-70639909D01*
X154163113Y-70080000D01*
X154051740Y-69520091D01*
X153734577Y-69045423D01*
X153382242Y-68810000D01*
X153734577Y-68574577D01*
X154051740Y-68099909D01*
X154163113Y-67540000D01*
X154051740Y-66980091D01*
X153734577Y-66505423D01*
X153382242Y-66270000D01*
X153734577Y-66034577D01*
X154051740Y-65559909D01*
X154163113Y-65000000D01*
X154051740Y-64440091D01*
X153734577Y-63965423D01*
X153259909Y-63648260D01*
X152877282Y-63572151D01*
X152781611Y-63476480D01*
X152781609Y-63476477D01*
X147306147Y-58001016D01*
X155340001Y-58117448D01*
X155340001Y-80868655D01*
X153979797Y-80859707D01*
X154091904Y-80589039D01*
X153969915Y-80367000D01*
X152827000Y-80367000D01*
X152827000Y-80387000D01*
X152573000Y-80387000D01*
X152573000Y-80367000D01*
X151430085Y-80367000D01*
X151308096Y-80589039D01*
X151413209Y-80842821D01*
X141314310Y-80776381D01*
X141391904Y-80589039D01*
X141269915Y-80367000D01*
X140127000Y-80367000D01*
X140127000Y-80387000D01*
X139873000Y-80387000D01*
X139873000Y-80367000D01*
X138730085Y-80367000D01*
X138608096Y-80589039D01*
X138678508Y-80759040D01*
X129047735Y-80695680D01*
X129091904Y-80589039D01*
X128969915Y-80367000D01*
X127827000Y-80367000D01*
X127827000Y-80387000D01*
X127573000Y-80387000D01*
X127573000Y-80367000D01*
X126430085Y-80367000D01*
X126308096Y-80589039D01*
X126344900Y-80677898D01*
X116382247Y-80612354D01*
X116391904Y-80589039D01*
X116269915Y-80367000D01*
X115127000Y-80367000D01*
X115127000Y-80387000D01*
X114873000Y-80387000D01*
X114873000Y-80367000D01*
X113730085Y-80367000D01*
X113608096Y-80589039D01*
X113610199Y-80594117D01*
X104060175Y-80531288D01*
X103969915Y-80367000D01*
X102827000Y-80367000D01*
X102827000Y-80387000D01*
X102573000Y-80387000D01*
X102573000Y-80367000D01*
X101430085Y-80367000D01*
X101349622Y-80513456D01*
X91314105Y-80447432D01*
X91269915Y-80367000D01*
X90127000Y-80367000D01*
X90127000Y-80387000D01*
X89873000Y-80387000D01*
X89873000Y-80367000D01*
X88730085Y-80367000D01*
X88695361Y-80430204D01*
X52135000Y-80189675D01*
X52135000Y-80112998D01*
X51969916Y-80112998D01*
X52091904Y-79890961D01*
X51931041Y-79502577D01*
X51555134Y-79087611D01*
X51306633Y-78970000D01*
X51555134Y-78852389D01*
X51931041Y-78437423D01*
X52091904Y-78049039D01*
X51969915Y-77827000D01*
X50827000Y-77827000D01*
X50827000Y-80113000D01*
X50847000Y-80113000D01*
X50847000Y-80181201D01*
X50553000Y-80179267D01*
X50553000Y-80113000D01*
X50573000Y-80113000D01*
X50573000Y-77827000D01*
X49430085Y-77827000D01*
X49308096Y-78049039D01*
X49468959Y-78437423D01*
X49844866Y-78852389D01*
X50093367Y-78970000D01*
X49844866Y-79087611D01*
X49468959Y-79502577D01*
X49308096Y-79890961D01*
X49430084Y-80112998D01*
X49265000Y-80112998D01*
X49265000Y-80170794D01*
X39274274Y-80105065D01*
X39391904Y-79890961D01*
X39231041Y-79502577D01*
X38855134Y-79087611D01*
X38650892Y-78990947D01*
X39034577Y-78734577D01*
X39351740Y-78259909D01*
X39463113Y-77700000D01*
X39351740Y-77140091D01*
X39034577Y-76665423D01*
X38682242Y-76430000D01*
X39034577Y-76194577D01*
X39351740Y-75719909D01*
X39393684Y-75509039D01*
X49308096Y-75509039D01*
X49468959Y-75897423D01*
X49844866Y-76312389D01*
X50093367Y-76430000D01*
X49844866Y-76547611D01*
X49468959Y-76962577D01*
X49308096Y-77350961D01*
X49430085Y-77573000D01*
X50573000Y-77573000D01*
X50573000Y-75287000D01*
X50827000Y-75287000D01*
X50827000Y-77573000D01*
X51969915Y-77573000D01*
X52091904Y-77350961D01*
X51931041Y-76962577D01*
X51555134Y-76547611D01*
X51306633Y-76430000D01*
X51555134Y-76312389D01*
X51931041Y-75897423D01*
X52091904Y-75509039D01*
X51969915Y-75287000D01*
X50827000Y-75287000D01*
X50573000Y-75287000D01*
X49430085Y-75287000D01*
X49308096Y-75509039D01*
X39393684Y-75509039D01*
X39463113Y-75160000D01*
X39351740Y-74600091D01*
X39034577Y-74125423D01*
X38682242Y-73890000D01*
X39034577Y-73654577D01*
X39351740Y-73179909D01*
X39463113Y-72620000D01*
X39351740Y-72060091D01*
X39034577Y-71585423D01*
X38682242Y-71350000D01*
X39034577Y-71114577D01*
X39351740Y-70639909D01*
X39463113Y-70080000D01*
X39351740Y-69520091D01*
X39034577Y-69045423D01*
X38650892Y-68789053D01*
X38855134Y-68692389D01*
X39231041Y-68277423D01*
X39391904Y-67889039D01*
X39269915Y-67667000D01*
X38127000Y-67667000D01*
X38127000Y-67687000D01*
X37873000Y-67687000D01*
X37873000Y-67667000D01*
X36730085Y-67667000D01*
X36608096Y-67889039D01*
X36768959Y-68277423D01*
X37144866Y-68692389D01*
X37349108Y-68789053D01*
X36965423Y-69045423D01*
X36832070Y-69245000D01*
X32974281Y-69245000D01*
X32579418Y-68981161D01*
X32146256Y-68895000D01*
X31853744Y-68895000D01*
X31420582Y-68981161D01*
X30929375Y-69309375D01*
X30601161Y-69800582D01*
X30485908Y-70380000D01*
X30601161Y-70959418D01*
X30929375Y-71450625D01*
X31227761Y-71650000D01*
X30929375Y-71849375D01*
X30601161Y-72340582D01*
X30485908Y-72920000D01*
X30601161Y-73499418D01*
X30929375Y-73990625D01*
X31227761Y-74190000D01*
X30929375Y-74389375D01*
X30601161Y-74880582D01*
X30485908Y-75460000D01*
X30601161Y-76039418D01*
X30929375Y-76530625D01*
X30947619Y-76542816D01*
X30902235Y-76551843D01*
X30692191Y-76692191D01*
X30551843Y-76902235D01*
X30502560Y-77150000D01*
X30502560Y-78850000D01*
X30551843Y-79097765D01*
X30692191Y-79307809D01*
X30902235Y-79448157D01*
X31150000Y-79497440D01*
X32850000Y-79497440D01*
X33097765Y-79448157D01*
X33307809Y-79307809D01*
X33448157Y-79097765D01*
X33497440Y-78850000D01*
X33497440Y-78835000D01*
X37115717Y-78835000D01*
X37349108Y-78990947D01*
X37144866Y-79087611D01*
X36768959Y-79502577D01*
X36608096Y-79890961D01*
X36716480Y-80088237D01*
X25025776Y-80011325D01*
X25091904Y-79890961D01*
X24931041Y-79502577D01*
X24555134Y-79087611D01*
X24306633Y-78970000D01*
X24555134Y-78852389D01*
X24931041Y-78437423D01*
X25091904Y-78049039D01*
X24969915Y-77827000D01*
X23827000Y-77827000D01*
X23827000Y-80003438D01*
X23573000Y-80001767D01*
X23573000Y-77827000D01*
X22430085Y-77827000D01*
X22308096Y-78049039D01*
X22468959Y-78437423D01*
X22844866Y-78852389D01*
X23093367Y-78970000D01*
X22844866Y-79087611D01*
X22468959Y-79502577D01*
X22308096Y-79890961D01*
X22364606Y-79993817D01*
X12371514Y-79928073D01*
X12391904Y-79890961D01*
X12231041Y-79502577D01*
X11855134Y-79087611D01*
X11650892Y-78990947D01*
X12034577Y-78734577D01*
X12351740Y-78259909D01*
X12463113Y-77700000D01*
X12351740Y-77140091D01*
X12034577Y-76665423D01*
X11682242Y-76430000D01*
X12034577Y-76194577D01*
X12351740Y-75719909D01*
X12393684Y-75509039D01*
X22308096Y-75509039D01*
X22468959Y-75897423D01*
X22844866Y-76312389D01*
X23093367Y-76430000D01*
X22844866Y-76547611D01*
X22468959Y-76962577D01*
X22308096Y-77350961D01*
X22430085Y-77573000D01*
X23573000Y-77573000D01*
X23573000Y-75287000D01*
X23827000Y-75287000D01*
X23827000Y-77573000D01*
X24969915Y-77573000D01*
X25091904Y-77350961D01*
X24931041Y-76962577D01*
X24555134Y-76547611D01*
X24306633Y-76430000D01*
X24555134Y-76312389D01*
X24931041Y-75897423D01*
X25091904Y-75509039D01*
X24969915Y-75287000D01*
X23827000Y-75287000D01*
X23573000Y-75287000D01*
X22430085Y-75287000D01*
X22308096Y-75509039D01*
X12393684Y-75509039D01*
X12463113Y-75160000D01*
X12351740Y-74600091D01*
X12034577Y-74125423D01*
X11682242Y-73890000D01*
X12034577Y-73654577D01*
X12351740Y-73179909D01*
X12463113Y-72620000D01*
X12351740Y-72060091D01*
X12034577Y-71585423D01*
X11682242Y-71350000D01*
X12034577Y-71114577D01*
X12351740Y-70639909D01*
X12463113Y-70080000D01*
X12351740Y-69520091D01*
X12034577Y-69045423D01*
X11650892Y-68789053D01*
X11855134Y-68692389D01*
X12231041Y-68277423D01*
X12391904Y-67889039D01*
X12269915Y-67667000D01*
X11127000Y-67667000D01*
X11127000Y-67687000D01*
X10873000Y-67687000D01*
X10873000Y-67667000D01*
X9730085Y-67667000D01*
X9608096Y-67889039D01*
X9768959Y-68277423D01*
X10144866Y-68692389D01*
X10349108Y-68789053D01*
X9965423Y-69045423D01*
X9832070Y-69245000D01*
X5974281Y-69245000D01*
X5579418Y-68981161D01*
X5146256Y-68895000D01*
X4853744Y-68895000D01*
X4420582Y-68981161D01*
X4134999Y-69171981D01*
X4134999Y-65285750D01*
X9565000Y-65285750D01*
X9565000Y-65926310D01*
X9661673Y-66159699D01*
X9840302Y-66338327D01*
X10073691Y-66435000D01*
X10101938Y-66435000D01*
X9768959Y-66802577D01*
X9608096Y-67190961D01*
X9730085Y-67413000D01*
X10873000Y-67413000D01*
X10873000Y-65127000D01*
X11127000Y-65127000D01*
X11127000Y-67413000D01*
X12269915Y-67413000D01*
X12391904Y-67190961D01*
X12231041Y-66802577D01*
X11898062Y-66435000D01*
X11926309Y-66435000D01*
X12159698Y-66338327D01*
X12338327Y-66159699D01*
X12435000Y-65926310D01*
X12435000Y-65285750D01*
X12276250Y-65127000D01*
X11127000Y-65127000D01*
X10873000Y-65127000D01*
X9723750Y-65127000D01*
X9565000Y-65285750D01*
X4134999Y-65285750D01*
X4134999Y-64073690D01*
X9565000Y-64073690D01*
X9565000Y-64714250D01*
X9723750Y-64873000D01*
X10873000Y-64873000D01*
X10873000Y-63723750D01*
X11127000Y-63723750D01*
X11127000Y-64873000D01*
X12276250Y-64873000D01*
X12435000Y-64714250D01*
X12435000Y-64073690D01*
X12338327Y-63840301D01*
X12159698Y-63661673D01*
X11926309Y-63565000D01*
X11285750Y-63565000D01*
X11127000Y-63723750D01*
X10873000Y-63723750D01*
X10714250Y-63565000D01*
X10073691Y-63565000D01*
X9840302Y-63661673D01*
X9661673Y-63840301D01*
X9565000Y-64073690D01*
X4134999Y-64073690D01*
X4134999Y-59635000D01*
X6714250Y-59635000D01*
X6873000Y-59476250D01*
X6873000Y-58127000D01*
X7127000Y-58127000D01*
X7127000Y-59476250D01*
X7285750Y-59635000D01*
X10126310Y-59635000D01*
X10359699Y-59538327D01*
X10538327Y-59359698D01*
X10635000Y-59126309D01*
X10635000Y-58285750D01*
X13865000Y-58285750D01*
X13865000Y-59126309D01*
X13961673Y-59359698D01*
X14140301Y-59538327D01*
X14373690Y-59635000D01*
X15964250Y-59635000D01*
X16123000Y-59476250D01*
X16123000Y-58127000D01*
X16377000Y-58127000D01*
X16377000Y-59476250D01*
X16535750Y-59635000D01*
X18126310Y-59635000D01*
X18359699Y-59538327D01*
X18538327Y-59359698D01*
X18635000Y-59126309D01*
X18635000Y-58285750D01*
X18476250Y-58127000D01*
X16377000Y-58127000D01*
X16123000Y-58127000D01*
X14023750Y-58127000D01*
X13865000Y-58285750D01*
X10635000Y-58285750D01*
X10476250Y-58127000D01*
X7127000Y-58127000D01*
X6873000Y-58127000D01*
X6853000Y-58127000D01*
X6853000Y-57873000D01*
X6873000Y-57873000D01*
X6873000Y-56523750D01*
X7127000Y-56523750D01*
X7127000Y-57873000D01*
X10476250Y-57873000D01*
X10635000Y-57714250D01*
X10635000Y-56873691D01*
X13865000Y-56873691D01*
X13865000Y-57714250D01*
X14023750Y-57873000D01*
X16123000Y-57873000D01*
X16123000Y-56523750D01*
X16377000Y-56523750D01*
X16377000Y-57873000D01*
X18476250Y-57873000D01*
X18635000Y-57714250D01*
X18635000Y-57285750D01*
X23515000Y-57285750D01*
X23515000Y-57976310D01*
X23611673Y-58209699D01*
X23790302Y-58388327D01*
X24023691Y-58485000D01*
X24714250Y-58485000D01*
X24873000Y-58326250D01*
X24873000Y-57127000D01*
X25127000Y-57127000D01*
X25127000Y-58326250D01*
X25285750Y-58485000D01*
X25976309Y-58485000D01*
X26209698Y-58388327D01*
X26388327Y-58209699D01*
X26485000Y-57976310D01*
X26485000Y-57285750D01*
X26326250Y-57127000D01*
X25127000Y-57127000D01*
X24873000Y-57127000D01*
X23673750Y-57127000D01*
X23515000Y-57285750D01*
X18635000Y-57285750D01*
X18635000Y-56873691D01*
X18538327Y-56640302D01*
X18359699Y-56461673D01*
X18126310Y-56365000D01*
X16535750Y-56365000D01*
X16377000Y-56523750D01*
X16123000Y-56523750D01*
X15964250Y-56365000D01*
X14373690Y-56365000D01*
X14140301Y-56461673D01*
X13961673Y-56640302D01*
X13865000Y-56873691D01*
X10635000Y-56873691D01*
X10538327Y-56640302D01*
X10359699Y-56461673D01*
X10126310Y-56365000D01*
X7285750Y-56365000D01*
X7127000Y-56523750D01*
X6873000Y-56523750D01*
X6714250Y-56365000D01*
X4240131Y-56365000D01*
X4478131Y-56127000D01*
X17999057Y-56127000D01*
X23515000Y-56206941D01*
G36*
X38127000Y-80097517D02*
X37873000Y-80095846D01*
X37873000Y-80093000D01*
X38127000Y-80093000D01*
X38127000Y-80097517D01*
X38127000Y-80097517D01*
G37*
X38127000Y-80097517D02*
X37873000Y-80095846D01*
X37873000Y-80093000D01*
X38127000Y-80093000D01*
X38127000Y-80097517D01*
G04 #@! TD*
M02*
