<?xml version="1.0" standalone="no"?>
<!DOCTYPE svg PUBLIC "-//W3C//DTD SVG 1.1//EN"
"http://www.w3.org/Graphics/SVG/1.1/DTD/svg11.dtd">
<svg width="591.307" height="326.74" viewBox="0 0 12318.9 6807.09" version="1.1"
xmlns="http://www.w3.org/2000/svg"
xmlns:xlink="http://www.w3.org/1999/xlink">
<polyline points="7.87454,6789.37 7.87454,17.7165 9.68054,12.0365 13.1405,9.01854 17.7165,7.87454 12301.2,7.87454 12305.9,9.08054 12309.8,12.9125 12311,17.7165 12311,6789.37 12309.2,6795.05 12305.8,6798.07 12301.2,6799.21 17.6125,6799.2 10.4825,6796.04 7.87454,6789.37" style="stroke:rgb(103,198,105);stroke-width:15.748031;fill:none;stroke-opacity:0.5;stroke-linecap:round;stroke-linejoin:round;;fill:none"/>
<polyline points="7.87454,6789.37 7.87454,17.7165 9.68054,12.0365 13.1405,9.01854 17.7165,7.87454 12301.2,7.87454 12305.9,9.08054 12309.8,12.9125 12311,17.7165 12311,6789.37 12309.2,6795.05 12305.8,6798.07 12301.2,6799.21 17.6125,6799.2 10.4825,6796.04 7.87454,6789.37" style="stroke:rgb(0,0,0);stroke-width:1px;fill:none;stroke-opacity:1;stroke-linecap:round;stroke-linejoin:round;;fill:none"/>
<polyline points="27.5585,6779.53 27.5585,27.5585 12291.3,27.5585 12291.3,6779.53 27.5585,6779.53" style="stroke:rgb(103,198,105);stroke-width:15.748031;fill:none;stroke-opacity:0.5;stroke-linecap:round;stroke-linejoin:round;;fill:none"/>
<polyline points="27.5585,6779.53 27.5585,27.5585 12291.3,27.5585 12291.3,6779.53 27.5585,6779.53" style="stroke:rgb(0,0,0);stroke-width:1px;fill:none;stroke-opacity:1;stroke-linecap:round;stroke-linejoin:round;;fill:none"/>
</svg>
