<?xml version="1.0" standalone="no"?>
<!DOCTYPE svg PUBLIC "-//W3C//DTD SVG 1.1//EN"
"http://www.w3.org/Graphics/SVG/1.1/DTD/svg11.dtd">
<svg width="439.937" height="357.921" viewBox="0 0 9165.35 7456.69" version="1.1"
xmlns="http://www.w3.org/2000/svg"
xmlns:xlink="http://www.w3.org/1999/xlink">
<g fill-rule="evenodd"><path d="M 212.598,2417.32 L 210.878,2433.69 L 205.791,2449.35 L 197.56,2463.61 L 186.546,2475.84 L 173.228,2485.51 L 158.19,2492.21 L 142.089,2495.63 L 125.628,2495.63 L 109.526,2492.21 L 94.4882,2485.51 L 81.1708,2475.84 L 70.1561,2463.61 L 61.9256,2449.35 L 56.8388,2433.69 L 55.1181,2417.32 L 56.8388,2400.95 L 61.9256,2385.3 L 70.1561,2371.04 L 81.1708,2358.81 L 94.4882,2349.13 L 109.526,2342.44 L 125.628,2339.01 L 142.089,2339.01 L 158.19,2342.44 L 173.228,2349.13 L 186.546,2358.81 L 197.56,2371.04 L 205.791,2385.3 L 210.878,2400.95 L 212.598,2417.32 z " style="fill-opacity:1.000000;fill:rgb(103,198,105);stroke:rgb(0,0,0);stroke-width:2"/></g>
<g fill-rule="evenodd"><path d="M 212.598,2771.65 L 210.878,2788.02 L 205.791,2803.68 L 197.56,2817.94 L 186.546,2830.17 L 173.228,2839.84 L 158.19,2846.54 L 142.089,2849.96 L 125.628,2849.96 L 109.526,2846.54 L 94.4882,2839.84 L 81.1708,2830.17 L 70.1561,2817.94 L 61.9256,2803.68 L 56.8388,2788.02 L 55.1181,2771.65 L 56.8388,2755.28 L 61.9256,2739.63 L 70.1561,2725.37 L 81.1708,2713.14 L 94.4882,2703.46 L 109.526,2696.77 L 125.628,2693.34 L 142.089,2693.34 L 158.19,2696.77 L 173.228,2703.46 L 186.546,2713.14 L 197.56,2725.37 L 205.791,2739.63 L 210.878,2755.28 L 212.598,2771.65 z " style="fill-opacity:1.000000;fill:rgb(115,81,255);stroke:rgb(0,0,0);stroke-width:2"/></g>
<g fill-rule="evenodd"><path d="M 212.598,3992.13 L 210.878,4008.5 L 205.791,4024.15 L 197.56,4038.41 L 186.546,4050.64 L 173.228,4060.32 L 158.19,4067.01 L 142.089,4070.43 L 125.628,4070.43 L 109.526,4067.01 L 94.4882,4060.32 L 81.1708,4050.64 L 70.1561,4038.41 L 61.9256,4024.15 L 56.8388,4008.5 L 55.1181,3992.13 L 56.8388,3975.75 L 61.9256,3960.1 L 70.1561,3945.84 L 81.1708,3933.61 L 94.4882,3923.94 L 109.526,3917.24 L 125.628,3913.82 L 142.089,3913.82 L 158.19,3917.24 L 173.228,3923.94 L 186.546,3933.61 L 197.56,3945.84 L 205.791,3960.1 L 210.878,3975.75 L 212.598,3992.13 z " style="fill-opacity:1.000000;fill:rgb(74,236,41);stroke:rgb(0,0,0);stroke-width:2"/></g>
<g fill-rule="evenodd"><path d="M 212.598,4346.46 L 210.878,4362.83 L 205.791,4378.48 L 197.56,4392.74 L 186.546,4404.97 L 173.228,4414.65 L 158.19,4421.34 L 142.089,4424.77 L 125.628,4424.77 L 109.526,4421.34 L 94.4882,4414.65 L 81.1708,4404.97 L 70.1561,4392.74 L 61.9256,4378.48 L 56.8388,4362.83 L 55.1181,4346.46 L 56.8388,4330.09 L 61.9256,4314.43 L 70.1561,4300.17 L 81.1708,4287.94 L 94.4882,4278.27 L 109.526,4271.57 L 125.628,4268.15 L 142.089,4268.15 L 158.19,4271.57 L 173.228,4278.27 L 186.546,4287.94 L 197.56,4300.17 L 205.791,4314.43 L 210.878,4330.09 L 212.598,4346.46 z " style="fill-opacity:1.000000;fill:rgb(205,186,171);stroke:rgb(0,0,0);stroke-width:2"/></g>
<g fill-rule="evenodd"><path d="M 212.598,5960.63 L 210.878,5977 L 205.791,5992.66 L 197.56,6006.91 L 186.546,6019.15 L 173.228,6028.82 L 158.19,6035.52 L 142.089,6038.94 L 125.628,6038.94 L 109.526,6035.52 L 94.4882,6028.82 L 81.1708,6019.15 L 70.1561,6006.91 L 61.9256,5992.66 L 56.8388,5977 L 55.1181,5960.63 L 56.8388,5944.26 L 61.9256,5928.6 L 70.1561,5914.35 L 81.1708,5902.11 L 94.4882,5892.44 L 109.526,5885.74 L 125.628,5882.32 L 142.089,5882.32 L 158.19,5885.74 L 173.228,5892.44 L 186.546,5902.11 L 197.56,5914.35 L 205.791,5928.6 L 210.878,5944.26 L 212.598,5960.63 z " style="fill-opacity:1.000000;fill:rgb(242,251,227);stroke:rgb(0,0,0);stroke-width:2"/></g>
<g fill-rule="evenodd"><path d="M 212.598,5606.3 L 210.878,5622.67 L 205.791,5638.33 L 197.56,5652.58 L 186.546,5664.81 L 173.228,5674.49 L 158.19,5681.19 L 142.089,5684.61 L 125.628,5684.61 L 109.526,5681.19 L 94.4882,5674.49 L 81.1708,5664.81 L 70.1561,5652.58 L 61.9256,5638.33 L 56.8388,5622.67 L 55.1181,5606.3 L 56.8388,5589.93 L 61.9256,5574.27 L 70.1561,5560.02 L 81.1708,5547.78 L 94.4882,5538.11 L 109.526,5531.41 L 125.628,5527.99 L 142.089,5527.99 L 158.19,5531.41 L 173.228,5538.11 L 186.546,5547.78 L 197.56,5560.02 L 205.791,5574.27 L 210.878,5589.93 L 212.598,5606.3 z " style="fill-opacity:1.000000;fill:rgb(70,124,194);stroke:rgb(0,0,0);stroke-width:2"/></g>
<g fill-rule="evenodd"><path d="M 2377.95,2417.32 L 2376.23,2433.69 L 2371.15,2449.35 L 2362.91,2463.61 L 2351.9,2475.84 L 2338.58,2485.51 L 2323.54,2492.21 L 2307.44,2495.63 L 2290.98,2495.63 L 2274.88,2492.21 L 2259.84,2485.51 L 2246.53,2475.84 L 2235.51,2463.61 L 2227.28,2449.35 L 2222.19,2433.69 L 2220.47,2417.32 L 2222.19,2400.95 L 2227.28,2385.3 L 2235.51,2371.04 L 2246.53,2358.81 L 2259.84,2349.13 L 2274.88,2342.44 L 2290.98,2339.01 L 2307.44,2339.01 L 2323.54,2342.44 L 2338.58,2349.13 L 2351.9,2358.81 L 2362.91,2371.04 L 2371.15,2385.3 L 2376.23,2400.95 L 2377.95,2417.32 z " style="fill-opacity:1.000000;fill:rgb(84,248,27);stroke:rgb(0,0,0);stroke-width:2"/></g>
<g fill-rule="evenodd"><path d="M 1866.14,2771.65 L 1864.42,2788.02 L 1859.33,2803.68 L 1851.1,2817.94 L 1840.09,2830.17 L 1826.77,2839.84 L 1811.73,2846.54 L 1795.63,2849.96 L 1779.17,2849.96 L 1763.07,2846.54 L 1748.03,2839.84 L 1734.71,2830.17 L 1723.7,2817.94 L 1715.47,2803.68 L 1710.38,2788.02 L 1708.66,2771.65 L 1710.38,2755.28 L 1715.47,2739.63 L 1723.7,2725.37 L 1734.71,2713.14 L 1748.03,2703.46 L 1763.07,2696.77 L 1779.17,2693.34 L 1795.63,2693.34 L 1811.73,2696.77 L 1826.77,2703.46 L 1840.09,2713.14 L 1851.1,2725.37 L 1859.33,2739.63 L 1864.42,2755.28 L 1866.14,2771.65 z " style="fill-opacity:1.000000;fill:rgb(232,231,141);stroke:rgb(0,0,0);stroke-width:2"/></g>
<g fill-rule="evenodd"><path d="M 1866.14,4346.46 L 1864.42,4362.83 L 1859.33,4378.48 L 1851.1,4392.74 L 1840.09,4404.97 L 1826.77,4414.65 L 1811.73,4421.34 L 1795.63,4424.77 L 1779.17,4424.77 L 1763.07,4421.34 L 1748.03,4414.65 L 1734.71,4404.97 L 1723.7,4392.74 L 1715.47,4378.48 L 1710.38,4362.83 L 1708.66,4346.46 L 1710.38,4330.09 L 1715.47,4314.43 L 1723.7,4300.17 L 1734.71,4287.94 L 1748.03,4278.27 L 1763.07,4271.57 L 1779.17,4268.15 L 1795.63,4268.15 L 1811.73,4271.57 L 1826.77,4278.27 L 1840.09,4287.94 L 1851.1,4300.17 L 1859.33,4314.43 L 1864.42,4330.09 L 1866.14,4346.46 z " style="fill-opacity:1.000000;fill:rgb(118,90,46);stroke:rgb(0,0,0);stroke-width:2"/></g>
<g fill-rule="evenodd"><path d="M 2377.95,3992.13 L 2376.23,4008.5 L 2371.15,4024.15 L 2362.91,4038.41 L 2351.9,4050.64 L 2338.58,4060.32 L 2323.54,4067.01 L 2307.44,4070.43 L 2290.98,4070.43 L 2274.88,4067.01 L 2259.84,4060.32 L 2246.53,4050.64 L 2235.51,4038.41 L 2227.28,4024.15 L 2222.19,4008.5 L 2220.47,3992.13 L 2222.19,3975.75 L 2227.28,3960.1 L 2235.51,3945.84 L 2246.53,3933.61 L 2259.84,3923.94 L 2274.88,3917.24 L 2290.98,3913.82 L 2307.44,3913.82 L 2323.54,3917.24 L 2338.58,3923.94 L 2351.9,3933.61 L 2362.91,3945.84 L 2371.15,3960.1 L 2376.23,3975.75 L 2377.95,3992.13 z " style="fill-opacity:1.000000;fill:rgb(99,51,159);stroke:rgb(0,0,0);stroke-width:2"/></g>
<g fill-rule="evenodd"><path d="M 2377.95,5566.93 L 2376.23,5583.3 L 2371.15,5598.96 L 2362.91,5613.21 L 2351.9,5625.44 L 2338.58,5635.12 L 2323.54,5641.82 L 2307.44,5645.24 L 2290.98,5645.24 L 2274.88,5641.82 L 2259.84,5635.12 L 2246.53,5625.44 L 2235.51,5613.21 L 2227.28,5598.96 L 2222.19,5583.3 L 2220.47,5566.93 L 2222.19,5550.56 L 2227.28,5534.9 L 2235.51,5520.65 L 2246.53,5508.41 L 2259.84,5498.74 L 2274.88,5492.04 L 2290.98,5488.62 L 2307.44,5488.62 L 2323.54,5492.04 L 2338.58,5498.74 L 2351.9,5508.41 L 2362.91,5520.65 L 2371.15,5534.9 L 2376.23,5550.56 L 2377.95,5566.93 z " style="fill-opacity:1.000000;fill:rgb(201,154,102);stroke:rgb(0,0,0);stroke-width:2"/></g>
<g fill-rule="evenodd"><path d="M 1866.14,5921.26 L 1864.42,5937.63 L 1859.33,5953.29 L 1851.1,5967.54 L 1840.09,5979.78 L 1826.77,5989.45 L 1811.73,5996.15 L 1795.63,5999.57 L 1779.17,5999.57 L 1763.07,5996.15 L 1748.03,5989.45 L 1734.71,5979.78 L 1723.7,5967.54 L 1715.47,5953.29 L 1710.38,5937.63 L 1708.66,5921.26 L 1710.38,5904.89 L 1715.47,5889.23 L 1723.7,5874.98 L 1734.71,5862.74 L 1748.03,5853.07 L 1763.07,5846.37 L 1779.17,5842.95 L 1795.63,5842.95 L 1811.73,5846.37 L 1826.77,5853.07 L 1840.09,5862.74 L 1851.1,5874.98 L 1859.33,5889.23 L 1864.42,5904.89 L 1866.14,5921.26 z " style="fill-opacity:1.000000;fill:rgb(50,13,183);stroke:rgb(0,0,0);stroke-width:2"/></g>
<g fill-rule="evenodd"><path d="M 3440.94,2781.5 L 3439.22,2797.87 L 3434.14,2813.52 L 3425.91,2827.78 L 3414.89,2840.01 L 3401.57,2849.69 L 3386.54,2856.38 L 3370.44,2859.8 L 3353.97,2859.8 L 3337.87,2856.38 L 3322.83,2849.69 L 3309.52,2840.01 L 3298.5,2827.78 L 3290.27,2813.52 L 3285.19,2797.87 L 3283.46,2781.5 L 3285.19,2765.13 L 3290.27,2749.47 L 3298.5,2735.21 L 3309.52,2722.98 L 3322.83,2713.31 L 3337.87,2706.61 L 3353.97,2703.19 L 3370.44,2703.19 L 3386.54,2706.61 L 3401.57,2713.31 L 3414.89,2722.98 L 3425.91,2735.21 L 3434.14,2749.47 L 3439.22,2765.13 L 3440.94,2781.5 z " style="fill-opacity:1.000000;fill:rgb(49,88,163);stroke:rgb(0,0,0);stroke-width:2"/></g>
<g fill-rule="evenodd"><path d="M 3952.76,2427.17 L 3951.04,2443.54 L 3945.95,2459.19 L 3937.72,2473.45 L 3926.7,2485.68 L 3913.39,2495.36 L 3898.35,2502.05 L 3882.25,2505.47 L 3865.79,2505.47 L 3849.68,2502.05 L 3834.65,2495.36 L 3821.33,2485.68 L 3810.31,2473.45 L 3802.08,2459.19 L 3797,2443.54 L 3795.28,2427.17 L 3797,2410.79 L 3802.08,2395.14 L 3810.31,2380.88 L 3821.33,2368.65 L 3834.65,2358.97 L 3849.68,2352.28 L 3865.79,2348.86 L 3882.25,2348.86 L 3898.35,2352.28 L 3913.39,2358.97 L 3926.7,2368.65 L 3937.72,2380.88 L 3945.95,2395.14 L 3951.04,2410.79 L 3952.76,2427.17 z " style="fill-opacity:1.000000;fill:rgb(90,37,93);stroke:rgb(0,0,0);stroke-width:2"/></g>
<g fill-rule="evenodd"><path d="M 3952.76,3992.13 L 3951.04,4008.5 L 3945.95,4024.15 L 3937.72,4038.41 L 3926.7,4050.64 L 3913.39,4060.32 L 3898.35,4067.01 L 3882.25,4070.43 L 3865.79,4070.43 L 3849.68,4067.01 L 3834.65,4060.32 L 3821.33,4050.64 L 3810.31,4038.41 L 3802.08,4024.15 L 3797,4008.5 L 3795.28,3992.13 L 3797,3975.75 L 3802.08,3960.1 L 3810.31,3945.84 L 3821.33,3933.61 L 3834.65,3923.94 L 3849.68,3917.24 L 3865.79,3913.82 L 3882.25,3913.82 L 3898.35,3917.24 L 3913.39,3923.94 L 3926.7,3933.61 L 3937.72,3945.84 L 3945.95,3960.1 L 3951.04,3975.75 L 3952.76,3992.13 z " style="fill-opacity:1.000000;fill:rgb(5,23,88);stroke:rgb(0,0,0);stroke-width:2"/></g>
<g fill-rule="evenodd"><path d="M 3440.94,4346.46 L 3439.22,4362.83 L 3434.14,4378.48 L 3425.91,4392.74 L 3414.89,4404.97 L 3401.57,4414.65 L 3386.54,4421.34 L 3370.44,4424.77 L 3353.97,4424.77 L 3337.87,4421.34 L 3322.83,4414.65 L 3309.52,4404.97 L 3298.5,4392.74 L 3290.27,4378.48 L 3285.19,4362.83 L 3283.46,4346.46 L 3285.19,4330.09 L 3290.27,4314.43 L 3298.5,4300.17 L 3309.52,4287.94 L 3322.83,4278.27 L 3337.87,4271.57 L 3353.97,4268.15 L 3370.44,4268.15 L 3386.54,4271.57 L 3401.57,4278.27 L 3414.89,4287.94 L 3425.91,4300.17 L 3434.14,4314.43 L 3439.22,4330.09 L 3440.94,4346.46 z " style="fill-opacity:1.000000;fill:rgb(233,94,212);stroke:rgb(0,0,0);stroke-width:2"/></g>
<g fill-rule="evenodd"><path d="M 3440.94,5921.26 L 3439.22,5937.63 L 3434.14,5953.29 L 3425.91,5967.54 L 3414.89,5979.78 L 3401.57,5989.45 L 3386.54,5996.15 L 3370.44,5999.57 L 3353.97,5999.57 L 3337.87,5996.15 L 3322.83,5989.45 L 3309.52,5979.78 L 3298.5,5967.54 L 3290.27,5953.29 L 3285.19,5937.63 L 3283.46,5921.26 L 3285.19,5904.89 L 3290.27,5889.23 L 3298.5,5874.98 L 3309.52,5862.74 L 3322.83,5853.07 L 3337.87,5846.37 L 3353.97,5842.95 L 3370.44,5842.95 L 3386.54,5846.37 L 3401.57,5853.07 L 3414.89,5862.74 L 3425.91,5874.98 L 3434.14,5889.23 L 3439.22,5904.89 L 3440.94,5921.26 z " style="fill-opacity:1.000000;fill:rgb(171,178,205);stroke:rgb(0,0,0);stroke-width:2"/></g>
<g fill-rule="evenodd"><path d="M 3952.76,5566.93 L 3951.04,5583.3 L 3945.95,5598.96 L 3937.72,5613.21 L 3926.7,5625.44 L 3913.39,5635.12 L 3898.35,5641.82 L 3882.25,5645.24 L 3865.79,5645.24 L 3849.68,5641.82 L 3834.65,5635.12 L 3821.33,5625.44 L 3810.31,5613.21 L 3802.08,5598.96 L 3797,5583.3 L 3795.28,5566.93 L 3797,5550.56 L 3802.08,5534.9 L 3810.31,5520.65 L 3821.33,5508.41 L 3834.65,5498.74 L 3849.68,5492.04 L 3865.79,5488.62 L 3882.25,5488.62 L 3898.35,5492.04 L 3913.39,5498.74 L 3926.7,5508.41 L 3937.72,5520.65 L 3945.95,5534.9 L 3951.04,5550.56 L 3952.76,5566.93 z " style="fill-opacity:1.000000;fill:rgb(198,155,180);stroke:rgb(0,0,0);stroke-width:2"/></g>
<g fill-rule="evenodd"><path d="M 5527.56,2417.32 L 5525.84,2433.69 L 5520.75,2449.35 L 5512.52,2463.61 L 5501.51,2475.84 L 5488.19,2485.51 L 5473.15,2492.21 L 5457.05,2495.63 L 5440.59,2495.63 L 5424.49,2492.21 L 5409.45,2485.51 L 5396.13,2475.84 L 5385.12,2463.61 L 5376.89,2449.35 L 5371.8,2433.69 L 5370.08,2417.32 L 5371.8,2400.95 L 5376.89,2385.3 L 5385.12,2371.04 L 5396.13,2358.81 L 5409.45,2349.13 L 5424.49,2342.44 L 5440.59,2339.01 L 5457.05,2339.01 L 5473.15,2342.44 L 5488.19,2349.13 L 5501.51,2358.81 L 5512.52,2371.04 L 5520.75,2385.3 L 5525.84,2400.95 L 5527.56,2417.32 z " style="fill-opacity:1.000000;fill:rgb(84,17,14);stroke:rgb(0,0,0);stroke-width:2"/></g>
<g fill-rule="evenodd"><path d="M 5015.75,2771.65 L 5014.03,2788.02 L 5008.94,2803.68 L 5000.71,2817.94 L 4989.7,2830.17 L 4976.38,2839.84 L 4961.34,2846.54 L 4945.24,2849.96 L 4928.78,2849.96 L 4912.68,2846.54 L 4897.64,2839.84 L 4884.32,2830.17 L 4873.31,2817.94 L 4865.08,2803.68 L 4859.99,2788.02 L 4858.27,2771.65 L 4859.99,2755.28 L 4865.08,2739.63 L 4873.31,2725.37 L 4884.32,2713.14 L 4897.64,2703.46 L 4912.68,2696.77 L 4928.78,2693.34 L 4945.24,2693.34 L 4961.34,2696.77 L 4976.38,2703.46 L 4989.7,2713.14 L 5000.71,2725.37 L 5008.94,2739.63 L 5014.03,2755.28 L 5015.75,2771.65 z " style="fill-opacity:1.000000;fill:rgb(130,116,65);stroke:rgb(0,0,0);stroke-width:2"/></g>
<g fill-rule="evenodd"><path d="M 5015.75,4346.46 L 5014.03,4362.83 L 5008.94,4378.48 L 5000.71,4392.74 L 4989.7,4404.97 L 4976.38,4414.65 L 4961.34,4421.34 L 4945.24,4424.77 L 4928.78,4424.77 L 4912.68,4421.34 L 4897.64,4414.65 L 4884.32,4404.97 L 4873.31,4392.74 L 4865.08,4378.48 L 4859.99,4362.83 L 4858.27,4346.46 L 4859.99,4330.09 L 4865.08,4314.43 L 4873.31,4300.17 L 4884.32,4287.94 L 4897.64,4278.27 L 4912.68,4271.57 L 4928.78,4268.15 L 4945.24,4268.15 L 4961.34,4271.57 L 4976.38,4278.27 L 4989.7,4287.94 L 5000.71,4300.17 L 5008.94,4314.43 L 5014.03,4330.09 L 5015.75,4346.46 z " style="fill-opacity:1.000000;fill:rgb(33,61,220);stroke:rgb(0,0,0);stroke-width:2"/></g>
<g fill-rule="evenodd"><path d="M 5527.56,3992.13 L 5525.84,4008.5 L 5520.75,4024.15 L 5512.52,4038.41 L 5501.51,4050.64 L 5488.19,4060.32 L 5473.15,4067.01 L 5457.05,4070.43 L 5440.59,4070.43 L 5424.49,4067.01 L 5409.45,4060.32 L 5396.13,4050.64 L 5385.12,4038.41 L 5376.89,4024.15 L 5371.8,4008.5 L 5370.08,3992.13 L 5371.8,3975.75 L 5376.89,3960.1 L 5385.12,3945.84 L 5396.13,3933.61 L 5409.45,3923.94 L 5424.49,3917.24 L 5440.59,3913.82 L 5457.05,3913.82 L 5473.15,3917.24 L 5488.19,3923.94 L 5501.51,3933.61 L 5512.52,3945.84 L 5520.75,3960.1 L 5525.84,3975.75 L 5527.56,3992.13 z " style="fill-opacity:1.000000;fill:rgb(135,112,233);stroke:rgb(0,0,0);stroke-width:2"/></g>
<g fill-rule="evenodd"><path d="M 5015.75,5921.26 L 5014.03,5937.63 L 5008.94,5953.29 L 5000.71,5967.54 L 4989.7,5979.78 L 4976.38,5989.45 L 4961.34,5996.15 L 4945.24,5999.57 L 4928.78,5999.57 L 4912.68,5996.15 L 4897.64,5989.45 L 4884.32,5979.78 L 4873.31,5967.54 L 4865.08,5953.29 L 4859.99,5937.63 L 4858.27,5921.26 L 4859.99,5904.89 L 4865.08,5889.23 L 4873.31,5874.98 L 4884.32,5862.74 L 4897.64,5853.07 L 4912.68,5846.37 L 4928.78,5842.95 L 4945.24,5842.95 L 4961.34,5846.37 L 4976.38,5853.07 L 4989.7,5862.74 L 5000.71,5874.98 L 5008.94,5889.23 L 5014.03,5904.89 L 5015.75,5921.26 z " style="fill-opacity:1.000000;fill:rgb(62,161,65);stroke:rgb(0,0,0);stroke-width:2"/></g>
<g fill-rule="evenodd"><path d="M 5527.56,5566.93 L 5525.84,5583.3 L 5520.75,5598.96 L 5512.52,5613.21 L 5501.51,5625.44 L 5488.19,5635.12 L 5473.15,5641.82 L 5457.05,5645.24 L 5440.59,5645.24 L 5424.49,5641.82 L 5409.45,5635.12 L 5396.13,5625.44 L 5385.12,5613.21 L 5376.89,5598.96 L 5371.8,5583.3 L 5370.08,5566.93 L 5371.8,5550.56 L 5376.89,5534.9 L 5385.12,5520.65 L 5396.13,5508.41 L 5409.45,5498.74 L 5424.49,5492.04 L 5440.59,5488.62 L 5457.05,5488.62 L 5473.15,5492.04 L 5488.19,5498.74 L 5501.51,5508.41 L 5512.52,5520.65 L 5520.75,5534.9 L 5525.84,5550.56 L 5527.56,5566.93 z " style="fill-opacity:1.000000;fill:rgb(225,252,103);stroke:rgb(0,0,0);stroke-width:2"/></g>
<g fill-rule="evenodd"><path d="M 6590.55,2771.65 L 6588.83,2788.02 L 6583.74,2803.68 L 6575.51,2817.94 L 6564.5,2830.17 L 6551.18,2839.84 L 6536.14,2846.54 L 6520.04,2849.96 L 6503.58,2849.96 L 6487.48,2846.54 L 6472.44,2839.84 L 6459.12,2830.17 L 6448.11,2817.94 L 6439.88,2803.68 L 6434.79,2788.02 L 6433.07,2771.65 L 6434.79,2755.28 L 6439.88,2739.63 L 6448.11,2725.37 L 6459.12,2713.14 L 6472.44,2703.46 L 6487.48,2696.77 L 6503.58,2693.34 L 6520.04,2693.34 L 6536.14,2696.77 L 6551.18,2703.46 L 6564.5,2713.14 L 6575.51,2725.37 L 6583.74,2739.63 L 6588.83,2755.28 L 6590.55,2771.65 z " style="fill-opacity:1.000000;fill:rgb(62,1,126);stroke:rgb(0,0,0);stroke-width:2"/></g>
<g fill-rule="evenodd"><path d="M 7102.36,2417.32 L 7100.64,2433.69 L 7095.55,2449.35 L 7087.32,2463.61 L 7076.31,2475.84 L 7062.99,2485.51 L 7047.95,2492.21 L 7031.85,2495.63 L 7015.39,2495.63 L 6999.29,2492.21 L 6984.25,2485.51 L 6970.93,2475.84 L 6959.92,2463.61 L 6951.69,2449.35 L 6946.6,2433.69 L 6944.88,2417.32 L 6946.6,2400.95 L 6951.69,2385.3 L 6959.92,2371.04 L 6970.93,2358.81 L 6984.25,2349.13 L 6999.29,2342.44 L 7015.39,2339.01 L 7031.85,2339.01 L 7047.95,2342.44 L 7062.99,2349.13 L 7076.31,2358.81 L 7087.32,2371.04 L 7095.55,2385.3 L 7100.64,2400.95 L 7102.36,2417.32 z " style="fill-opacity:1.000000;fill:rgb(151,234,220);stroke:rgb(0,0,0);stroke-width:2"/></g>
<g fill-rule="evenodd"><path d="M 7102.36,3992.13 L 7100.64,4008.5 L 7095.55,4024.15 L 7087.32,4038.41 L 7076.31,4050.64 L 7062.99,4060.32 L 7047.95,4067.01 L 7031.85,4070.43 L 7015.39,4070.43 L 6999.29,4067.01 L 6984.25,4060.32 L 6970.93,4050.64 L 6959.92,4038.41 L 6951.69,4024.15 L 6946.6,4008.5 L 6944.88,3992.13 L 6946.6,3975.75 L 6951.69,3960.1 L 6959.92,3945.84 L 6970.93,3933.61 L 6984.25,3923.94 L 6999.29,3917.24 L 7015.39,3913.82 L 7031.85,3913.82 L 7047.95,3917.24 L 7062.99,3923.94 L 7076.31,3933.61 L 7087.32,3945.84 L 7095.55,3960.1 L 7100.64,3975.75 L 7102.36,3992.13 z " style="fill-opacity:1.000000;fill:rgb(107,150,143);stroke:rgb(0,0,0);stroke-width:2"/></g>
<g fill-rule="evenodd"><path d="M 6590.55,4346.46 L 6588.83,4362.83 L 6583.74,4378.48 L 6575.51,4392.74 L 6564.5,4404.97 L 6551.18,4414.65 L 6536.14,4421.34 L 6520.04,4424.77 L 6503.58,4424.77 L 6487.48,4421.34 L 6472.44,4414.65 L 6459.12,4404.97 L 6448.11,4392.74 L 6439.88,4378.48 L 6434.79,4362.83 L 6433.07,4346.46 L 6434.79,4330.09 L 6439.88,4314.43 L 6448.11,4300.17 L 6459.12,4287.94 L 6472.44,4278.27 L 6487.48,4271.57 L 6503.58,4268.15 L 6520.04,4268.15 L 6536.14,4271.57 L 6551.18,4278.27 L 6564.5,4287.94 L 6575.51,4300.17 L 6583.74,4314.43 L 6588.83,4330.09 L 6590.55,4346.46 z " style="fill-opacity:1.000000;fill:rgb(56,92,42);stroke:rgb(0,0,0);stroke-width:2"/></g>
<g fill-rule="evenodd"><path d="M 6590.55,5921.26 L 6588.83,5937.63 L 6583.74,5953.29 L 6575.51,5967.54 L 6564.5,5979.78 L 6551.18,5989.45 L 6536.14,5996.15 L 6520.04,5999.57 L 6503.58,5999.57 L 6487.48,5996.15 L 6472.44,5989.45 L 6459.12,5979.78 L 6448.11,5967.54 L 6439.88,5953.29 L 6434.79,5937.63 L 6433.07,5921.26 L 6434.79,5904.89 L 6439.88,5889.23 L 6448.11,5874.98 L 6459.12,5862.74 L 6472.44,5853.07 L 6487.48,5846.37 L 6503.58,5842.95 L 6520.04,5842.95 L 6536.14,5846.37 L 6551.18,5853.07 L 6564.5,5862.74 L 6575.51,5874.98 L 6583.74,5889.23 L 6588.83,5904.89 L 6590.55,5921.26 z " style="fill-opacity:1.000000;fill:rgb(236,176,59);stroke:rgb(0,0,0);stroke-width:2"/></g>
<g fill-rule="evenodd"><path d="M 7102.36,5566.93 L 7100.64,5583.3 L 7095.55,5598.96 L 7087.32,5613.21 L 7076.31,5625.44 L 7062.99,5635.12 L 7047.95,5641.82 L 7031.85,5645.24 L 7015.39,5645.24 L 6999.29,5641.82 L 6984.25,5635.12 L 6970.93,5625.44 L 6959.92,5613.21 L 6951.69,5598.96 L 6946.6,5583.3 L 6944.88,5566.93 L 6946.6,5550.56 L 6951.69,5534.9 L 6959.92,5520.65 L 6970.93,5508.41 L 6984.25,5498.74 L 6999.29,5492.04 L 7015.39,5488.62 L 7031.85,5488.62 L 7047.95,5492.04 L 7062.99,5498.74 L 7076.31,5508.41 L 7087.32,5520.65 L 7095.55,5534.9 L 7100.64,5550.56 L 7102.36,5566.93 z " style="fill-opacity:1.000000;fill:rgb(251,50,175);stroke:rgb(0,0,0);stroke-width:2"/></g>
<g fill-rule="evenodd"><path d="M 8677.17,2417.32 L 8675.44,2433.69 L 8670.36,2449.35 L 8662.13,2463.61 L 8651.11,2475.84 L 8637.8,2485.51 L 8622.76,2492.21 L 8606.66,2495.63 L 8590.19,2495.63 L 8574.09,2492.21 L 8559.06,2485.51 L 8545.74,2475.84 L 8534.72,2463.61 L 8526.49,2449.35 L 8521.41,2433.69 L 8519.69,2417.32 L 8521.41,2400.95 L 8526.49,2385.3 L 8534.72,2371.04 L 8545.74,2358.81 L 8559.06,2349.13 L 8574.09,2342.44 L 8590.19,2339.01 L 8606.66,2339.01 L 8622.76,2342.44 L 8637.8,2349.13 L 8651.11,2358.81 L 8662.13,2371.04 L 8670.36,2385.3 L 8675.44,2400.95 L 8677.17,2417.32 z " style="fill-opacity:1.000000;fill:rgb(60,84,236);stroke:rgb(0,0,0);stroke-width:2"/></g>
<g fill-rule="evenodd"><path d="M 8165.35,2771.65 L 8163.63,2788.02 L 8158.55,2803.68 L 8150.32,2817.94 L 8139.3,2830.17 L 8125.98,2839.84 L 8110.95,2846.54 L 8094.84,2849.96 L 8078.38,2849.96 L 8062.28,2846.54 L 8047.24,2839.84 L 8033.93,2830.17 L 8022.91,2817.94 L 8014.68,2803.68 L 8009.59,2788.02 L 8007.87,2771.65 L 8009.59,2755.28 L 8014.68,2739.63 L 8022.91,2725.37 L 8033.93,2713.14 L 8047.24,2703.46 L 8062.28,2696.77 L 8078.38,2693.34 L 8094.84,2693.34 L 8110.95,2696.77 L 8125.98,2703.46 L 8139.3,2713.14 L 8150.32,2725.37 L 8158.55,2739.63 L 8163.63,2755.28 L 8165.35,2771.65 z " style="fill-opacity:1.000000;fill:rgb(24,219,92);stroke:rgb(0,0,0);stroke-width:2"/></g>
<g fill-rule="evenodd"><path d="M 8165.35,4346.46 L 8163.63,4362.83 L 8158.55,4378.48 L 8150.32,4392.74 L 8139.3,4404.97 L 8125.98,4414.65 L 8110.95,4421.34 L 8094.84,4424.77 L 8078.38,4424.77 L 8062.28,4421.34 L 8047.24,4414.65 L 8033.93,4404.97 L 8022.91,4392.74 L 8014.68,4378.48 L 8009.59,4362.83 L 8007.87,4346.46 L 8009.59,4330.09 L 8014.68,4314.43 L 8022.91,4300.17 L 8033.93,4287.94 L 8047.24,4278.27 L 8062.28,4271.57 L 8078.38,4268.15 L 8094.84,4268.15 L 8110.95,4271.57 L 8125.98,4278.27 L 8139.3,4287.94 L 8150.32,4300.17 L 8158.55,4314.43 L 8163.63,4330.09 L 8165.35,4346.46 z " style="fill-opacity:1.000000;fill:rgb(2,26,254);stroke:rgb(0,0,0);stroke-width:2"/></g>
<g fill-rule="evenodd"><path d="M 8677.17,3992.13 L 8675.44,4008.5 L 8670.36,4024.15 L 8662.13,4038.41 L 8651.11,4050.64 L 8637.8,4060.32 L 8622.76,4067.01 L 8606.66,4070.43 L 8590.19,4070.43 L 8574.09,4067.01 L 8559.06,4060.32 L 8545.74,4050.64 L 8534.72,4038.41 L 8526.49,4024.15 L 8521.41,4008.5 L 8519.69,3992.13 L 8521.41,3975.75 L 8526.49,3960.1 L 8534.72,3945.84 L 8545.74,3933.61 L 8559.06,3923.94 L 8574.09,3917.24 L 8590.19,3913.82 L 8606.66,3913.82 L 8622.76,3917.24 L 8637.8,3923.94 L 8651.11,3933.61 L 8662.13,3945.84 L 8670.36,3960.1 L 8675.44,3975.75 L 8677.17,3992.13 z " style="fill-opacity:1.000000;fill:rgb(67,251,250);stroke:rgb(0,0,0);stroke-width:2"/></g>
<g fill-rule="evenodd"><path d="M 8677.17,5566.93 L 8675.44,5583.3 L 8670.36,5598.96 L 8662.13,5613.21 L 8651.11,5625.44 L 8637.8,5635.12 L 8622.76,5641.82 L 8606.66,5645.24 L 8590.19,5645.24 L 8574.09,5641.82 L 8559.06,5635.12 L 8545.74,5625.44 L 8534.72,5613.21 L 8526.49,5598.96 L 8521.41,5583.3 L 8519.69,5566.93 L 8521.41,5550.56 L 8526.49,5534.9 L 8534.72,5520.65 L 8545.74,5508.41 L 8559.06,5498.74 L 8574.09,5492.04 L 8590.19,5488.62 L 8606.66,5488.62 L 8622.76,5492.04 L 8637.8,5498.74 L 8651.11,5508.41 L 8662.13,5520.65 L 8670.36,5534.9 L 8675.44,5550.56 L 8677.17,5566.93 z " style="fill-opacity:1.000000;fill:rgb(170,58,251);stroke:rgb(0,0,0);stroke-width:2"/></g>
<g fill-rule="evenodd"><path d="M 8165.35,5921.26 L 8163.63,5937.63 L 8158.55,5953.29 L 8150.32,5967.54 L 8139.3,5979.78 L 8125.98,5989.45 L 8110.95,5996.15 L 8094.84,5999.57 L 8078.38,5999.57 L 8062.28,5996.15 L 8047.24,5989.45 L 8033.93,5979.78 L 8022.91,5967.54 L 8014.68,5953.29 L 8009.59,5937.63 L 8007.87,5921.26 L 8009.59,5904.89 L 8014.68,5889.23 L 8022.91,5874.98 L 8033.93,5862.74 L 8047.24,5853.07 L 8062.28,5846.37 L 8078.38,5842.95 L 8094.84,5842.95 L 8110.95,5846.37 L 8125.98,5853.07 L 8139.3,5862.74 L 8150.32,5874.98 L 8158.55,5889.23 L 8163.63,5904.89 L 8165.35,5921.26 z " style="fill-opacity:1.000000;fill:rgb(41,209,230);stroke:rgb(0,0,0);stroke-width:2"/></g>
<g fill-rule="evenodd"><path d="M 169.291,7185.04 L 169.291,7118.11 L 295.276,7118.11 L 295.276,7185.04 L 169.291,7185.04 z " style="fill-opacity:1.000000;fill:rgb(5,60,124);stroke:rgb(0,0,0);stroke-width:2"/></g>
<g fill-rule="evenodd"><path d="M 1906.17,7118.11 L 1948.82,7118.11 L 1948.82,7185.04 L 1906.17,7185.04 L 1901.84,7187.54 L 1894.01,7190.08 L 1885.83,7190.94 L 1760.4,7190.94 L 1634.14,7317.21 L 1628.17,7322.11 L 1621.37,7325.74 L 1613.98,7327.98 L 1606.3,7328.74 L 507.874,7328.74 L 499.689,7327.88 L 491.861,7325.34 L 487.528,7322.83 L 444.882,7322.83 L 444.882,7255.91 L 487.527,7255.91 L 491.861,7253.4 L 499.689,7250.86 L 507.874,7250 L 1589.99,7250 L 1716.26,7123.74 L 1722.22,7118.84 L 1729.03,7115.2 L 1736.41,7112.96 L 1744.09,7112.2 L 1885.83,7112.2 L 1894.01,7113.07 L 1901.84,7115.61 L 1906.17,7118.11 z " style="fill-opacity:1.000000;fill:rgb(148,117,216);stroke:rgb(0,0,0);stroke-width:2"/></g>
<g fill-rule="evenodd"><path d="M 3480.98,7118.11 L 3523.62,7118.11 L 3523.62,7185.04 L 3480.98,7185.04 L 3476.64,7187.54 L 3468.82,7190.08 L 3460.63,7190.94 L 2380.48,7190.95 L 2254.22,7317.21 L 2248.25,7322.11 L 2241.44,7325.74 L 2234.06,7327.98 L 2226.38,7328.74 L 2161.42,7328.74 L 2153.23,7327.88 L 2145.4,7325.34 L 2141.07,7322.83 L 2098.43,7322.83 L 2098.43,7255.91 L 2141.07,7255.91 L 2145.4,7253.4 L 2153.23,7250.86 L 2161.42,7250 L 2210.07,7250 L 2336.33,7123.74 L 2342.3,7118.84 L 2349.11,7115.2 L 2356.49,7112.96 L 2364.17,7112.2 L 3460.63,7112.2 L 3468.82,7113.07 L 3476.64,7115.61 L 3480.98,7118.11 z " style="fill-opacity:1.000000;fill:rgb(190,97,137);stroke:rgb(0,0,0);stroke-width:2"/></g>
<g fill-rule="evenodd"><path d="M 6865.48,7255.91 L 6869.81,7253.4 L 6877.64,7250.86 L 6885.83,7250 L 7889.2,7250 L 8015.47,7123.74 L 8021.43,7118.84 L 8028.24,7115.2 L 8035.63,7112.96 L 8043.31,7112.2 L 8185.04,7112.2 L 8193.22,7113.07 L 8201.05,7115.61 L 8205.39,7118.11 L 8248.03,7118.11 L 8248.03,7185.04 L 8205.39,7185.04 L 8201.05,7187.54 L 8193.22,7190.08 L 8185.04,7190.94 L 8059.61,7190.94 L 7933.35,7317.21 L 7927.38,7322.11 L 7920.58,7325.74 L 7913.19,7327.98 L 7905.51,7328.74 L 6885.83,7328.74 L 6877.64,7327.88 L 6869.81,7325.34 L 6865.48,7322.83 L 6822.83,7322.83 L 6822.83,7255.91 L 6865.48,7255.91 z " style="fill-opacity:1.000000;fill:rgb(249,92,187);stroke:rgb(0,0,0);stroke-width:2"/></g>
<g fill-rule="evenodd"><path d="M 6630.58,7118.11 L 6673.23,7118.11 L 6673.23,7185.04 L 6630.58,7185.04 L 6626.25,7187.54 L 6618.42,7190.08 L 6610.24,7190.94 L 6484.81,7190.94 L 6358.55,7317.21 L 6352.58,7322.11 L 6345.77,7325.74 L 6338.39,7327.98 L 6330.71,7328.74 L 5311.02,7328.74 L 5302.84,7327.88 L 5295.01,7325.34 L 5290.68,7322.83 L 5248.03,7322.83 L 5248.03,7255.91 L 5290.68,7255.91 L 5295.01,7253.4 L 5302.84,7250.86 L 5311.02,7250 L 6314.4,7250 L 6440.67,7123.74 L 6446.63,7118.84 L 6453.44,7115.2 L 6460.82,7112.96 L 6468.5,7112.2 L 6610.24,7112.2 L 6618.42,7113.07 L 6626.25,7115.61 L 6630.58,7118.11 z " style="fill-opacity:1.000000;fill:rgb(168,153,15);stroke:rgb(0,0,0);stroke-width:2"/></g>
<g fill-rule="evenodd"><path d="M 5055.78,7118.11 L 5098.43,7118.11 L 5098.43,7185.04 L 5055.78,7185.04 L 5051.45,7187.54 L 5043.62,7190.08 L 5035.43,7190.94 L 4910.01,7190.94 L 4783.74,7317.21 L 4777.78,7322.11 L 4770.97,7325.74 L 4763.59,7327.98 L 4755.91,7328.74 L 3736.22,7328.74 L 3728.03,7327.88 L 3720.21,7325.34 L 3715.87,7322.83 L 3673.23,7322.83 L 3673.23,7255.91 L 3715.87,7255.91 L 3720.21,7253.4 L 3728.03,7250.86 L 3736.22,7250 L 4739.6,7250 L 4865.86,7123.74 L 4871.83,7118.84 L 4878.63,7115.2 L 4886.02,7112.96 L 4893.7,7112.2 L 5035.43,7112.2 L 5043.62,7113.07 L 5051.45,7115.61 L 5055.78,7118.11 z " style="fill-opacity:1.000000;fill:rgb(149,177,235);stroke:rgb(0,0,0);stroke-width:2"/></g>
<g fill-rule="evenodd"><path d="M 8440.28,7255.91 L 8444.62,7253.4 L 8452.44,7250.86 L 8460.63,7250 L 8509.28,7250 L 9070.87,6688.42 L 9070.87,1689.54 L 8511.53,1130.2 L 8506.64,1124.24 L 8503,1117.43 L 8500.76,1110.04 L 8500,1102.36 L 8500,1023.62 L 8476.38,1023.62 L 8476.38,956.693 L 8518.82,956.693 L 8527.2,952.714 L 8535.25,951.003 L 8543.49,951.003 L 8551.54,952.714 L 8559.92,956.693 L 8602.36,956.693 L 8602.36,1023.62 L 8578.74,1023.62 L 8578.74,1086.05 L 9138.08,1645.39 L 9142.97,1651.36 L 9146.61,1658.16 L 9148.85,1665.55 L 9149.61,1673.23 L 9149.61,6704.72 L 9148.85,6712.41 L 9146.61,6719.79 L 9142.97,6726.6 L 9138.08,6732.56 L 8553.43,7317.21 L 8547.46,7322.11 L 8540.66,7325.74 L 8533.27,7327.98 L 8525.59,7328.74 L 8460.63,7328.74 L 8452.44,7327.88 L 8444.62,7325.34 L 8440.28,7322.83 L 8397.64,7322.83 L 8397.64,7255.91 L 8440.28,7255.91 z " style="fill-opacity:1.000000;fill:rgb(241,179,5);stroke:rgb(0,0,0);stroke-width:2"/></g>
<g fill-rule="evenodd"><path d="M 569.869,3972 L 342.24,3744.37 L 337.344,3738.41 L 333.706,3731.6 L 331.465,3724.22 L 330.709,3716.54 L 330.709,2692.91 L 331.465,2685.23 L 333.706,2677.85 L 337.344,2671.04 L 342.24,2665.07 L 569.869,2437.45 L 568.65,2433.69 L 566.929,2417.32 L 568.65,2400.95 L 573.737,2385.3 L 581.967,2371.04 L 592.982,2358.81 L 606.299,2349.13 L 606.299,1778.11 L 607.056,1770.43 L 609.296,1763.04 L 612.934,1756.24 L 617.83,1750.27 L 2014.05,354.051 L 2020.02,349.155 L 2026.82,345.516 L 2034.21,343.276 L 2041.89,342.52 L 6044.49,342.52 L 6359.73,27.2793 L 6365.69,22.3831 L 6372.5,18.7449 L 6379.88,16.5045 L 6387.57,15.748 L 8050.04,15.748 L 8057.72,16.5045 L 8065.11,18.7449 L 8071.92,22.3831 L 8077.88,27.2793 L 8567.21,516.605 L 8572.11,522.571 L 8575.74,529.378 L 8577.98,536.763 L 8578.74,544.444 L 8578.74,818.898 L 8602.36,818.898 L 8602.36,885.827 L 8559.92,885.826 L 8551.54,889.805 L 8543.49,891.517 L 8535.25,891.517 L 8527.2,889.805 L 8518.82,885.826 L 8476.38,885.827 L 8476.38,818.898 L 8500,818.898 L 8500,560.752 L 8033.74,94.4882 L 6403.87,94.4882 L 6116.47,381.89 L 6139.65,405.068 L 6144.55,411.034 L 6148.18,417.841 L 6150.42,425.226 L 6151.18,432.907 L 6151.18,473.887 L 6156.6,477.821 L 6165.96,488.219 L 6172.95,500.337 L 6177.28,513.644 L 6178.74,527.559 L 6177.28,541.474 L 6172.95,554.782 L 6165.96,566.899 L 6156.6,577.297 L 6151.18,581.231 L 6151.18,605.904 L 6348.43,803.15 L 6523.06,803.15 L 6826.49,499.72 L 6832.46,494.824 L 6839.26,491.186 L 6846.65,488.945 L 6854.33,488.189 L 6933.07,488.189 L 6933.07,460.63 L 6960.63,460.63 L 6960.63,381.89 L 6961.39,374.209 L 6963.63,366.823 L 6967.27,360.017 L 6972.16,354.051 L 6978.13,349.155 L 6984.93,345.516 L 6992.32,343.276 L 7000,342.52 L 7834.65,342.52 L 7842.33,343.276 L 7849.71,345.517 L 7856.52,349.155 L 7862.48,354.051 L 7867.38,360.017 L 7871.02,366.823 L 7873.26,374.209 L 7874.02,381.89 L 7874.02,460.63 L 7901.57,460.63 L 7901.57,594.488 L 7767.72,594.488 L 7767.72,460.63 L 7795.28,460.63 L 7795.28,421.26 L 7039.37,421.26 L 7039.37,460.63 L 7066.93,460.63 L 7066.93,594.488 L 6933.07,594.488 L 6933.07,566.929 L 6870.64,566.929 L 6567.21,870.359 L 6561.24,875.255 L 6554.44,878.893 L 6547.05,881.133 L 6539.37,881.89 L 6332.12,881.89 L 6324.44,881.133 L 6317.05,878.893 L 6310.25,875.255 L 6304.28,870.359 L 6083.97,650.05 L 6079.08,644.084 L 6075.44,637.277 L 6073.2,629.892 L 6072.44,622.211 L 6072.44,581.231 L 6067.03,577.297 L 6057.66,566.899 L 6050.67,554.782 L 6046.34,541.474 L 6044.88,527.559 L 6046.34,513.644 L 6050.67,500.337 L 6057.66,488.219 L 6067.03,477.821 L 6072.44,473.887 L 6072.44,449.215 L 6044.49,421.26 L 2058.2,421.26 L 685.04,1794.42 L 685.039,2349.13 L 698.357,2358.81 L 709.371,2371.04 L 717.602,2385.3 L 722.689,2400.95 L 724.409,2417.32 L 722.689,2433.69 L 717.602,2449.35 L 709.371,2463.61 L 698.357,2475.84 L 685.039,2485.51 L 670.001,2492.21 L 653.9,2495.63 L 637.439,2495.63 L 625.562,2493.11 L 409.448,2709.22 L 409.448,3700.23 L 625.563,3916.34 L 637.439,3913.82 L 653.9,3913.82 L 670.001,3917.24 L 685.039,3923.94 L 698.357,3933.61 L 709.371,3945.84 L 717.602,3960.1 L 722.689,3975.75 L 724.409,3992.13 L 722.689,4008.5 L 717.602,4024.15 L 709.371,4038.41 L 698.357,4050.64 L 685.039,4060.32 L 670.001,4067.01 L 653.9,4070.43 L 637.439,4070.43 L 625.562,4067.91 L 488.188,4205.28 L 488.188,5393.14 L 625.562,5530.51 L 637.439,5527.99 L 653.9,5527.99 L 670.001,5531.41 L 685.039,5538.11 L 698.357,5547.78 L 709.371,5560.02 L 717.602,5574.27 L 722.689,5589.93 L 724.409,5606.3 L 722.689,5622.67 L 717.602,5638.33 L 709.371,5652.58 L 698.357,5664.81 L 685.039,5674.49 L 670.001,5681.19 L 653.9,5684.61 L 637.439,5684.61 L 621.337,5681.19 L 606.299,5674.49 L 592.982,5664.81 L 581.967,5652.58 L 577.976,5645.67 L 550.621,5645.67 L 527.559,5668.73 L 527.559,6019.91 L 743.867,6236.22 L 1062.43,6236.22 L 1711.6,5587.05 L 1710.38,5583.3 L 1708.66,5566.93 L 1710.38,5550.56 L 1715.47,5534.9 L 1723.7,5520.65 L 1734.71,5508.41 L 1748.03,5498.74 L 1763.07,5492.04 L 1779.17,5488.62 L 1795.63,5488.62 L 1807.51,5491.14 L 1905.51,5393.14 L 1905.51,4165.91 L 1807.51,4067.91 L 1795.63,4070.43 L 1779.17,4070.43 L 1763.07,4067.01 L 1748.03,4060.32 L 1734.71,4050.64 L 1723.7,4038.41 L 1715.47,4024.15 L 1710.38,4008.5 L 1708.66,3992.13 L 1710.38,3975.75 L 1715.47,3960.1 L 1723.7,3945.84 L 1734.71,3933.61 L 1748.03,3923.94 L 1763.07,3917.24 L 1779.17,3913.82 L 1795.63,3913.82 L 1807.51,3916.34 L 1905.51,3818.34 L 1905.51,2591.11 L 1807.51,2493.11 L 1795.63,2495.63 L 1779.17,2495.63 L 1763.07,2492.21 L 1748.03,2485.51 L 1734.71,2475.84 L 1723.7,2463.61 L 1715.47,2449.35 L 1710.38,2433.69 L 1708.66,2417.32 L 1710.38,2400.95 L 1715.47,2385.3 L 1723.7,2371.04 L 1734.71,2358.81 L 1748.03,2349.13 L 1763.07,2342.44 L 1779.17,2339.01 L 1795.63,2339.01 L 1811.73,2342.44 L 1826.77,2349.13 L 1840.09,2358.81 L 1851.1,2371.04 L 1859.33,2385.3 L 1864.42,2400.95 L 1866.14,2417.32 L 1864.42,2433.69 L 1863.2,2437.45 L 1972.72,2546.96 L 1977.62,2552.93 L 1981.26,2559.74 L 1983.5,2567.12 L 1984.25,2574.8 L 1984.25,3834.65 L 1983.5,3842.33 L 1981.26,3849.71 L 1977.62,3856.52 L 1972.72,3862.48 L 1863.2,3972 L 1864.42,3975.75 L 1866.14,3992.13 L 1864.42,4008.5 L 1863.2,4012.25 L 1972.72,4121.77 L 1977.62,4127.73 L 1981.26,4134.54 L 1983.5,4141.93 L 1984.25,4149.61 L 1984.25,5409.45 L 1983.5,5417.13 L 1981.26,5424.52 L 1977.62,5431.32 L 1972.72,5437.29 L 1863.2,5546.81 L 1864.42,5550.56 L 1866.14,5566.93 L 1864.42,5583.3 L 1863.2,5587.05 L 1972.72,5696.57 L 1977.62,5702.54 L 1981.26,5709.34 L 1983.5,5716.73 L 1984.25,5724.41 L 1984.25,5783.69 L 2239.93,6039.37 L 2834.09,6039.37 L 3286.4,5587.05 L 3285.19,5583.3 L 3283.46,5566.93 L 3285.19,5550.56 L 3290.27,5534.9 L 3298.5,5520.65 L 3309.52,5508.41 L 3322.83,5498.74 L 3337.87,5492.04 L 3353.97,5488.62 L 3370.44,5488.62 L 3382.31,5491.14 L 3480.31,5393.14 L 3480.31,4165.91 L 3382.31,4067.91 L 3370.44,4070.43 L 3353.97,4070.43 L 3337.87,4067.01 L 3322.83,4060.32 L 3309.52,4050.64 L 3298.5,4038.41 L 3290.27,4024.15 L 3285.19,4008.5 L 3283.46,3992.13 L 3285.19,3975.75 L 3290.27,3960.1 L 3298.5,3945.84 L 3309.52,3933.61 L 3322.83,3923.94 L 3337.87,3917.24 L 3353.97,3913.82 L 3370.44,3913.82 L 3382.31,3916.34 L 3480.31,3818.34 L 3480.31,2600.95 L 3382.31,2502.95 L 3370.44,2505.47 L 3353.97,2505.47 L 3337.87,2502.05 L 3322.83,2495.36 L 3309.52,2485.68 L 3298.5,2473.45 L 3290.27,2459.19 L 3285.19,2443.54 L 3283.46,2427.17 L 3285.19,2410.79 L 3290.27,2395.14 L 3298.5,2380.88 L 3309.52,2368.65 L 3322.83,2358.97 L 3337.87,2352.28 L 3353.97,2348.86 L 3370.44,2348.86 L 3386.54,2352.28 L 3401.57,2358.97 L 3414.89,2368.65 L 3425.91,2380.88 L 3434.14,2395.14 L 3439.22,2410.79 L 3440.94,2427.17 L 3439.22,2443.54 L 3438.01,2447.29 L 3547.52,2556.81 L 3552.42,2562.77 L 3556.06,2569.58 L 3558.3,2576.97 L 3559.06,2584.65 L 3559.06,3834.65 L 3558.3,3842.33 L 3556.06,3849.71 L 3552.42,3856.52 L 3547.52,3862.48 L 3438.01,3972 L 3439.22,3975.75 L 3440.94,3992.13 L 3439.22,4008.5 L 3438.01,4012.25 L 3547.52,4121.77 L 3552.42,4127.73 L 3556.06,4134.54 L 3558.3,4141.93 L 3559.06,4149.61 L 3559.06,5409.45 L 3558.3,5417.13 L 3556.06,5424.52 L 3552.42,5431.32 L 3547.52,5437.29 L 3438,5546.81 L 3439.22,5550.56 L 3440.94,5566.93 L 3439.22,5583.3 L 3438.01,5587.05 L 3547.52,5696.57 L 3552.42,5702.54 L 3556.06,5709.34 L 3558.3,5716.73 L 3559.06,5724.41 L 3559.06,5783.69 L 3814.73,6039.37 L 4996.29,6039.37 L 5055.12,5980.54 L 5055.12,5740.72 L 4957.11,5642.71 L 4945.24,5645.24 L 4928.78,5645.24 L 4912.68,5641.82 L 4897.64,5635.12 L 4884.32,5625.44 L 4873.31,5613.21 L 4865.08,5598.96 L 4859.99,5583.3 L 4858.27,5566.93 L 4859.99,5550.56 L 4865.08,5534.9 L 4873.31,5520.65 L 4884.32,5508.41 L 4897.64,5498.74 L 4912.68,5492.04 L 4928.78,5488.62 L 4945.24,5488.62 L 4957.11,5491.14 L 5055.12,5393.14 L 5055.12,4165.91 L 4957.11,4067.91 L 4945.24,4070.43 L 4928.78,4070.43 L 4912.68,4067.01 L 4897.64,4060.32 L 4884.32,4050.64 L 4873.31,4038.41 L 4865.08,4024.15 L 4859.99,4008.5 L 4858.27,3992.13 L 4859.99,3975.75 L 4865.08,3960.1 L 4873.31,3945.84 L 4884.32,3933.61 L 4897.64,3923.94 L 4912.68,3917.24 L 4928.78,3913.82 L 4945.24,3913.82 L 4957.11,3916.34 L 5055.12,3818.34 L 5055.12,2591.11 L 4957.11,2493.11 L 4945.24,2495.63 L 4928.78,2495.63 L 4912.68,2492.21 L 4897.64,2485.51 L 4884.32,2475.84 L 4873.31,2463.61 L 4865.08,2449.35 L 4859.99,2433.69 L 4858.27,2417.32 L 4859.99,2400.95 L 4865.08,2385.3 L 4873.31,2371.04 L 4884.32,2358.81 L 4897.64,2349.13 L 4912.68,2342.44 L 4928.78,2339.01 L 4945.24,2339.01 L 4961.34,2342.44 L 4976.38,2349.13 L 4989.7,2358.81 L 5000.71,2371.04 L 5008.94,2385.3 L 5014.03,2400.95 L 5015.75,2417.32 L 5014.03,2433.69 L 5012.81,2437.45 L 5122.33,2546.96 L 5127.22,2552.93 L 5130.86,2559.74 L 5133.1,2567.12 L 5133.86,2574.8 L 5133.86,3834.65 L 5133.1,3842.33 L 5130.86,3849.71 L 5127.22,3856.52 L 5122.33,3862.48 L 5012.81,3972 L 5014.03,3975.75 L 5015.75,3992.13 L 5014.03,4008.5 L 5012.81,4012.25 L 5122.33,4121.77 L 5127.22,4127.73 L 5130.86,4134.54 L 5133.1,4141.93 L 5133.86,4149.61 L 5133.86,5409.45 L 5133.1,5417.13 L 5130.86,5424.52 L 5127.22,5431.32 L 5122.33,5437.29 L 5012.81,5546.81 L 5014.03,5550.56 L 5015.75,5566.93 L 5014.03,5583.3 L 5012.81,5587.05 L 5122.33,5696.57 L 5127.22,5702.54 L 5130.86,5709.34 L 5133.1,5716.73 L 5133.86,5724.41 L 5133.86,5996.85 L 5133.1,6004.53 L 5130.86,6011.92 L 5127.22,6018.72 L 5122.33,6024.69 L 5107.65,6039.37 L 6571.09,6039.37 L 6629.92,5980.54 L 6629.92,5740.72 L 6531.92,5642.71 L 6520.04,5645.24 L 6503.58,5645.24 L 6487.48,5641.82 L 6472.44,5635.12 L 6459.12,5625.44 L 6448.11,5613.21 L 6439.88,5598.96 L 6434.79,5583.3 L 6433.07,5566.93 L 6434.79,5550.56 L 6439.88,5534.9 L 6448.11,5520.65 L 6459.12,5508.41 L 6472.44,5498.74 L 6487.48,5492.04 L 6503.58,5488.62 L 6520.04,5488.62 L 6531.92,5491.14 L 6629.92,5393.14 L 6629.92,4165.91 L 6531.92,4067.91 L 6520.04,4070.43 L 6503.58,4070.43 L 6487.48,4067.01 L 6472.44,4060.32 L 6459.12,4050.64 L 6448.11,4038.41 L 6439.88,4024.15 L 6434.79,4008.5 L 6433.07,3992.13 L 6434.79,3975.75 L 6439.88,3960.1 L 6448.11,3945.84 L 6459.12,3933.61 L 6472.44,3923.94 L 6487.48,3917.24 L 6503.58,3913.82 L 6520.04,3913.82 L 6531.92,3916.34 L 6629.92,3818.34 L 6629.92,2591.11 L 6531.92,2493.11 L 6520.04,2495.63 L 6503.58,2495.63 L 6487.48,2492.21 L 6472.44,2485.51 L 6459.12,2475.84 L 6448.11,2463.61 L 6439.88,2449.35 L 6434.79,2433.69 L 6433.07,2417.32 L 6434.79,2400.95 L 6439.88,2385.3 L 6448.11,2371.04 L 6459.12,2358.81 L 6472.44,2349.13 L 6487.48,2342.44 L 6503.58,2339.01 L 6520.04,2339.01 L 6536.14,2342.44 L 6551.18,2349.13 L 6564.5,2358.81 L 6575.51,2371.04 L 6583.74,2385.3 L 6588.83,2400.95 L 6590.55,2417.32 L 6588.83,2433.69 L 6587.61,2437.45 L 6697.13,2546.96 L 6702.03,2552.93 L 6705.66,2559.74 L 6707.91,2567.12 L 6708.66,2574.8 L 6708.66,3834.65 L 6707.91,3842.33 L 6705.66,3849.71 L 6702.03,3856.52 L 6697.13,3862.48 L 6587.61,3972 L 6588.83,3975.75 L 6590.55,3992.13 L 6588.83,4008.5 L 6587.61,4012.25 L 6697.13,4121.77 L 6702.03,4127.73 L 6705.66,4134.54 L 6707.91,4141.93 L 6708.66,4149.61 L 6708.66,5409.45 L 6707.91,5417.13 L 6705.66,5424.52 L 6702.03,5431.32 L 6697.13,5437.29 L 6587.61,5546.81 L 6588.83,5550.56 L 6590.55,5566.93 L 6588.83,5583.3 L 6587.61,5587.05 L 6697.13,5696.57 L 6702.03,5702.54 L 6705.66,5709.34 L 6707.91,5716.73 L 6708.66,5724.41 L 6708.66,5996.85 L 6707.91,6004.53 L 6705.66,6011.92 L 6702.03,6018.72 L 6697.13,6024.69 L 6682.45,6039.37 L 8145.9,6039.37 L 8204.73,5980.54 L 8204.73,5740.72 L 8106.72,5642.71 L 8094.84,5645.24 L 8078.38,5645.24 L 8062.28,5641.82 L 8047.24,5635.12 L 8033.93,5625.44 L 8022.91,5613.21 L 8014.68,5598.96 L 8009.59,5583.3 L 8007.87,5566.93 L 8009.59,5550.56 L 8014.68,5534.9 L 8022.91,5520.65 L 8033.93,5508.41 L 8047.24,5498.74 L 8062.28,5492.04 L 8078.38,5488.62 L 8094.84,5488.62 L 8106.72,5491.14 L 8204.73,5393.14 L 8204.73,4165.91 L 8106.72,4067.91 L 8094.84,4070.43 L 8078.38,4070.43 L 8062.28,4067.01 L 8047.24,4060.32 L 8033.93,4050.64 L 8022.91,4038.41 L 8014.68,4024.15 L 8009.59,4008.5 L 8007.87,3992.13 L 8009.59,3975.75 L 8014.68,3960.1 L 8022.91,3945.84 L 8033.93,3933.61 L 8047.24,3923.94 L 8062.28,3917.24 L 8078.38,3913.82 L 8094.84,3913.82 L 8106.72,3916.34 L 8204.73,3818.34 L 8204.73,2591.11 L 8106.72,2493.11 L 8094.84,2495.63 L 8078.38,2495.63 L 8062.28,2492.21 L 8047.24,2485.51 L 8033.93,2475.84 L 8022.91,2463.61 L 8014.68,2449.35 L 8009.59,2433.69 L 8007.87,2417.32 L 8009.59,2400.95 L 8014.68,2385.3 L 8022.91,2371.04 L 8033.93,2358.81 L 8047.24,2349.13 L 8062.28,2342.44 L 8078.38,2339.01 L 8094.84,2339.01 L 8110.95,2342.44 L 8125.98,2349.13 L 8139.3,2358.81 L 8150.32,2371.04 L 8158.55,2385.3 L 8163.63,2400.95 L 8165.35,2417.32 L 8163.63,2433.69 L 8162.41,2437.45 L 8271.93,2546.96 L 8276.83,2552.93 L 8280.47,2559.74 L 8282.71,2567.12 L 8283.46,2574.8 L 8283.46,3834.65 L 8282.71,3842.33 L 8280.47,3849.71 L 8276.83,3856.52 L 8271.93,3862.48 L 8162.41,3972 L 8163.63,3975.75 L 8165.35,3992.13 L 8163.63,4008.5 L 8162.41,4012.25 L 8271.93,4121.77 L 8276.83,4127.73 L 8280.47,4134.54 L 8282.71,4141.93 L 8283.46,4149.61 L 8283.46,5409.45 L 8282.71,5417.13 L 8280.47,5424.52 L 8276.83,5431.32 L 8271.93,5437.29 L 8162.41,5546.81 L 8163.63,5550.56 L 8165.35,5566.93 L 8163.63,5583.3 L 8162.41,5587.05 L 8271.93,5696.57 L 8276.83,5702.54 L 8280.47,5709.34 L 8282.71,5716.73 L 8283.46,5724.41 L 8283.46,5996.85 L 8282.71,6004.53 L 8280.47,6011.92 L 8276.83,6018.72 L 8271.93,6024.69 L 8190.04,6106.58 L 8184.08,6111.48 L 8177.27,6115.11 L 8169.89,6117.35 L 8162.2,6118.11 L 6666.14,6118.11 L 6658.46,6117.35 L 6651.08,6115.11 L 6644.27,6111.48 L 6638.3,6106.58 L 6626.77,6095.05 L 6615.24,6106.58 L 6609.27,6111.48 L 6602.47,6115.11 L 6595.08,6117.35 L 6587.4,6118.11 L 5091.34,6118.11 L 5083.66,6117.35 L 5076.27,6115.11 L 5069.47,6111.48 L 5063.5,6106.58 L 5051.97,6095.05 L 5040.44,6106.58 L 5034.47,6111.48 L 5027.66,6115.11 L 5020.28,6117.35 L 5012.6,6118.11 L 3798.43,6118.11 L 3790.74,6117.35 L 3783.36,6115.11 L 3776.55,6111.48 L 3770.59,6106.58 L 3491.85,5827.84 L 3486.95,5821.87 L 3483.31,5815.07 L 3481.07,5807.68 L 3480.32,5800 L 3480.32,5740.72 L 3382.31,5642.71 L 3370.44,5645.24 L 3353.97,5645.24 L 3342.1,5642.71 L 2878.23,6106.58 L 2872.27,6111.48 L 2865.46,6115.11 L 2858.07,6117.35 L 2850.39,6118.11 L 2223.62,6118.11 L 2215.94,6117.35 L 2208.56,6115.11 L 2201.75,6111.48 L 2195.78,6106.58 L 1917.04,5827.84 L 1912.15,5821.87 L 1908.51,5815.07 L 1906.27,5807.68 L 1905.51,5800 L 1905.51,5740.72 L 1807.51,5642.71 L 1795.63,5645.24 L 1779.17,5645.24 L 1767.29,5642.71 L 1106.58,6303.43 L 1100.61,6308.33 L 1093.81,6311.96 L 1086.42,6314.2 L 1078.74,6314.96 L 743.867,6314.96 L 94.4882,6964.34 L 94.4885,7237.63 L 106.859,7250 L 261.811,7250 L 269.492,7250.76 L 276.877,7253 L 282.319,7255.91 L 295.276,7255.91 L 295.276,7267.16 L 390.323,7362.2 L 1727.79,7362.2 L 1822.83,7267.16 L 1822.83,7255.91 L 1835.79,7255.91 L 1841.23,7253 L 1848.62,7250.76 L 1856.3,7250 L 1915.35,7250 L 1923.04,7250.76 L 1930.42,7253 L 1935.86,7255.91 L 1948.82,7255.91 L 1948.82,7267.16 L 2043.87,7362.2 L 3302.59,7362.2 L 3397.64,7267.16 L 3397.64,7255.91 L 3410.59,7255.91 L 3416.04,7253 L 3423.42,7250.76 L 3431.1,7250 L 3490.16,7250 L 3497.84,7250.76 L 3505.22,7253 L 3510.67,7255.91 L 3523.62,7255.91 L 3523.62,7267.16 L 3618.67,7362.2 L 4877.39,7362.2 L 4972.44,7267.16 L 4972.44,7255.91 L 4985.4,7255.91 L 4990.84,7253 L 4998.22,7250.76 L 5005.91,7250 L 5064.96,7250 L 5072.64,7250.76 L 5080.03,7253 L 5085.47,7255.91 L 5098.43,7255.91 L 5098.43,7267.16 L 5193.47,7362.2 L 6452.2,7362.2 L 6547.24,7267.16 L 6547.24,7255.91 L 6560.2,7255.91 L 6565.64,7253 L 6573.03,7250.76 L 6580.71,7250 L 6639.76,7250 L 6647.44,7250.76 L 6654.83,7253 L 6660.27,7255.91 L 6673.23,7255.91 L 6673.23,7267.16 L 6754.5,7348.43 L 7929.97,7348.43 L 8007.03,7271.37 L 8012.99,7266.48 L 8019.8,7262.84 L 8027.18,7260.6 L 8034.86,7259.84 L 8122.05,7259.84 L 8122.05,7255.91 L 8164.47,7255.91 L 8170.93,7252.61 L 8178.88,7250.48 L 8187.1,7250.05 L 8195.23,7251.34 L 8202.91,7254.29 L 8205.4,7255.91 L 8248.03,7255.91 L 8248.03,7322.83 L 8207.25,7322.84 L 8203.04,7327.05 L 8197.07,7331.95 L 8190.26,7335.59 L 8182.88,7337.83 L 8175.2,7338.58 L 8051.17,7338.58 L 7974.12,7415.63 L 7968.15,7420.53 L 7961.35,7424.17 L 7953.96,7426.41 L 7946.28,7427.17 L 6738.19,7427.17 L 6730.51,7426.41 L 6723.12,7424.17 L 6716.32,7420.53 L 6710.35,7415.63 L 6623.46,7328.74 L 6597.02,7328.74 L 6496.34,7429.41 L 6490.38,7434.31 L 6483.57,7437.95 L 6476.18,7440.19 L 6468.5,7440.94 L 5177.17,7440.94 L 5169.48,7440.19 L 5162.1,7437.95 L 5155.29,7434.31 L 5149.33,7429.41 L 5048.65,7328.74 L 5022.21,7328.74 L 4921.54,7429.41 L 4915.57,7434.31 L 4908.77,7437.95 L 4901.38,7440.19 L 4893.7,7440.94 L 3602.36,7440.94 L 3594.68,7440.19 L 3587.3,7437.95 L 3580.49,7434.31 L 3574.52,7429.41 L 3473.85,7328.74 L 3447.41,7328.74 L 3346.74,7429.41 L 3340.77,7434.31 L 3333.96,7437.95 L 3326.58,7440.19 L 3318.9,7440.94 L 2027.56,7440.94 L 2019.88,7440.19 L 2012.49,7437.95 L 2005.69,7434.31 L 1999.72,7429.41 L 1899.05,7328.74 L 1872.61,7328.74 L 1771.93,7429.41 L 1765.97,7434.31 L 1759.16,7437.95 L 1751.78,7440.19 L 1744.09,7440.94 L 374.016,7440.94 L 366.335,7440.19 L 358.949,7437.95 L 352.143,7434.31 L 346.177,7429.41 L 245.504,7328.74 L 90.5512,7328.74 L 82.8705,7327.98 L 75.4849,7325.74 L 68.6783,7322.11 L 62.7123,7317.21 L 27.2793,7281.78 L 22.3831,7275.81 L 18.7449,7269 L 16.5045,7261.62 L 15.748,7253.94 L 15.748,6948.03 L 16.5045,6940.35 L 18.7449,6932.97 L 22.3831,6926.16 L 27.2793,6920.19 L 671.881,6275.59 L 460.35,6064.06 L 455.454,6058.09 L 451.816,6051.29 L 449.575,6043.9 L 448.819,6036.22 L 448.819,5652.42 L 449.575,5644.74 L 451.816,5637.36 L 455.454,5630.55 L 460.35,5624.59 L 506.475,5578.46 L 512.441,5573.56 L 519.248,5569.93 L 526.633,5567.69 L 534.314,5566.93 L 550.622,5566.93 L 420.98,5437.29 L 416.084,5431.32 L 412.446,5424.52 L 410.205,5417.13 L 409.449,5409.45 L 409.449,4188.98 L 410.205,4181.3 L 412.446,4173.91 L 416.084,4167.1 L 420.98,4161.14 L 569.869,4012.25 L 568.65,4008.5 L 566.929,3992.13 L 568.65,3975.75 L 569.869,3972 z " style="fill-opacity:1.000000;fill:rgb(239,247,0);stroke:rgb(0,0,0);stroke-width:2"/></g>
<g fill-rule="evenodd"><path d="M 2375.01,4326.33 L 2376.23,4330.09 L 2377.95,4346.46 L 2376.23,4362.83 L 2371.15,4378.48 L 2362.91,4392.74 L 2351.9,4404.97 L 2338.58,4414.65 L 2323.54,4421.34 L 2307.44,4424.77 L 2290.98,4424.77 L 2274.88,4421.34 L 2259.84,4414.65 L 2246.53,4404.97 L 2235.51,4392.74 L 2227.28,4378.48 L 2222.19,4362.83 L 2220.47,4346.46 L 2222.19,4330.09 L 2227.28,4314.43 L 2235.51,4300.17 L 2246.53,4287.94 L 2259.84,4278.27 L 2274.88,4271.57 L 2290.98,4268.15 L 2307.44,4268.15 L 2319.32,4270.67 L 2456.69,4133.3 L 2456.69,2741.84 L 2457.45,2734.16 L 2459.69,2726.77 L 2463.33,2719.96 L 2468.22,2714 L 2805.51,2376.71 L 2805.51,2011.81 L 2806.27,2004.13 L 2808.51,1996.74 L 2812.15,1989.94 L 2817.04,1983.97 L 2872.44,1928.57 L 2872.44,581.231 L 2867.03,577.297 L 2857.66,566.899 L 2850.67,554.782 L 2846.34,541.474 L 2844.88,527.559 L 2846.34,513.644 L 2850.67,500.337 L 2857.66,488.219 L 2867.03,477.821 L 2878.35,469.597 L 2891.13,463.906 L 2904.82,460.997 L 2918.81,460.997 L 2932.49,463.906 L 2945.28,469.597 L 2956.6,477.821 L 2965.96,488.219 L 2972.95,500.337 L 2977.28,513.644 L 2978.74,527.559 L 2977.28,541.474 L 2972.95,554.782 L 2965.96,566.899 L 2956.6,577.297 L 2951.18,581.231 L 2951.18,1944.88 L 2950.42,1952.56 L 2948.18,1959.95 L 2944.55,1966.75 L 2939.65,1972.72 L 2884.25,2028.12 L 2884.25,2393.02 L 2883.5,2400.7 L 2881.26,2408.08 L 2877.62,2414.89 L 2872.72,2420.86 L 2535.43,2758.15 L 2535.43,4149.61 L 2534.68,4157.29 L 2532.44,4164.67 L 2528.8,4171.48 L 2523.9,4177.45 L 2375.01,4326.33 z " style="fill-opacity:1.000000;fill:rgb(233,161,58);stroke:rgb(0,0,0);stroke-width:2"/></g>
<g fill-rule="evenodd"><path d="M 2375.01,5901.14 L 2376.23,5904.89 L 2377.95,5921.26 L 2376.23,5937.63 L 2371.15,5953.29 L 2362.91,5967.54 L 2351.9,5979.78 L 2338.58,5989.45 L 2323.54,5996.15 L 2307.44,5999.57 L 2290.98,5999.57 L 2274.88,5996.15 L 2259.84,5989.45 L 2246.53,5979.78 L 2235.51,5967.54 L 2227.28,5953.29 L 2222.19,5937.63 L 2220.47,5921.26 L 2222.19,5904.89 L 2227.28,5889.23 L 2235.51,5874.98 L 2246.53,5862.74 L 2259.84,5853.07 L 2274.88,5846.37 L 2290.98,5842.95 L 2307.44,5842.95 L 2319.32,5845.48 L 2574.8,5589.99 L 2574.8,2850.39 L 2575.56,2842.71 L 2577.8,2835.33 L 2581.44,2828.52 L 2586.34,2822.55 L 2923.62,2485.27 L 2923.62,2107.87 L 2924.38,2100.19 L 2926.62,2092.81 L 2930.26,2086 L 2935.15,2080.03 L 3005.75,2009.44 L 3006.27,2004.13 L 3008.51,1996.74 L 3012.15,1989.94 L 3017.04,1983.97 L 3072.44,1928.57 L 3072.44,581.23 L 3067.03,577.297 L 3057.66,566.899 L 3050.67,554.782 L 3046.34,541.474 L 3044.88,527.559 L 3046.34,513.644 L 3050.67,500.337 L 3057.66,488.219 L 3067.03,477.821 L 3078.35,469.597 L 3091.13,463.906 L 3104.82,460.997 L 3118.81,460.997 L 3132.49,463.906 L 3145.28,469.597 L 3156.6,477.821 L 3165.96,488.219 L 3172.95,500.337 L 3177.28,513.644 L 3178.74,527.559 L 3177.28,541.474 L 3172.95,554.782 L 3165.96,566.899 L 3156.6,577.297 L 3151.18,581.231 L 3151.18,1944.88 L 3150.42,1952.56 L 3148.18,1959.95 L 3144.55,1966.75 L 3139.65,1972.72 L 3084.02,2028.35 L 3083.5,2033.66 L 3081.26,2041.05 L 3077.62,2047.86 L 3072.72,2053.82 L 3002.36,2124.18 L 3002.36,2501.57 L 3001.61,2509.25 L 2999.37,2516.64 L 2995.73,2523.45 L 2990.83,2529.41 L 2653.54,2866.7 L 2653.54,5606.3 L 2652.79,5613.98 L 2650.55,5621.36 L 2646.91,5628.17 L 2642.01,5634.14 L 2375.01,5901.14 z " style="fill-opacity:1.000000;fill:rgb(229,202,11);stroke:rgb(0,0,0);stroke-width:2"/></g>
<g fill-rule="evenodd"><path d="M 721.47,5940.51 L 722.689,5944.26 L 724.409,5960.63 L 722.689,5977 L 717.602,5992.66 L 709.371,6006.91 L 698.357,6019.15 L 685.039,6028.82 L 670.001,6035.52 L 653.9,6038.94 L 637.439,6038.94 L 621.337,6035.52 L 606.299,6028.82 L 592.982,6019.15 L 581.967,6006.91 L 573.737,5992.66 L 568.65,5977 L 566.929,5960.63 L 568.65,5944.26 L 573.737,5928.6 L 581.967,5914.35 L 592.982,5902.11 L 606.299,5892.44 L 621.337,5885.74 L 637.439,5882.32 L 653.9,5882.32 L 665.776,5884.85 L 921.261,5629.36 L 921.261,2790.76 L 922.017,2783.08 L 924.257,2775.69 L 927.896,2768.89 L 932.792,2762.92 L 1503.08,2192.63 L 1509.05,2187.74 L 1515.85,2184.1 L 1523.24,2181.86 L 1530.92,2181.1 L 2292.46,2181.1 L 2405.51,2068.05 L 2405.51,2011.81 L 2406.27,2004.13 L 2408.51,1996.74 L 2412.15,1989.94 L 2417.04,1983.97 L 2472.44,1928.57 L 2472.44,581.231 L 2467.03,577.297 L 2457.66,566.899 L 2450.67,554.782 L 2446.34,541.474 L 2444.88,527.559 L 2446.34,513.644 L 2450.67,500.337 L 2457.66,488.219 L 2467.03,477.821 L 2478.35,469.597 L 2491.13,463.906 L 2504.82,460.997 L 2518.81,460.997 L 2532.49,463.906 L 2545.28,469.597 L 2556.6,477.821 L 2565.96,488.219 L 2572.95,500.337 L 2577.28,513.644 L 2578.74,527.559 L 2577.28,541.474 L 2572.95,554.782 L 2565.96,566.899 L 2556.6,577.297 L 2551.18,581.231 L 2551.18,1944.88 L 2550.42,1952.56 L 2548.18,1959.95 L 2544.55,1966.75 L 2539.65,1972.72 L 2484.25,2028.12 L 2484.25,2084.36 L 2483.5,2092.04 L 2481.26,2099.42 L 2477.62,2106.23 L 2472.72,2112.2 L 2336.6,2248.31 L 2330.64,2253.21 L 2323.83,2256.85 L 2316.45,2259.09 L 2308.77,2259.84 L 1547.22,2259.84 L 1000,2807.07 L 1000,5645.67 L 999.244,5653.35 L 997.004,5660.73 L 993.366,5667.54 L 988.47,5673.51 L 721.47,5940.51 z " style="fill-opacity:1.000000;fill:rgb(203,208,72);stroke:rgb(0,0,0);stroke-width:2"/></g>
<g fill-rule="evenodd"><path d="M 721.47,4326.33 L 722.689,4330.09 L 724.409,4346.46 L 722.689,4362.83 L 717.602,4378.48 L 709.371,4392.74 L 698.357,4404.97 L 685.039,4414.65 L 670.001,4421.34 L 653.9,4424.77 L 637.439,4424.77 L 621.337,4421.34 L 606.299,4414.65 L 592.982,4404.97 L 581.967,4392.74 L 573.737,4378.48 L 568.65,4362.83 L 566.929,4346.46 L 568.65,4330.09 L 573.737,4314.43 L 581.967,4300.17 L 592.982,4287.94 L 606.299,4278.27 L 621.337,4271.57 L 637.439,4268.15 L 653.9,4268.15 L 665.775,4270.67 L 803.149,4133.3 L 803.15,2741.84 L 803.906,2734.16 L 806.146,2726.77 L 809.785,2719.96 L 814.681,2714 L 1454.16,2074.52 L 1460.12,2069.63 L 1466.93,2065.99 L 1474.31,2063.75 L 1481.99,2062.99 L 2243.54,2062.99 L 2272.44,2034.09 L 2272.44,581.23 L 2267.03,577.297 L 2257.66,566.899 L 2250.67,554.782 L 2246.34,541.474 L 2244.88,527.559 L 2246.34,513.644 L 2250.67,500.337 L 2257.66,488.219 L 2267.03,477.821 L 2278.35,469.597 L 2291.13,463.906 L 2304.82,460.997 L 2318.81,460.997 L 2332.49,463.906 L 2345.28,469.597 L 2356.6,477.821 L 2365.96,488.219 L 2372.95,500.337 L 2377.28,513.644 L 2378.74,527.559 L 2377.28,541.474 L 2372.95,554.782 L 2365.96,566.899 L 2356.6,577.297 L 2351.18,581.231 L 2351.18,2050.39 L 2350.42,2058.07 L 2348.18,2065.46 L 2344.55,2072.27 L 2339.65,2078.23 L 2287.68,2130.2 L 2281.72,2135.1 L 2274.91,2138.74 L 2267.52,2140.98 L 2259.84,2141.73 L 1498.3,2141.73 L 881.89,2758.14 L 881.89,4149.61 L 881.133,4157.29 L 878.893,4164.67 L 875.255,4171.48 L 870.359,4177.45 L 721.47,4326.33 z " style="fill-opacity:1.000000;fill:rgb(71,100,189);stroke:rgb(0,0,0);stroke-width:2"/></g>
<g fill-rule="evenodd"><path d="M 3949.82,5901.14 L 3951.04,5904.89 L 3952.76,5921.26 L 3951.04,5937.63 L 3945.95,5953.29 L 3937.72,5967.54 L 3926.7,5979.78 L 3913.39,5989.45 L 3898.35,5996.15 L 3882.25,5999.57 L 3865.79,5999.57 L 3849.68,5996.15 L 3834.65,5989.45 L 3821.33,5979.78 L 3810.31,5967.54 L 3802.08,5953.29 L 3797,5937.63 L 3795.28,5921.26 L 3797,5904.89 L 3802.08,5889.23 L 3810.31,5874.98 L 3821.33,5862.74 L 3834.65,5853.07 L 3849.68,5846.37 L 3865.79,5842.95 L 3882.25,5842.95 L 3894.12,5845.48 L 4110.24,5629.36 L 4110.24,2276.15 L 4015.19,2181.1 L 3726.09,2181.1 L 3718.41,2180.35 L 3711.02,2178.1 L 3704.22,2174.47 L 3698.25,2169.57 L 3683.97,2155.29 L 3679.08,2149.33 L 3675.44,2142.52 L 3673.2,2135.13 L 3672.44,2127.45 L 3672.44,581.231 L 3667.03,577.297 L 3657.66,566.899 L 3650.67,554.782 L 3646.34,541.474 L 3644.88,527.559 L 3646.34,513.644 L 3650.67,500.337 L 3657.66,488.219 L 3667.03,477.821 L 3678.35,469.597 L 3691.13,463.906 L 3704.82,460.997 L 3718.81,460.997 L 3732.49,463.906 L 3745.28,469.597 L 3756.6,477.821 L 3765.96,488.219 L 3772.95,500.337 L 3777.28,513.644 L 3778.74,527.559 L 3777.28,541.474 L 3772.95,554.782 L 3765.96,566.899 L 3756.6,577.297 L 3751.18,581.231 L 3751.18,2102.36 L 4031.5,2102.36 L 4039.18,2103.12 L 4046.56,2105.36 L 4053.37,2109 L 4059.33,2113.89 L 4177.45,2232 L 4182.34,2237.97 L 4185.98,2244.78 L 4188.22,2252.16 L 4188.98,2259.84 L 4188.98,5645.67 L 4188.22,5653.35 L 4185.98,5660.73 L 4182.34,5667.54 L 4177.45,5673.51 L 3949.82,5901.14 z " style="fill-opacity:1.000000;fill:rgb(31,35,30);stroke:rgb(0,0,0);stroke-width:2"/></g>
<g fill-rule="evenodd"><path d="M 3949.82,4326.33 L 3951.04,4330.09 L 3952.76,4346.46 L 3951.04,4362.83 L 3945.95,4378.48 L 3937.72,4392.74 L 3926.7,4404.97 L 3913.39,4414.65 L 3898.35,4421.34 L 3882.25,4424.77 L 3865.79,4424.77 L 3849.68,4421.34 L 3834.65,4414.65 L 3821.33,4404.97 L 3810.31,4392.74 L 3802.08,4378.48 L 3797,4362.83 L 3795.28,4346.46 L 3797,4330.09 L 3802.08,4314.43 L 3810.31,4300.17 L 3821.33,4287.94 L 3834.65,4278.27 L 3849.68,4271.57 L 3865.79,4268.15 L 3882.25,4268.15 L 3894.12,4270.67 L 3992.13,4172.67 L 3992.13,2367.88 L 3923.46,2299.21 L 3677.17,2299.21 L 3669.48,2298.46 L 3662.1,2296.22 L 3655.29,2292.58 L 3649.33,2287.68 L 3483.97,2122.33 L 3479.08,2116.36 L 3475.44,2109.55 L 3473.2,2102.17 L 3472.44,2094.49 L 3472.44,581.23 L 3467.03,577.297 L 3457.66,566.899 L 3450.67,554.782 L 3446.34,541.474 L 3444.88,527.559 L 3446.34,513.644 L 3450.67,500.337 L 3457.66,488.219 L 3467.03,477.821 L 3478.35,469.597 L 3491.13,463.906 L 3504.82,460.997 L 3518.81,460.997 L 3532.49,463.906 L 3545.28,469.597 L 3556.6,477.821 L 3565.96,488.219 L 3572.95,500.337 L 3577.28,513.644 L 3578.74,527.559 L 3577.28,541.474 L 3572.95,554.782 L 3565.96,566.899 L 3556.6,577.297 L 3551.18,581.231 L 3551.18,2078.18 L 3693.47,2220.47 L 3939.76,2220.47 L 3947.44,2221.23 L 3954.83,2223.47 L 3961.64,2227.11 L 3967.6,2232 L 4059.33,2323.74 L 4064.23,2329.7 L 4067.87,2336.51 L 4070.11,2343.89 L 4070.87,2351.57 L 4070.87,4188.98 L 4070.11,4196.66 L 4067.87,4204.04 L 4064.23,4210.85 L 4059.33,4216.82 L 3949.82,4326.33 z " style="fill-opacity:1.000000;fill:rgb(168,28,123);stroke:rgb(0,0,0);stroke-width:2"/></g>
<g fill-rule="evenodd"><path d="M 2375.01,2751.53 L 2376.23,2755.28 L 2377.95,2771.65 L 2376.23,2788.02 L 2371.15,2803.68 L 2362.91,2817.94 L 2351.9,2830.17 L 2338.58,2839.84 L 2323.54,2846.54 L 2307.44,2849.96 L 2290.98,2849.96 L 2274.88,2846.54 L 2259.84,2839.84 L 2246.53,2830.17 L 2235.51,2817.94 L 2227.28,2803.68 L 2222.19,2788.02 L 2220.47,2771.65 L 2222.19,2755.28 L 2227.28,2739.63 L 2235.51,2725.37 L 2246.53,2713.14 L 2259.84,2703.46 L 2274.88,2696.77 L 2290.98,2693.34 L 2307.44,2693.34 L 2319.32,2695.87 L 2605.51,2409.68 L 2605.51,2011.81 L 2606.27,2004.13 L 2608.51,1996.74 L 2612.15,1989.94 L 2617.04,1983.97 L 2672.44,1928.57 L 2672.44,581.23 L 2667.03,577.297 L 2657.66,566.899 L 2650.67,554.782 L 2646.34,541.474 L 2644.88,527.559 L 2646.34,513.644 L 2650.67,500.337 L 2657.66,488.219 L 2667.03,477.821 L 2678.35,469.597 L 2691.13,463.906 L 2704.82,460.997 L 2718.81,460.997 L 2732.49,463.906 L 2745.28,469.597 L 2756.6,477.821 L 2765.96,488.219 L 2772.95,500.337 L 2777.28,513.644 L 2778.74,527.559 L 2777.28,541.474 L 2772.95,554.782 L 2765.96,566.899 L 2756.6,577.297 L 2751.18,581.231 L 2751.18,1944.88 L 2750.42,1952.56 L 2748.18,1959.95 L 2744.55,1966.75 L 2739.65,1972.72 L 2684.25,2028.12 L 2684.25,2425.98 L 2683.5,2433.66 L 2681.26,2441.05 L 2677.62,2447.86 L 2672.72,2453.82 L 2375.01,2751.53 z " style="fill-opacity:1.000000;fill:rgb(100,197,20);stroke:rgb(0,0,0);stroke-width:2"/></g>
<g fill-rule="evenodd"><path d="M 2151.18,581.231 L 2151.18,1944.88 L 2150.42,1952.56 L 2148.18,1959.95 L 2144.55,1966.75 L 2139.65,1972.72 L 2133.68,1977.62 L 2126.88,1981.26 L 2119.49,1983.5 L 2111.81,1984.25 L 1488.75,1984.25 L 721.47,2751.53 L 722.689,2755.28 L 724.409,2771.65 L 722.689,2788.02 L 717.602,2803.68 L 709.371,2817.94 L 698.357,2830.17 L 685.039,2839.84 L 670.001,2846.54 L 653.9,2849.96 L 637.439,2849.96 L 621.337,2846.54 L 606.299,2839.84 L 592.982,2830.17 L 581.967,2817.94 L 573.737,2803.68 L 568.65,2788.02 L 566.929,2771.65 L 568.65,2755.28 L 573.737,2739.63 L 581.967,2725.37 L 592.982,2713.14 L 606.299,2703.46 L 621.337,2696.77 L 637.439,2693.34 L 653.9,2693.34 L 665.776,2695.87 L 1444.6,1917.04 L 1450.57,1912.15 L 1457.37,1908.51 L 1464.76,1906.27 L 1472.44,1905.51 L 2072.44,1905.51 L 2072.44,581.231 L 2067.03,577.297 L 2057.66,566.899 L 2050.67,554.782 L 2046.34,541.474 L 2044.88,527.559 L 2046.34,513.644 L 2050.67,500.337 L 2057.66,488.219 L 2067.03,477.821 L 2078.35,469.597 L 2091.13,463.906 L 2104.82,460.997 L 2118.81,460.997 L 2132.49,463.906 L 2145.28,469.597 L 2156.6,477.821 L 2165.96,488.219 L 2172.95,500.337 L 2177.28,513.644 L 2178.74,527.559 L 2177.28,541.474 L 2172.95,554.782 L 2165.96,566.899 L 2156.6,577.297 L 2151.18,581.231 z " style="fill-opacity:1.000000;fill:rgb(115,90,197);stroke:rgb(0,0,0);stroke-width:2"/></g>
<g fill-rule="evenodd"><path d="M 3351.18,581.231 L 3351.18,2081.72 L 3901.85,2632.4 L 3906.75,2638.36 L 3910.39,2645.17 L 3912.63,2652.56 L 3913.39,2660.24 L 3913.39,2713.31 L 3926.7,2722.98 L 3937.72,2735.21 L 3945.95,2749.47 L 3951.04,2765.13 L 3952.76,2781.5 L 3951.04,2797.87 L 3945.95,2813.52 L 3937.72,2827.78 L 3926.7,2840.01 L 3913.39,2849.69 L 3898.35,2856.38 L 3882.25,2859.8 L 3865.79,2859.8 L 3849.68,2856.38 L 3834.65,2849.69 L 3821.33,2840.01 L 3810.31,2827.78 L 3802.08,2813.52 L 3797,2797.87 L 3795.28,2781.5 L 3797,2765.13 L 3802.08,2749.47 L 3810.31,2735.21 L 3821.33,2722.98 L 3834.65,2713.31 L 3834.65,2676.54 L 3283.97,2125.87 L 3279.08,2119.9 L 3275.44,2113.1 L 3273.2,2105.71 L 3272.44,2098.03 L 3272.44,581.231 L 3267.03,577.297 L 3257.66,566.899 L 3250.67,554.782 L 3246.34,541.474 L 3244.88,527.559 L 3246.34,513.644 L 3250.67,500.337 L 3257.66,488.219 L 3267.03,477.821 L 3278.35,469.597 L 3291.13,463.906 L 3304.82,460.997 L 3318.81,460.997 L 3332.49,463.906 L 3345.28,469.597 L 3356.6,477.821 L 3365.96,488.219 L 3372.95,500.337 L 3377.28,513.644 L 3378.74,527.559 L 3377.28,541.474 L 3372.95,554.782 L 3365.96,566.899 L 3356.6,577.297 L 3351.18,581.231 z " style="fill-opacity:1.000000;fill:rgb(94,75,121);stroke:rgb(0,0,0);stroke-width:2"/></g>
<g fill-rule="evenodd"><path d="M 4551.18,581.231 L 4551.18,1739.6 L 4677.72,1866.14 L 6268.83,1866.14 L 6276.51,1866.9 L 6283.9,1869.14 L 6290.71,1872.77 L 6296.67,1877.67 L 7051.46,2632.46 L 7056.36,2638.43 L 7060,2645.23 L 7062.24,2652.62 L 7062.99,2660.3 L 7062.99,2703.46 L 7076.31,2713.14 L 7087.32,2725.37 L 7095.55,2739.63 L 7100.64,2755.28 L 7102.36,2771.65 L 7100.64,2788.02 L 7095.55,2803.68 L 7087.32,2817.94 L 7076.31,2830.17 L 7062.99,2839.84 L 7047.95,2846.54 L 7031.85,2849.96 L 7015.39,2849.96 L 6999.29,2846.54 L 6984.25,2839.84 L 6970.93,2830.17 L 6959.92,2817.94 L 6951.69,2803.68 L 6946.6,2788.02 L 6944.88,2771.65 L 6946.6,2755.28 L 6951.69,2739.63 L 6959.92,2725.37 L 6970.93,2713.14 L 6984.25,2703.46 L 6984.25,2676.61 L 6252.52,1944.88 L 4661.41,1944.88 L 4653.73,1944.12 L 4646.35,1941.88 L 4639.54,1938.24 L 4633.58,1933.35 L 4483.97,1783.74 L 4479.08,1777.78 L 4475.44,1770.97 L 4473.2,1763.59 L 4472.44,1755.91 L 4472.44,581.231 L 4467.03,577.297 L 4457.66,566.899 L 4450.67,554.782 L 4446.34,541.474 L 4444.88,527.559 L 4446.34,513.644 L 4450.67,500.337 L 4457.66,488.219 L 4467.03,477.821 L 4478.35,469.597 L 4491.13,463.906 L 4504.82,460.997 L 4518.81,460.997 L 4532.49,463.906 L 4545.28,469.597 L 4556.6,477.821 L 4565.96,488.219 L 4572.95,500.337 L 4577.28,513.644 L 4578.74,527.559 L 4577.28,541.474 L 4572.95,554.782 L 4565.96,566.899 L 4556.6,577.297 L 4551.18,581.231 z " style="fill-opacity:1.000000;fill:rgb(99,59,112);stroke:rgb(0,0,0);stroke-width:2"/></g>
<g fill-rule="evenodd"><path d="M 4351.18,581.231 L 4351.18,1771.09 L 4406.58,1826.49 L 4411.48,1832.46 L 4415.11,1839.26 L 4417.35,1846.65 L 4418.11,1854.33 L 4418.11,1886.58 L 4515.78,1984.25 L 5488.19,1984.25 L 5495.87,1985.01 L 5503.25,1987.25 L 5510.06,1990.89 L 5516.03,1995.78 L 5752.25,2232 L 5757.15,2237.97 L 5760.78,2244.78 L 5763.02,2252.16 L 5763.78,2259.84 L 5763.78,5645.67 L 5763.02,5653.35 L 5760.78,5660.73 L 5757.15,5667.54 L 5752.25,5673.51 L 5524.62,5901.14 L 5525.84,5904.89 L 5527.56,5921.26 L 5525.84,5937.63 L 5520.75,5953.29 L 5512.52,5967.54 L 5501.51,5979.78 L 5488.19,5989.45 L 5473.15,5996.15 L 5457.05,5999.57 L 5440.59,5999.57 L 5424.49,5996.15 L 5409.45,5989.45 L 5396.13,5979.78 L 5385.12,5967.54 L 5376.89,5953.29 L 5371.8,5937.63 L 5370.08,5921.26 L 5371.8,5904.89 L 5376.89,5889.23 L 5385.12,5874.98 L 5396.13,5862.74 L 5409.45,5853.07 L 5424.49,5846.37 L 5440.59,5842.95 L 5457.05,5842.95 L 5468.93,5845.48 L 5685.04,5629.36 L 5685.04,2276.15 L 5471.88,2062.99 L 4499.47,2062.99 L 4491.79,2062.23 L 4484.41,2059.99 L 4477.6,2056.36 L 4471.63,2051.46 L 4350.9,1930.73 L 4346.01,1924.76 L 4342.37,1917.95 L 4340.13,1910.57 L 4339.37,1902.89 L 4339.37,1870.64 L 4283.97,1815.24 L 4279.08,1809.27 L 4275.44,1802.47 L 4273.2,1795.08 L 4272.44,1787.4 L 4272.44,581.23 L 4267.03,577.297 L 4257.66,566.899 L 4250.67,554.782 L 4246.34,541.474 L 4244.88,527.559 L 4246.34,513.644 L 4250.67,500.337 L 4257.66,488.219 L 4267.03,477.821 L 4278.35,469.597 L 4291.13,463.906 L 4304.82,460.997 L 4318.81,460.997 L 4332.49,463.906 L 4345.28,469.597 L 4356.6,477.821 L 4365.96,488.219 L 4372.95,500.337 L 4377.28,513.644 L 4378.74,527.559 L 4377.28,541.474 L 4372.95,554.782 L 4365.96,566.899 L 4356.6,577.297 L 4351.18,581.231 z " style="fill-opacity:1.000000;fill:rgb(100,36,17);stroke:rgb(0,0,0);stroke-width:2"/></g>
<g fill-rule="evenodd"><path d="M 4151.18,581.231 L 4151.18,1771.09 L 4206.58,1826.49 L 4211.48,1832.46 L 4215.11,1839.26 L 4217.35,1846.65 L 4218.03,1853.54 L 4466.86,2102.36 L 5406.3,2102.36 L 5413.98,2103.12 L 5421.36,2105.36 L 5428.17,2109 L 5434.14,2113.89 L 5634.14,2313.89 L 5639.03,2319.86 L 5642.67,2326.67 L 5644.91,2334.05 L 5645.67,2341.73 L 5645.67,4188.98 L 5644.91,4196.66 L 5642.67,4204.04 L 5639.03,4210.85 L 5634.14,4216.82 L 5524.62,4326.33 L 5525.84,4330.09 L 5527.56,4346.46 L 5525.84,4362.83 L 5520.75,4378.48 L 5512.52,4392.74 L 5501.51,4404.97 L 5488.19,4414.65 L 5473.15,4421.34 L 5457.05,4424.77 L 5440.59,4424.77 L 5424.49,4421.34 L 5409.45,4414.65 L 5396.13,4404.97 L 5385.12,4392.74 L 5376.89,4378.48 L 5371.8,4362.83 L 5370.08,4346.46 L 5371.8,4330.09 L 5376.89,4314.43 L 5385.12,4300.17 L 5396.13,4287.94 L 5409.45,4278.27 L 5424.49,4271.57 L 5440.59,4268.15 L 5457.05,4268.15 L 5468.93,4270.67 L 5566.93,4172.67 L 5566.93,2358.04 L 5389.99,2181.1 L 4450.55,2181.1 L 4442.87,2180.35 L 4435.48,2178.1 L 4428.68,2174.47 L 4422.71,2169.57 L 4150.9,1897.76 L 4146.01,1891.79 L 4142.37,1884.99 L 4140.13,1877.6 L 4139.45,1870.72 L 4083.97,1815.24 L 4079.08,1809.27 L 4075.44,1802.47 L 4073.2,1795.08 L 4072.44,1787.4 L 4072.44,581.231 L 4067.03,577.297 L 4057.66,566.899 L 4050.67,554.782 L 4046.34,541.474 L 4044.88,527.559 L 4046.34,513.644 L 4050.67,500.337 L 4057.66,488.219 L 4067.03,477.821 L 4078.35,469.597 L 4091.13,463.906 L 4104.82,460.997 L 4118.81,460.997 L 4132.49,463.906 L 4145.28,469.597 L 4156.6,477.821 L 4165.96,488.219 L 4172.95,500.337 L 4177.28,513.644 L 4178.74,527.559 L 4177.28,541.474 L 4172.95,554.782 L 4165.96,566.899 L 4156.6,577.297 L 4151.18,581.231 z " style="fill-opacity:1.000000;fill:rgb(158,9,220);stroke:rgb(0,0,0);stroke-width:2"/></g>
<g fill-rule="evenodd"><path d="M 3951.18,581.231 L 3951.18,1771.09 L 4006.58,1826.49 L 4011.48,1832.46 L 4015.11,1839.26 L 4017.35,1846.65 L 4018.03,1853.54 L 4384.97,2220.47 L 5048.36,2220.47 L 5056.04,2221.23 L 5063.43,2223.47 L 5070.24,2227.11 L 5076.2,2232 L 5476.66,2632.46 L 5481.55,2638.43 L 5485.19,2645.23 L 5487.43,2652.62 L 5488.19,2660.3 L 5488.19,2703.46 L 5501.51,2713.14 L 5512.52,2725.37 L 5520.75,2739.63 L 5525.84,2755.28 L 5527.56,2771.65 L 5525.84,2788.02 L 5520.75,2803.68 L 5512.52,2817.94 L 5501.51,2830.17 L 5488.19,2839.84 L 5473.15,2846.54 L 5457.05,2849.96 L 5440.59,2849.96 L 5424.49,2846.54 L 5409.45,2839.84 L 5396.13,2830.17 L 5385.12,2817.94 L 5376.89,2803.68 L 5371.8,2788.02 L 5370.08,2771.65 L 5371.8,2755.28 L 5376.89,2739.63 L 5385.12,2725.37 L 5396.13,2713.14 L 5409.45,2703.46 L 5409.45,2676.6 L 5032.06,2299.21 L 4368.66,2299.21 L 4360.98,2298.46 L 4353.59,2296.22 L 4346.79,2292.58 L 4340.82,2287.68 L 3950.9,1897.76 L 3946.01,1891.79 L 3942.37,1884.99 L 3940.13,1877.6 L 3939.45,1870.72 L 3883.97,1815.24 L 3879.08,1809.27 L 3875.44,1802.47 L 3873.2,1795.08 L 3872.44,1787.4 L 3872.44,581.23 L 3867.03,577.297 L 3857.66,566.899 L 3850.67,554.782 L 3846.34,541.474 L 3844.88,527.559 L 3846.34,513.644 L 3850.67,500.337 L 3857.66,488.219 L 3867.03,477.821 L 3878.35,469.597 L 3891.13,463.906 L 3904.82,460.997 L 3918.81,460.997 L 3932.49,463.906 L 3945.28,469.597 L 3956.6,477.821 L 3965.96,488.219 L 3972.95,500.337 L 3977.28,513.644 L 3978.74,527.559 L 3977.28,541.474 L 3972.95,554.782 L 3965.96,566.899 L 3956.6,577.297 L 3951.18,581.231 z " style="fill-opacity:1.000000;fill:rgb(170,212,172);stroke:rgb(0,0,0);stroke-width:2"/></g>
<g fill-rule="evenodd"><path d="M 5751.18,581.231 L 5751.18,605.904 L 6247.64,1102.36 L 7004.16,1102.36 L 7568.79,537.74 L 7567.72,527.559 L 7569.18,513.644 L 7573.5,500.337 L 7580.5,488.219 L 7589.86,477.821 L 7601.18,469.597 L 7613.96,463.906 L 7627.65,460.997 L 7641.64,460.997 L 7655.33,463.906 L 7668.11,469.597 L 7679.43,477.821 L 7688.79,488.219 L 7695.79,500.337 L 7700.11,513.644 L 7701.57,527.559 L 7700.11,541.474 L 7695.79,554.782 L 7688.79,566.899 L 7679.43,577.297 L 7668.11,585.521 L 7655.33,591.212 L 7641.64,594.122 L 7627.65,594.122 L 7624.44,593.44 L 7048.31,1169.57 L 7042.35,1174.47 L 7035.54,1178.11 L 7028.15,1180.35 L 7020.47,1181.1 L 6231.33,1181.1 L 6223.65,1180.35 L 6216.27,1178.11 L 6209.46,1174.47 L 6203.49,1169.57 L 5683.97,650.05 L 5679.08,644.084 L 5675.44,637.277 L 5673.2,629.892 L 5672.44,622.211 L 5672.44,581.231 L 5667.03,577.297 L 5657.66,566.899 L 5650.67,554.782 L 5646.34,541.474 L 5644.88,527.559 L 5646.34,513.644 L 5650.67,500.337 L 5657.66,488.219 L 5667.03,477.821 L 5678.35,469.597 L 5691.13,463.906 L 5704.82,460.997 L 5718.81,460.997 L 5732.49,463.906 L 5745.28,469.597 L 5756.6,477.821 L 5765.96,488.219 L 5772.95,500.337 L 5777.28,513.644 L 5778.74,527.559 L 5777.28,541.474 L 5772.95,554.782 L 5765.96,566.899 L 5756.6,577.297 L 5751.18,581.231 z " style="fill-opacity:1.000000;fill:rgb(242,27,16);stroke:rgb(0,0,0);stroke-width:2"/></g>
<g fill-rule="evenodd"><path d="M 5551.18,581.231 L 5551.18,1007.31 L 5803.71,1259.84 L 7880.42,1259.84 L 7888.1,1260.6 L 7895.49,1262.84 L 7902.29,1266.48 L 7908.26,1271.37 L 8901.86,2264.97 L 8906.75,2270.94 L 8910.39,2277.74 L 8912.63,2285.13 L 8913.39,2292.81 L 8913.39,5645.67 L 8912.63,5653.35 L 8910.39,5660.73 L 8906.75,5667.54 L 8901.86,5673.51 L 8674.23,5901.14 L 8675.44,5904.89 L 8677.17,5921.26 L 8675.44,5937.63 L 8670.36,5953.29 L 8662.13,5967.54 L 8651.11,5979.78 L 8637.8,5989.45 L 8622.76,5996.15 L 8606.66,5999.57 L 8590.19,5999.57 L 8574.09,5996.15 L 8559.06,5989.45 L 8545.74,5979.78 L 8534.72,5967.54 L 8526.49,5953.29 L 8521.41,5937.63 L 8519.69,5921.26 L 8521.41,5904.89 L 8526.49,5889.23 L 8534.72,5874.98 L 8545.74,5862.74 L 8559.06,5853.07 L 8574.09,5846.37 L 8590.19,5842.95 L 8606.66,5842.95 L 8618.53,5845.48 L 8834.65,5629.36 L 8834.65,2309.12 L 7864.11,1338.58 L 5787.4,1338.58 L 5779.72,1337.83 L 5772.34,1335.59 L 5765.53,1331.95 L 5759.56,1327.05 L 5483.97,1051.46 L 5479.08,1045.49 L 5475.44,1038.69 L 5473.2,1031.3 L 5472.44,1023.62 L 5472.44,581.23 L 5467.03,577.297 L 5457.66,566.899 L 5450.67,554.782 L 5446.34,541.474 L 5444.88,527.559 L 5446.34,513.644 L 5450.67,500.337 L 5457.66,488.219 L 5467.03,477.821 L 5478.35,469.597 L 5491.13,463.906 L 5504.82,460.997 L 5518.81,460.997 L 5532.49,463.906 L 5545.28,469.597 L 5556.6,477.821 L 5565.96,488.219 L 5572.95,500.337 L 5577.28,513.644 L 5578.74,527.559 L 5577.28,541.474 L 5572.95,554.782 L 5565.96,566.899 L 5556.6,577.297 L 5551.18,581.231 z " style="fill-opacity:1.000000;fill:rgb(175,59,51);stroke:rgb(0,0,0);stroke-width:2"/></g>
<g fill-rule="evenodd"><path d="M 5351.18,581.231 L 5351.18,1062.43 L 5395.05,1106.3 L 5405.32,1107.06 L 5412.7,1109.3 L 5419.51,1112.93 L 5425.48,1117.83 L 5701.34,1393.7 L 7847.24,1393.7 L 7854.92,1394.45 L 7862.3,1396.69 L 7869.11,1400.33 L 7875.08,1405.23 L 8783.74,2313.89 L 8788.64,2319.86 L 8792.28,2326.67 L 8794.52,2334.05 L 8795.28,2341.73 L 8795.28,4188.98 L 8794.52,4196.66 L 8792.28,4204.04 L 8788.64,4210.85 L 8783.74,4216.82 L 8674.23,4326.33 L 8675.44,4330.09 L 8677.17,4346.46 L 8675.44,4362.83 L 8670.36,4378.48 L 8662.13,4392.74 L 8651.11,4404.97 L 8637.8,4414.65 L 8622.76,4421.34 L 8606.66,4424.77 L 8590.19,4424.77 L 8574.09,4421.34 L 8559.06,4414.65 L 8545.74,4404.97 L 8534.72,4392.74 L 8526.49,4378.48 L 8521.41,4362.83 L 8519.69,4346.46 L 8521.41,4330.09 L 8526.49,4314.43 L 8534.72,4300.17 L 8545.74,4287.94 L 8559.06,4278.27 L 8574.09,4271.57 L 8590.19,4268.15 L 8606.66,4268.15 L 8618.53,4270.67 L 8716.54,4172.67 L 8716.54,2358.04 L 7830.93,1472.44 L 5685.03,1472.44 L 5677.35,1471.68 L 5669.97,1469.44 L 5663.16,1465.8 L 5657.19,1460.9 L 5381.33,1185.04 L 5371.06,1184.28 L 5363.67,1182.04 L 5356.87,1178.4 L 5350.9,1173.51 L 5283.97,1106.58 L 5279.08,1100.61 L 5275.44,1093.81 L 5273.2,1086.42 L 5272.44,1078.74 L 5272.44,581.231 L 5267.03,577.297 L 5257.66,566.899 L 5250.67,554.782 L 5246.34,541.474 L 5244.88,527.559 L 5246.34,513.644 L 5250.67,500.337 L 5257.66,488.219 L 5267.03,477.821 L 5278.35,469.597 L 5291.13,463.906 L 5304.82,460.997 L 5318.81,460.997 L 5332.49,463.906 L 5345.28,469.597 L 5356.6,477.821 L 5365.96,488.219 L 5372.95,500.337 L 5377.28,513.644 L 5378.74,527.559 L 5377.28,541.474 L 5372.95,554.782 L 5365.96,566.899 L 5356.6,577.297 L 5351.18,581.231 z " style="fill-opacity:1.000000;fill:rgb(205,227,80);stroke:rgb(0,0,0);stroke-width:2"/></g>
<g fill-rule="evenodd"><path d="M 5151.18,581.231 L 5151.18,1157.08 L 5505.9,1511.81 L 7489.3,1511.81 L 7496.98,1512.56 L 7504.37,1514.8 L 7511.18,1518.44 L 7517.14,1523.34 L 8626.26,2632.46 L 8631.16,2638.43 L 8634.8,2645.23 L 8637.04,2652.62 L 8637.8,2660.3 L 8637.8,2703.46 L 8651.11,2713.14 L 8662.13,2725.37 L 8670.36,2739.63 L 8675.44,2755.28 L 8677.17,2771.65 L 8675.44,2788.02 L 8670.36,2803.68 L 8662.13,2817.94 L 8651.11,2830.17 L 8637.8,2839.84 L 8622.76,2846.54 L 8606.66,2849.96 L 8590.19,2849.96 L 8574.09,2846.54 L 8559.06,2839.84 L 8545.74,2830.17 L 8534.72,2817.94 L 8526.49,2803.68 L 8521.41,2788.02 L 8519.69,2771.65 L 8521.41,2755.28 L 8526.49,2739.63 L 8534.72,2725.37 L 8545.74,2713.14 L 8559.06,2703.46 L 8559.06,2676.61 L 7473,1590.55 L 5489.6,1590.55 L 5481.91,1589.79 L 5474.53,1587.55 L 5467.72,1583.91 L 5461.76,1579.02 L 5083.97,1201.23 L 5079.08,1195.27 L 5075.44,1188.46 L 5073.2,1181.07 L 5072.44,1173.39 L 5072.44,581.23 L 5067.03,577.297 L 5057.66,566.899 L 5050.67,554.782 L 5046.34,541.474 L 5044.88,527.559 L 5046.34,513.644 L 5050.67,500.337 L 5057.66,488.219 L 5067.03,477.821 L 5078.35,469.597 L 5091.13,463.906 L 5104.82,460.997 L 5118.81,460.997 L 5132.49,463.906 L 5145.28,469.597 L 5156.6,477.821 L 5165.96,488.219 L 5172.95,500.337 L 5177.28,513.644 L 5178.74,527.559 L 5177.28,541.474 L 5172.95,554.782 L 5165.96,566.899 L 5156.6,577.297 L 5151.18,581.231 z " style="fill-opacity:1.000000;fill:rgb(72,71,21);stroke:rgb(0,0,0);stroke-width:2"/></g>
<g fill-rule="evenodd"><path d="M 4951.18,581.231 L 4951.18,1573.42 L 4955.4,1576.89 L 5008.43,1629.92 L 6685.04,1629.92 L 6692.72,1630.67 L 6700.1,1632.91 L 6706.91,1636.55 L 6712.87,1641.45 L 7327.05,2255.63 L 7331.95,2261.59 L 7335.59,2268.4 L 7337.83,2275.78 L 7338.58,2283.47 L 7338.58,5645.67 L 7337.83,5653.35 L 7335.59,5660.73 L 7331.95,5667.54 L 7327.05,5673.51 L 7099.42,5901.14 L 7100.64,5904.89 L 7102.36,5921.26 L 7100.64,5937.63 L 7095.55,5953.29 L 7087.32,5967.54 L 7076.31,5979.78 L 7062.99,5989.45 L 7047.95,5996.15 L 7031.85,5999.57 L 7015.39,5999.57 L 6999.29,5996.15 L 6984.25,5989.45 L 6970.93,5979.78 L 6959.92,5967.54 L 6951.69,5953.29 L 6946.6,5937.63 L 6944.88,5921.26 L 6946.6,5904.89 L 6951.69,5889.23 L 6959.92,5874.98 L 6970.93,5862.74 L 6984.25,5853.07 L 6999.29,5846.37 L 7015.39,5842.95 L 7031.85,5842.95 L 7043.73,5845.48 L 7259.84,5629.36 L 7259.84,2299.77 L 6668.73,1708.66 L 4992.12,1708.66 L 4984.44,1707.9 L 4977.06,1705.66 L 4970.25,1702.02 L 4964.28,1697.13 L 4911.19,1644.03 L 4904.13,1643.34 L 4896.74,1641.1 L 4889.94,1637.46 L 4883.97,1632.56 L 4879.08,1626.6 L 4875.44,1619.79 L 4873.2,1612.41 L 4872.44,1604.72 L 4872.44,581.231 L 4867.03,577.297 L 4857.66,566.899 L 4850.67,554.782 L 4846.34,541.474 L 4844.88,527.559 L 4846.34,513.644 L 4850.67,500.337 L 4857.66,488.219 L 4867.03,477.821 L 4878.35,469.597 L 4891.13,463.906 L 4904.82,460.997 L 4918.81,460.997 L 4932.49,463.906 L 4945.28,469.597 L 4956.6,477.821 L 4965.96,488.219 L 4972.95,500.337 L 4977.28,513.644 L 4978.74,527.559 L 4977.28,541.474 L 4972.95,554.782 L 4965.96,566.899 L 4956.6,577.297 L 4951.18,581.231 z " style="fill-opacity:1.000000;fill:rgb(92,187,111);stroke:rgb(0,0,0);stroke-width:2"/></g>
<g fill-rule="evenodd"><path d="M 4751.18,581.231 L 4751.18,1703.38 L 4795.83,1748.03 L 6626.77,1748.03 L 6634.45,1748.78 L 6641.83,1751.03 L 6648.64,1754.66 L 6654.61,1759.56 L 7208.94,2313.89 L 7213.84,2319.86 L 7217.48,2326.67 L 7219.72,2334.05 L 7220.47,2341.73 L 7220.47,4188.98 L 7219.72,4196.66 L 7217.48,4204.04 L 7213.84,4210.85 L 7208.94,4216.82 L 7099.42,4326.33 L 7100.64,4330.09 L 7102.36,4346.46 L 7100.64,4362.83 L 7095.55,4378.48 L 7087.32,4392.74 L 7076.31,4404.97 L 7062.99,4414.65 L 7047.95,4421.34 L 7031.85,4424.77 L 7015.39,4424.77 L 6999.29,4421.34 L 6984.25,4414.65 L 6970.93,4404.97 L 6959.92,4392.74 L 6951.69,4378.48 L 6946.6,4362.83 L 6944.88,4346.46 L 6946.6,4330.09 L 6951.69,4314.43 L 6959.92,4300.17 L 6970.93,4287.94 L 6984.25,4278.27 L 6999.29,4271.57 L 7015.39,4268.15 L 7031.85,4268.15 L 7043.73,4270.67 L 7141.73,4172.67 L 7141.73,2358.04 L 6610.46,1826.77 L 4779.52,1826.77 L 4771.84,1826.01 L 4764.46,1823.77 L 4757.65,1820.13 L 4751.69,1815.24 L 4683.97,1747.52 L 4679.08,1741.56 L 4675.44,1734.75 L 4673.2,1727.37 L 4672.44,1719.69 L 4672.44,581.23 L 4667.03,577.297 L 4657.66,566.899 L 4650.67,554.782 L 4646.34,541.474 L 4644.88,527.559 L 4646.34,513.644 L 4650.67,500.337 L 4657.66,488.219 L 4667.03,477.821 L 4678.35,469.597 L 4691.13,463.906 L 4704.82,460.997 L 4718.81,460.997 L 4732.49,463.906 L 4745.28,469.597 L 4756.6,477.821 L 4765.96,488.219 L 4772.95,500.337 L 4777.28,513.644 L 4778.74,527.559 L 4777.28,541.474 L 4772.95,554.782 L 4765.96,566.899 L 4756.6,577.297 L 4751.18,581.231 z " style="fill-opacity:1.000000;fill:rgb(34,25,186);stroke:rgb(0,0,0);stroke-width:2"/></g>
<g fill-rule="evenodd"><path d="M 6322.01,461.678 L 6339.37,444.323 L 6339.37,420.472 L 6340.13,412.792 L 6342.37,405.406 L 6346.01,398.6 L 6350.9,392.634 L 6606.02,137.514 L 6611.99,132.618 L 6618.79,128.98 L 6626.18,126.739 L 6633.86,125.983 L 8021.08,125.983 L 8028.76,126.739 L 8036.15,128.98 L 8042.96,132.618 L 8048.92,137.514 L 8429.41,518.005 L 8434.31,523.971 L 8437.95,530.778 L 8440.19,538.163 L 8440.94,545.844 L 8440.94,917.323 L 8440.19,925.004 L 8437.95,932.389 L 8434.31,939.196 L 8429.41,945.162 L 8356.58,1018 L 8350.61,1022.89 L 8343.81,1026.53 L 8336.42,1028.77 L 8328.74,1029.53 L 8303.15,1029.53 L 8303.15,1086.06 L 9000.28,1783.19 L 9005.18,1789.15 L 9008.82,1795.96 L 9011.06,1803.34 L 9011.81,1811.03 L 9011.81,6527.56 L 9011.06,6535.24 L 9008.82,6542.62 L 9005.18,6549.43 L 9000.28,6555.4 L 8500,7055.68 L 8500,7118.11 L 8523.62,7118.11 L 8523.62,7185.04 L 8481.18,7185.04 L 8472.8,7189.02 L 8464.75,7190.73 L 8456.51,7190.73 L 8448.46,7189.02 L 8440.08,7185.04 L 8397.64,7185.04 L 8397.64,7118.11 L 8421.26,7118.11 L 8421.26,7078.74 L 7043.87,7078.74 L 6948.82,7173.79 L 6948.82,7185.04 L 6935.86,7185.04 L 6930.42,7187.95 L 6923.04,7190.19 L 6915.35,7190.94 L 6885.83,7190.94 L 6877.64,7190.08 L 6869.81,7187.54 L 6865.48,7185.04 L 6822.83,7185.04 L 6822.83,7118.11 L 6865.48,7118.11 L 6869.81,7115.61 L 6877.64,7113.07 L 6885.83,7112.2 L 6899.05,7112.2 L 6932.51,7078.74 L 5469.06,7078.74 L 5374.02,7173.79 L 5374.02,7185.04 L 5361.06,7185.04 L 5355.62,7187.95 L 5348.23,7190.19 L 5340.55,7190.94 L 5311.02,7190.94 L 5302.84,7190.08 L 5295.01,7187.54 L 5290.68,7185.04 L 5248.03,7185.04 L 5248.03,7118.11 L 5290.68,7118.11 L 5295.01,7115.61 L 5302.84,7113.07 L 5311.02,7112.2 L 5324.24,7112.2 L 5357.71,7078.74 L 3894.26,7078.74 L 3799.21,7173.79 L 3799.21,7185.04 L 3786.26,7185.04 L 3780.81,7187.95 L 3773.43,7190.19 L 3765.75,7190.94 L 3736.22,7190.94 L 3728.03,7190.08 L 3720.21,7187.54 L 3715.87,7185.04 L 3673.23,7185.04 L 3673.23,7118.11 L 3715.87,7118.11 L 3720.21,7115.61 L 3728.03,7113.07 L 3736.22,7112.2 L 3749.44,7112.2 L 3782.91,7078.74 L 2319.46,7078.74 L 2224.41,7173.79 L 2224.41,7185.04 L 2211.45,7185.04 L 2206.01,7187.95 L 2198.63,7190.19 L 2190.94,7190.94 L 2161.42,7190.94 L 2153.23,7190.08 L 2145.4,7187.54 L 2141.07,7185.04 L 2098.43,7185.04 L 2098.43,7118.11 L 2141.07,7118.11 L 2145.4,7115.61 L 2153.23,7113.07 L 2161.42,7112.2 L 2174.64,7112.2 L 2208.1,7078.74 L 665.915,7078.74 L 570.866,7173.79 L 570.866,7185.04 L 557.909,7185.04 L 552.468,7187.95 L 545.082,7190.19 L 537.402,7190.94 L 507.874,7190.94 L 499.689,7190.08 L 491.861,7187.54 L 487.528,7185.04 L 444.882,7185.04 L 444.882,7118.11 L 487.527,7118.11 L 491.861,7115.61 L 499.689,7113.07 L 507.874,7112.2 L 521.094,7112.2 L 621.767,7011.53 L 627.733,7006.64 L 634.54,7003 L 641.926,7000.76 L 649.606,7000 L 8444.32,7000 L 8933.07,6511.25 L 8933.07,1827.33 L 8235.94,1130.2 L 8231.04,1124.24 L 8227.41,1117.43 L 8225.17,1110.04 L 8224.41,1102.36 L 8224.41,1023.62 L 8200.79,1023.62 L 8200.79,956.693 L 8243.27,956.694 L 8248.71,953.784 L 8256.1,951.544 L 8263.78,950.787 L 8312.43,950.787 L 8362.2,901.016 L 8362.2,562.152 L 8004.78,204.723 L 6650.17,204.723 L 6418.11,436.779 L 6418.11,460.63 L 6417.35,468.311 L 6415.11,475.696 L 6411.48,482.503 L 6406.58,488.469 L 6377.67,517.377 L 6378.74,527.559 L 6377.28,541.474 L 6372.95,554.782 L 6365.96,566.899 L 6356.6,577.297 L 6345.28,585.521 L 6332.49,591.212 L 6318.81,594.122 L 6304.82,594.122 L 6291.13,591.212 L 6278.35,585.521 L 6267.03,577.297 L 6257.66,566.899 L 6250.67,554.782 L 6246.34,541.474 L 6244.88,527.559 L 6246.34,513.644 L 6250.67,500.337 L 6257.66,488.219 L 6267.03,477.821 L 6278.35,469.597 L 6291.13,463.906 L 6304.82,460.997 L 6318.81,460.997 L 6322.01,461.678 z " style="fill-opacity:1.000000;fill:rgb(155,125,245);stroke:rgb(0,0,0);stroke-width:2"/></g>
<g fill-rule="evenodd"><path d="M 5951.18,581.231 L 5951.18,605.903 L 6285.6,940.322 L 6826.21,940.322 L 7160.63,605.904 L 7160.63,581.23 L 7155.22,577.297 L 7145.85,566.899 L 7138.86,554.782 L 7134.53,541.474 L 7133.07,527.559 L 7134.53,513.644 L 7138.86,500.337 L 7145.85,488.219 L 7155.22,477.821 L 7166.54,469.597 L 7179.32,463.906 L 7193,460.997 L 7207,460.997 L 7220.68,463.906 L 7233.46,469.597 L 7244.78,477.821 L 7254.15,488.219 L 7261.14,500.337 L 7265.47,513.644 L 7266.93,527.559 L 7265.47,541.474 L 7261.14,554.782 L 7254.15,566.899 L 7244.78,577.297 L 7239.37,581.231 L 7239.37,622.211 L 7238.61,629.892 L 7236.37,637.277 L 7232.74,644.084 L 7227.84,650.05 L 6870.36,1007.53 L 6864.39,1012.43 L 6857.59,1016.06 L 6850.2,1018.31 L 6842.52,1019.06 L 6269.29,1019.06 L 6261.61,1018.31 L 6254.23,1016.06 L 6247.42,1012.43 L 6241.45,1007.53 L 5883.97,650.05 L 5879.08,644.084 L 5875.44,637.277 L 5873.2,629.892 L 5872.44,622.211 L 5872.44,581.23 L 5867.03,577.297 L 5857.66,566.899 L 5850.67,554.782 L 5846.34,541.474 L 5844.88,527.559 L 5846.34,513.644 L 5850.67,500.337 L 5857.66,488.219 L 5867.03,477.821 L 5878.35,469.597 L 5891.13,463.906 L 5904.82,460.997 L 5918.81,460.997 L 5932.49,463.906 L 5945.28,469.597 L 5956.6,477.821 L 5965.96,488.219 L 5972.95,500.337 L 5977.28,513.644 L 5978.74,527.559 L 5977.28,541.474 L 5972.95,554.782 L 5965.96,566.899 L 5956.6,577.297 L 5951.18,581.231 z " style="fill-opacity:1.000000;fill:rgb(11,225,26);stroke:rgb(0,0,0);stroke-width:2"/></g>
<g fill-rule="evenodd"><path d="M 6578.74,566.93 L 6578.74,594.488 L 6444.88,594.488 L 6444.88,460.63 L 6578.74,460.63 L 6578.74,488.189 L 6641.17,488.189 L 6893.42,235.94 L 6899.39,231.044 L 6906.19,227.406 L 6913.58,225.165 L 6921.26,224.409 L 7980.31,224.409 L 7987.99,225.165 L 7995.38,227.406 L 8002.19,231.044 L 8008.15,235.94 L 8291.62,519.405 L 8296.51,525.371 L 8300.15,532.178 L 8302.39,539.563 L 8303.15,547.244 L 8303.15,818.898 L 8326.77,818.898 L 8326.77,885.827 L 8284.33,885.826 L 8275.95,889.805 L 8267.89,891.517 L 8259.66,891.517 L 8251.61,889.805 L 8243.23,885.826 L 8200.79,885.827 L 8200.79,818.898 L 8224.41,818.898 L 8224.41,563.552 L 7964.01,303.149 L 6937.57,303.149 L 6685.32,555.398 L 6679.35,560.294 L 6672.55,563.932 L 6665.16,566.173 L 6657.48,566.929 L 6578.74,566.93 z " style="fill-opacity:1.000000;fill:rgb(28,127,35);stroke:rgb(0,0,0);stroke-width:2"/></g>
</svg>
